<?xml version="1.0" standalone="no"?>
<!DOCTYPE svg PUBLIC "-//W3C//DTD SVG 1.1//EN" "http://www.w3.org/Graphics/SVG/1.1/DTD/svg11.dtd" >
<svg xmlns="http://www.w3.org/2000/svg" xmlns:xlink="http://www.w3.org/1999/xlink" version="1.1">
<metadata>
Created by FontForge 20190801 at Mon Mar 15 02:56:53 2021
 By Jimmy Wärting
Copyright 2014-2017 Indian Type Foundry (info@indiantypefoundry.com)
</metadata>
<defs>
<font id="SVN-PoppinsItalic" horiz-adv-x="640" >
  <font-face 
    font-family="SVN-Poppins"
    font-weight="400"
    font-style="italic"
    font-stretch="normal"
    units-per-em="1000"
    panose-1="0 0 5 0 0 0 0 0 0 0"
    ascent="800"
    descent="-200"
    x-height="548"
    cap-height="697"
    bbox="-527.13 -572 2629 1065"
    underline-thickness="50"
    underline-position="-100"
    slope="-10"
    unicode-range="U+0020-FB02"
  />
<missing-glyph horiz-adv-x="500" 
d="M0 700h500v-700h-500v700zM420 650h-340l170 -255zM450 95v510l-170 -255zM420 50l-170 255l-170 -255h340zM50 95l170 255l-170 255v-510z" />
    <glyph glyph-name=".notdef" horiz-adv-x="500" 
d="M0 700h500v-700h-500v700zM420 650h-340l170 -255zM450 95v510l-170 -255zM420 50l-170 255l-170 -255h340zM50 95l170 255l-170 255v-510z" />
    <glyph glyph-name="NULL" horiz-adv-x="0" 
 />
    <glyph glyph-name="nonmarkingreturn" horiz-adv-x="298" 
 />
    <glyph glyph-name="space" unicode=" " horiz-adv-x="298" 
 />
    <glyph glyph-name="dvA" unicode="&#x905;" horiz-adv-x="827" 
d="M295 448q33 0 59 10t44.5 25.5t30 35.5t15.5 41q5 28 -1 50t-20 37t-35.5 23t-46.5 8q-27 0 -51.5 -8t-45 -23t-34 -36t-17.5 -48h-78q7 43 28.5 77.5t53.5 58.5t72 37t85 13q43 0 77.5 -12.5t56.5 -35.5t31 -56t2 -74q-10 -57 -48 -98t-101 -56l-1 -2q15 -2 27.5 -7
t23.5 -12h221l60 344h215l-12 -70h-131l-119 -670h-83l57 327l-158 1q6 -19 7 -40t-3 -42q-8 -44 -29 -79.5t-52 -61t-70.5 -39t-85.5 -13.5q-49 0 -87 14.5t-63 41.5t-35 64.5t-2 82.5h79q-5 -29 1 -53t21.5 -41t39 -27t53.5 -10q62 0 103 35.5t51 92.5q8 41 -9 75h-3v5
q-13 20 -38 33.5t-67 13.5h-40l12 68h40v0z" />
    <glyph glyph-name="dvAA" unicode="&#x906;" horiz-adv-x="1119" 
d="M295 448q33 0 59 10t44.5 25.5t30 35.5t15.5 41q5 28 -1 50t-20 37t-35.5 23t-46.5 8q-27 0 -51.5 -8t-45 -23t-34 -36t-17.5 -48h-78q7 43 28.5 77.5t53.5 58.5t72 37t85 13q43 0 77.5 -12.5t56.5 -35.5t31 -56t2 -74q-10 -57 -48 -98t-101 -56l-1 -2q15 -2 27.5 -7
t23.5 -12h221l60 344h508l-12 -70h-131l-118 -670h-84l118 670h-209l-119 -670h-83l57 327l-158 1q6 -19 7 -40t-3 -42q-8 -44 -29 -79.5t-52 -61t-70.5 -39t-85.5 -13.5q-49 0 -87 14.5t-63 41.5t-35 64.5t-2 82.5h79q-5 -29 1 -53t21.5 -41t39 -27t53.5 -10q62 0 103 35.5
t51 92.5q8 41 -9 75h-3v5q-13 20 -38 33.5t-67 13.5h-40l12 68h40v0z" />
    <glyph glyph-name="dvI" unicode="&#x907;" horiz-adv-x="584" 
d="M35 740h654l-12 -70h-152l-26 -144l-7 -37h-177q-21 0 -43 -3.5t-41 -12.5t-33.5 -25.5t-18.5 -42.5q-4 -23 2 -38.5t19 -25t32 -14t41 -4.5h44q38 0 73.5 -9t61 -29.5t37.5 -54t3 -82.5q-6 -34 -22 -63.5t-42.5 -51.5t-62.5 -34.5t-81 -12.5q-40 0 -68 10.5t-46.5 25
t-28 30.5t-12.5 27l-27 -156h-79l45 256h75q-4 -56 28 -92.5t102 -36.5q63 0 97.5 31t42.5 73q6 32 -2.5 53t-26 33.5t-42 17.5t-51.5 5h-52q-32 1 -61 9.5t-49 26.5t-29.5 45t-3.5 64q7 40 27.5 67.5t49 44t62.5 23.5t69 7h118l22 120h-420z" />
    <glyph glyph-name="dvII" unicode="&#x908;" horiz-adv-x="580" 
d="M102 -77h-79l45 256h75q-4 -56 28 -92.5t102 -36.5q63 0 98 31t42 73q6 32 -2.5 53t-26 33.5t-42 17.5t-51.5 5h-52q-32 1 -61 9.5t-49 26.5t-29.5 45t-3.5 64q7 40 27.5 67.5t49 44t62.5 23.5t69 7h118l22 120h-420l12 70h422l13 74q7 41 22.5 76.5t40 61.5t59 40.5
t79.5 14.5q77 0 111.5 -47t18.5 -122h-73q8 45 -10 71.5t-59 26.5q-92 0 -112 -122l-12 -74h153l-11 -70h-152l-26 -144h-1l-7 -37h-177q-21 0 -43 -3.5t-41 -12.5t-33.5 -25.5t-18.5 -42.5q-4 -23 2 -38.5t19 -25t32 -14t41 -4.5h44q38 0 73.5 -9t61 -29.5t37.5 -54
t3 -82.5q-6 -34 -22 -63.5t-42.5 -51.5t-62.5 -34.5t-81 -12.5q-40 0 -68 10.5t-46.5 25t-28 30.5t-12.5 27z" />
    <glyph glyph-name="dvU" unicode="&#x909;" horiz-adv-x="575" 
d="M38 740h629l-13 -70h-121l-18 -104q-11 -63 -50 -103.5t-88 -48.5l-1 -2q31 -7 54.5 -25t37 -43.5t18 -57.5t-1.5 -68q-9 -47 -31 -86.5t-55 -68t-76.5 -44.5t-95.5 -16q-53 0 -94 16.5t-67.5 46t-37 70.5t-1.5 91h79q-6 -32 1.5 -59t25 -47t44.5 -31.5t60 -11.5t61.5 11
t50.5 30.5t37 46t21 58.5q4 26 0.5 52.5t-17.5 48t-40.5 35t-67.5 13.5h-46l12 74h36q66 0 104.5 35t47.5 89l17 99h-426z" />
    <glyph glyph-name="dvUU" unicode="&#x90a;" horiz-adv-x="864" 
d="M38 740h918l-12 -70h-411l-18 -104q-11 -63 -50 -103.5t-88 -48.5l-1 -2h207q48 0 88.5 -11t68 -34.5t39 -61t2.5 -90.5q-9 -48 -30 -83.5t-51 -58.5t-67.5 -34.5t-78.5 -11.5q-11 0 -23 1t-24 3l12 64q9 -1 17 -1h16q26 0 50 6.5t44 21.5t34.5 38.5t20.5 57.5
q6 35 -1.5 59t-25.5 39t-44.5 22t-56.5 7h-110q16 -26 20.5 -59.5t-1.5 -71.5q-8 -45 -29.5 -84t-55 -67t-77 -44t-94.5 -16q-53 0 -94 16.5t-67.5 46t-37 70.5t-1.5 91h79q-6 -32 1.5 -59t25 -47t44.5 -31.5t60 -11.5t61.5 11t50.5 30.5t37 46t21 58.5q4 26 0.5 52.5
t-17.5 48t-40.5 35t-67.5 13.5h-46l12 74h36q66 0 104.5 35t47.5 89l17 99h-426z" />
    <glyph glyph-name="dvvR" unicode="&#x90b;" horiz-adv-x="1021" 
d="M481 275l-321 -275h-104l1 6l440 356v1q-1 57 -37 94.5t-102 37.5q-40 0 -75.5 -13t-64 -37.5t-47.5 -59.5t-26 -78h-84q10 58 36 106t63.5 82t85 52.5t101.5 18.5q66 0 107.5 -26.5t60.5 -71.5l36 202h-525l12 70h1075l-12 -70h-472l-41 -232h179q42 0 64.5 17.5
t30.5 46.5l12 70h73l-62 -354h-19q-58 0 -92.5 -30.5t-42.5 -75.5q-5 -28 1 -47.5t20 -32t34.5 -18t44.5 -5.5q15 0 30.5 3t27.5 6l-12 -68q-13 -3 -32 -5.5t-36 -2.5q-39 0 -71.5 10t-54.5 30.5t-31.5 51t-1.5 72.5q11 64 56.5 106.5t114.5 54.5l22 127q-44 -23 -100 -23
h-167l-65 -371h-78z" />
    <glyph glyph-name="dvvRR" unicode="&#x960;" horiz-adv-x="1023" 
d="M482 276l-322 -276h-105l1 6l441 357q-1 57 -37 94.5t-102 37.5q-41 0 -76.5 -13t-63.5 -37.5t-47.5 -59.5t-26.5 -78h-84q10 58 36 106t63.5 82t85 52.5t101.5 18.5q67 0 108.5 -27t60.5 -72l36 203h-525l12 70h1076l-12 -70h-474l-41 -232h179q43 0 66 18.5t30 49.5
l5 24l3 21l4 21h73l-63 -356h-39q-18 0 -36 -3.5t-32.5 -12t-25 -23t-14.5 -35.5q-3 -20 2 -34t17 -22.5t29.5 -12.5t37.5 -4h46l-11 -63h-47q-18 0 -36.5 -3.5t-33.5 -12.5t-26 -23.5t-15 -36.5q-4 -21 2 -35t18.5 -22.5t30.5 -12.5t39 -4q29 0 57.5 5.5t42.5 10.5l-11 -63
q-20 -8 -51 -13.5t-62 -5.5q-33 0 -62.5 7.5t-50.5 23.5t-31 41t-4 60q8 47 39.5 76t70.5 37l1 2q-37 9 -58 35t-13 74q6 33 23 55.5t40 37t49.5 20.5t50.5 6l22 130q-44 -24 -101 -24h-166l-65 -371h-78z" />
    <glyph glyph-name="dvvL" unicode="&#x90c;" horiz-adv-x="900" 
d="M36 740h953l-13 -70h-252l-23 -128q69 -15 101 -74t16 -152q-5 -27 -13 -52t-21 -48h-7q-65 0 -101 -30.5t-44 -75.5q-5 -28 1 -47.5t20.5 -31.5t35.5 -17.5t45 -5.5q32 0 59 8l-12 -67q-14 -4 -33 -6.5t-36 -2.5q-39 0 -72 10t-55 31t-31.5 52t-1.5 73q6 31 20.5 57.5
t36.5 47.5t50.5 34.5t60.5 17.5q10 25 15 54q6 32 3 60t-15 49t-34 33t-53 12q-68 0 -111.5 -50.5t-54.5 -131.5l-4 -18h-69l2 18q5 40 3 73.5t-13 57.5t-31.5 37.5t-53.5 13.5q-34 0 -61 -11.5t-47.5 -32.5t-34 -49.5t-19.5 -62.5q-14 -78 18 -124.5t110 -46.5
q6 0 13.5 0.5t16.5 1.5l-13 -73q-11 -1 -19 -1h-16q-59 0 -100 18t-65 50.5t-31.5 77.5t1.5 98q9 54 31.5 96.5t55 72.5t73.5 45.5t87 15.5q39 0 66 -13t44 -34t25.5 -47t10.5 -52h3q10 24 25 47t36 42.5t47.5 34t59.5 19.5l23 127h-621z" />
    <glyph glyph-name="dvvLL" unicode="&#x961;" horiz-adv-x="909" 
d="M40 740h958l-13 -70h-261l-23 -129q34 -7 59.5 -26t41 -48t20 -67t-3.5 -84q-5 -27 -13.5 -52t-19.5 -48h-37q-18 0 -35.5 -3.5t-32.5 -12t-25.5 -23t-14.5 -35.5q-3 -20 2.5 -34t17.5 -22.5t29 -12.5t37 -4h47l-12 -63h-47q-19 0 -37 -3.5t-33.5 -12.5t-26.5 -23.5
t-15 -36.5q-3 -21 3 -35t19 -22.5t31 -12.5t38 -4q29 0 57.5 5.5t42.5 10.5l-11 -63q-20 -8 -51 -13.5t-61 -5.5q-33 0 -63 7.5t-51 23.5t-31 41t-4 61q8 46 40 75t70 37l1 2q-37 9 -58 35t-13 74q6 32 22.5 54t38.5 36.5t47.5 21t50.5 7.5q10 23 15 52q6 32 3 60t-15 49
t-34 33t-53 12q-69 0 -112 -50.5t-54 -131.5l-4 -18h-69l2 18q5 40 3 73.5t-13 57.5t-31.5 37.5t-53.5 13.5q-34 0 -61.5 -11.5t-48 -32.5t-33.5 -49.5t-19 -62.5q-14 -78 18 -124.5t110 -46.5q6 0 13.5 0.5t16.5 1.5l-13 -73q-11 -1 -19 -1h-16q-59 0 -100 18t-65 50.5
t-31.5 77.5t1.5 98q9 54 31.5 96.5t55 72.5t73.5 45.5t87 15.5q39 0 66 -13t44 -34t25.5 -47t10.5 -52h3q10 24 25 47t36 42.5t47.5 34t60.5 19.5l22 127h-616z" />
    <glyph glyph-name="dvE" unicode="&#x90f;" horiz-adv-x="651" 
d="M37 740h705l-12 -70h-112l-20 -116q-10 -56 -28 -96.5t-47.5 -65.5t-70.5 -35t-96 -4l12 74q67 -6 101 25t48 104l20 114h-300l-70 -399q-17 -85 18 -132.5t113 -47.5q71 0 114.5 41t56.5 116h81q-18 -109 -84.5 -169t-174.5 -60q-62 0 -106 18.5t-69.5 52t-33.5 80
t2 103.5l69 397h-128z" />
    <glyph glyph-name="dvAI" unicode="&#x910;" horiz-adv-x="651" 
d="M291 19q-62 0 -106 18.5t-69.5 52t-33.5 80t2 103.5l69 397h-128l12 70h509q-28 60 -49.5 94.5t-43 52t-47.5 22t-63 4.5h-41l12 68h41q49 0 84.5 -6.5t65.5 -30.5t58 -72t62 -132h117l-12 -70h-112l-20 -116q-10 -56 -28 -96.5t-47.5 -65.5t-70.5 -35t-96 -4l12 74
q67 -6 101 25t48 104l20 114h-300l-70 -399q-17 -85 18 -132.5t113 -47.5q71 0 114.5 41t56.5 116h81q-18 -109 -84.5 -169t-174.5 -60z" />
    <glyph glyph-name="dvO" unicode="&#x913;" horiz-adv-x="1119" 
d="M573 0l57 327l-158 1q6 -19 7 -40t-3 -42q-8 -44 -29 -79.5t-52 -61t-70.5 -39t-85.5 -13.5q-49 0 -87 14.5t-63 41.5t-35 64.5t-2 82.5h79q-5 -29 1 -53t21.5 -41t39 -27t53.5 -10q62 0 103 35.5t51 92.5q8 41 -9 75h-3v5q-13 20 -38 33.5t-67 13.5h-40l12 68h40
q33 0 59 10t44.5 25.5t30 35.5t15.5 41q5 28 -1 50t-20 37t-35.5 23t-46.5 8q-27 0 -51.5 -8t-45 -23t-34 -36t-17.5 -48h-78q7 43 28.5 77.5t53.5 58.5t72 37t85 13q43 0 77.5 -12.5t56.5 -35.5t31 -56t2 -74q-10 -57 -48 -98t-101 -56l-1 -2q15 -2 27.5 -7t23.5 -12h221
l60 344h347q-28 60 -49.5 94.5t-43 52t-47.5 22t-62 4.5h-42l12 68h41q49 0 84.5 -6.5t65.5 -30.5t57.5 -72t62.5 -132h82l-12 -70h-131l-118 -670h-84l118 670h-209l-119 -670h-83z" />
    <glyph glyph-name="dvAU" unicode="&#x914;" horiz-adv-x="1119" 
d="M573 0l57 327l-158 1q6 -19 7 -40t-3 -42q-8 -44 -29 -79.5t-52 -61t-70.5 -39t-85.5 -13.5q-49 0 -87 14.5t-63 41.5t-35 64.5t-2 82.5h79q-5 -29 1 -53t21.5 -41t39 -27t53.5 -10q62 0 103 35.5t51 92.5q8 41 -9 75h-3v5q-13 20 -38 33.5t-67 13.5h-40l12 68h40
q33 0 59 10t44.5 25.5t30 35.5t15.5 41q5 28 -1 50t-20 37t-35.5 23t-46.5 8q-27 0 -51.5 -8t-45 -23t-34 -36t-17.5 -48h-78q7 43 28.5 77.5t53.5 58.5t72 37t85 13q43 0 77.5 -12.5t56.5 -35.5t31 -56t2 -74q-10 -57 -48 -98t-101 -56l-1 -2q15 -2 27.5 -7t23.5 -12h221
l60 344h352q-37 34 -62.5 53t-48.5 28.5t-49.5 11.5t-66.5 2h-43l10 54h41q37 0 64 -1.5t50 -9.5t46.5 -24.5t54.5 -46.5q-24 65 -45.5 101t-43.5 53.5t-47.5 21t-57.5 3.5h-44l9 55h42q49 0 83 -6.5t62 -35.5t55.5 -90t64.5 -169h82l-12 -70h-131l-118 -670h-84l118 670
h-209l-119 -670h-83z" />
    <glyph glyph-name="dvEcandra" unicode="&#x90d;" horiz-adv-x="652" 
d="M386 837q-53 0 -89 14.5t-56.5 39.5t-27 56.5t-0.5 66.5h72q-4 -21 0 -41t17.5 -36t36.5 -26t58 -10q34 0 60.5 10t45.5 26t30 36t15 41h71q-6 -35 -23 -66.5t-46 -56.5t-70 -39.5t-94 -14.5zM12 740h705l-12 -70h-112l-20 -116q-10 -56 -28 -96.5t-47.5 -65.5t-70.5 -35
t-96 -4l12 74q67 -6 101 25t48 104l20 114h-300l-70 -399q-17 -85 18 -132.5t113 -47.5q71 0 114.5 41t56.5 116h81q-18 -109 -84.5 -169t-174.5 -60q-62 0 -106 18.5t-69.5 52t-33.5 80t2 103.5l69 397h-128z" />
    <glyph glyph-name="dvAcandra" unicode="&#x972;" horiz-adv-x="827" 
d="M295 448q33 0 59 10t44.5 25.5t30 35.5t15.5 41q5 28 -1 50t-20 37t-35.5 23t-46.5 8q-27 0 -51.5 -8t-45 -23t-34 -36t-17.5 -48h-78q7 43 28.5 77.5t53.5 58.5t72 37t85 13q43 0 77.5 -12.5t56.5 -35.5t31 -56t2 -74q-10 -57 -48 -98t-101 -56l-1 -2q15 -2 27.5 -7
t23.5 -12h221l60 344h215l-12 -70h-131l-119 -670h-83l57 327l-158 1q6 -19 7 -40t-3 -42q-8 -44 -29 -79.5t-52 -61t-70.5 -39t-85.5 -13.5q-49 0 -87 14.5t-63 41.5t-35 64.5t-2 82.5h79q-5 -29 1 -53t21.5 -41t39 -27t53.5 -10q62 0 103 35.5t51 92.5q8 41 -9 75h-3v5
q-13 20 -38 33.5t-67 13.5h-40l12 68h40zM836 840q-53 0 -90 14.5t-58.5 39t-28.5 56.5t-1 66h72q-4 -21 0 -41t17 -35.5t36 -25.5t58 -10q34 0 61 10t46 25.5t30 35.5t15 41h72q-6 -34 -23 -66t-45 -56.5t-68 -39t-93 -14.5z" />
    <glyph glyph-name="dvOcandra" unicode="&#x911;" horiz-adv-x="1119" 
d="M295 448q33 0 59 10t44.5 25.5t30 35.5t15.5 41q5 28 -1 50t-20 37t-35.5 23t-46.5 8q-27 0 -51.5 -8t-45 -23t-34 -36t-17.5 -48h-78q7 43 28.5 77.5t53.5 58.5t72 37t85 13q43 0 77.5 -12.5t56.5 -35.5t31 -56t2 -74q-10 -57 -48 -98t-101 -56l-1 -2q15 -2 27.5 -7
t23.5 -12h221l60 344h508l-12 -70h-131l-118 -670h-84l118 670h-209l-119 -670h-83l57 327l-158 1q6 -19 7 -40t-3 -42q-8 -44 -29 -79.5t-52 -61t-70.5 -39t-85.5 -13.5q-49 0 -87 14.5t-63 41.5t-35 64.5t-2 82.5h79q-5 -29 1 -53t21.5 -41t39 -27t53.5 -10q62 0 103 35.5
t51 92.5q8 41 -9 75h-3v5q-13 20 -38 33.5t-67 13.5h-40l12 68h40zM975 837q-53 0 -90 14.5t-58.5 39t-28.5 56.5t-1 66h72q-4 -21 0 -41t17 -35.5t36 -25.5t58 -10q34 0 61 10t46 25.5t30 35.5t15 41h72q-6 -34 -23 -66t-45 -56.5t-68 -39t-93 -14.5z" />
    <glyph glyph-name="dvmAA" unicode="&#x93e;" horiz-adv-x="294" 
d="M158 670h-132l12 70h347l-12 -70h-131l-118 -670h-84z" />
    <glyph glyph-name="dvmI" unicode="&#x93f;" horiz-adv-x="294" 
d="M123 0h-84l119 670h-132l12 70h132q13 69 54 118t99.5 79.5t130 44.5t146.5 14t141.5 -15.5t114 -47.5t71 -81t11.5 -115l-3 -17h-83l2 16q9 54 -12.5 91t-61 59t-91 31.5t-101.5 9.5q-51 0 -106.5 -8t-103.5 -28.5t-82.5 -57t-43.5 -93.5h133l-12 -70h-131z" />
    <glyph glyph-name="dvmII" unicode="&#x940;" horiz-adv-x="293" 
d="M-117 778q8 46 25 85.5t45 69t67 46.5t91 17q53 0 86.5 -17t50 -46.5t19 -69t-5.5 -85.5l-7 -38h131l-12 -70h-131l-119 -670h-83l118 670h-132l12 70h135l7 42q5 26 5 52t-8.5 46.5t-27 33t-50.5 12.5q-33 0 -56 -12.5t-38.5 -33t-25 -46.5t-14.5 -52l-12 -62h-81z" />
    <glyph glyph-name="dvmU" unicode="&#x941;" horiz-adv-x="0" 
d="M-312 -300q-45 0 -85.5 12t-69 37.5t-40.5 65t-1 95.5h75q-8 -38 -1.5 -65t24.5 -44.5t45 -26t60 -8.5q59 0 98.5 27t47.5 78q7 36 -12 64t-65 28h-24l12 66h24q38 0 66 -12.5t46 -34t24.5 -50.5t1.5 -63q-12 -80 -72.5 -124.5t-153.5 -44.5z" />
    <glyph glyph-name="dvmUU" unicode="&#x942;" horiz-adv-x="0" 
d="M-280 -291q-33 0 -62.5 10t-50.5 30t-30.5 49t-2.5 67q13 77 70 119.5t142 42.5q59 0 102.5 -21t69.5 -58t34.5 -88.5t-3.5 -111.5q-2 -8 -4 -16.5t-4 -16.5h-69l8 41q9 47 3.5 85.5t-24 65.5t-49 41.5t-70.5 14.5q-54 0 -92 -27t-46 -74q-4 -21 1.5 -38t17.5 -29
t30 -18.5t39 -6.5q7 0 15 0.5t16 1.5l-11 -62q-7 -1 -14.5 -1h-15.5z" />
    <glyph glyph-name="dvmvR" unicode="&#x943;" horiz-adv-x="0" 
d="M-257 -310q-33 0 -65 11t-55.5 33.5t-35.5 56t-4 77.5q13 72 70 115.5t148 43.5h33l-9 -59h-28q-57 0 -91.5 -27t-41.5 -72q-5 -27 2 -47.5t21.5 -35t35.5 -21.5t44 -7t43 3t33 7l-12 -65q-18 -6 -41.5 -9.5t-46.5 -3.5z" />
    <glyph glyph-name="dvmvRR" unicode="&#x944;" horiz-adv-x="0" 
d="M-284 -447q-33 0 -63 8t-51.5 24.5t-31.5 42t-3 60.5q8 45 39.5 73t71.5 36v3q-38 9 -59 34.5t-12 73.5q6 33 23 56t40.5 37t50 20t52.5 6h61l-8 -48h-33q-18 0 -35 -3.5t-31.5 -12.5t-25 -23t-14.5 -35q-4 -20 1.5 -34t17 -23t29 -13t37.5 -4h47l-12 -62h-46
q-18 0 -36.5 -3.5t-34 -12t-26.5 -23t-15 -35.5q-4 -20 2 -34.5t19 -23.5t31 -13.5t39 -4.5q29 0 57.5 5t42.5 10l-12 -63q-20 -8 -51 -13t-61 -5z" />
    <glyph glyph-name="dvmvL" unicode="&#x962;" horiz-adv-x="0" 
d="M-44 -463q-29 0 -53.5 7.5t-41 22.5t-23.5 38t-2 54q8 46 42 77.5t82 39.5q3 8 4.5 17t3.5 17q8 48 -8 79t-61 31q-48 0 -77 -36t-40 -93l-2 -13h-56l2 13q11 57 -5.5 93t-61.5 36q-48 0 -77.5 -31t-37.5 -80q-10 -54 13.5 -86.5t77.5 -32.5h10t11 2l-11 -58
q-5 -1 -12 -1h-12q-43 0 -73.5 13t-48.5 36.5t-23.5 56t0.5 71.5q15 81 66 125t118 44q28 0 48 -9t32.5 -24t18.5 -34t7 -38h3q8 19 21 38t31.5 34t43 24t54.5 9q32 0 57 -11.5t40 -33.5t20.5 -53.5t-1.5 -70.5q-6 -36 -23 -72h-6q-48 0 -74.5 -21.5t-31.5 -53.5
q-3 -19 1.5 -33t15 -23t25 -13t31.5 -4q12 0 23.5 2t20.5 5l-10 -55q-23 -5 -51 -5z" />
    <glyph glyph-name="dvmvLL" unicode="&#x963;" horiz-adv-x="0" 
d="M8 -561q-14 -5 -36.5 -8t-45.5 -3q-25 0 -47 5t-37.5 16.5t-22.5 30t-2 44.5q6 35 28.5 56t51.5 26v2q-27 7 -42 27t-9 54q4 23 15.5 39.5t27 27.5t34.5 16t37 6q6 15 9 32q8 48 -8.5 79t-61.5 31q-48 0 -76.5 -36t-39.5 -93l-2 -13h-57l2 13q11 57 -5.5 93t-61.5 36
q-48 0 -77.5 -31t-37.5 -80q-10 -54 13.5 -86.5t77.5 -32.5h10t11 2l-10 -58q-6 -1 -13 -1h-12q-43 0 -73.5 13t-48.5 36.5t-23.5 56t1.5 71.5q7 40 24 71.5t41 53t54.5 33t63.5 11.5q28 0 48 -9t32.5 -24t18.5 -34t8 -38h2q8 19 21 38t31.5 34t43 24t54.5 9q65 0 97.5 -45
t18.5 -124q-6 -36 -23 -72h-29q-26 0 -48 -11.5t-27 -40.5t13 -40.5t47 -11.5h34l-9 -51h-32q-27 0 -51.5 -10.5t-30.5 -42.5q-2 -14 2.5 -24t13.5 -16t21.5 -8.5t27.5 -2.5q22 0 42 3.5t30 7.5l-8 -51v0z" />
    <glyph glyph-name="dvmE" unicode="&#x947;" horiz-adv-x="0" 
d="M-120 736q-28 61 -49.5 96.5t-43.5 53.5t-48 22.5t-63 4.5h-42l12 68h41q49 0 84.5 -6.5t65.5 -31t58.5 -73.5t63.5 -134h-79v0z" />
    <glyph glyph-name="dvmAI" unicode="&#x948;" horiz-adv-x="0" 
d="M-116 737q-38 35 -64 54.5t-49.5 29.5t-50 12t-66.5 2h-43l10 54h41q37 0 64 -1.5t50 -9.5t46.5 -24.5t54.5 -46.5q-24 65 -45.5 101t-43.5 53.5t-47.5 21t-57.5 3.5h-44l9 55h42q49 0 83 -6.5t62 -36t56 -91t65 -170.5h-72v0z" />
    <glyph glyph-name="dvmO" unicode="&#x94b;" horiz-adv-x="294" 
d="M40 0l118 670h-132l13 70h133q-28 60 -49.5 94.5t-43.5 52t-47.5 22t-61.5 4.5h-42l12 68h40q49 0 85 -6.5t66 -30.5t58 -72t62 -132h134l-12 -70h-131l-119 -670h-83z" />
    <glyph glyph-name="dvmAU" unicode="&#x94c;" horiz-adv-x="294" 
d="M14 0l117 670h-132l13 70h138q-38 34 -63.5 53t-49 28.5t-50 11.5t-65.5 2h-42l10 54h40q37 0 63.5 -1.5t50 -9.5t47 -24.5t54.5 -46.5q-24 65 -45.5 101t-44 53.5t-47.5 21t-58 3.5h-43l9 55h42q49 0 82.5 -6.5t62 -35.5t56.5 -90t65 -169h135l-13 -70h-132l-117 -670
h-83z" />
    <glyph glyph-name="dvmEcandra" unicode="&#x945;" horiz-adv-x="0" 
d="M-63 818q-53 0 -90 14.5t-58.5 39t-28.5 56.5t-1 66h72q-4 -21 0 -41t17 -35.5t36 -25.5t58 -10q34 0 61 10t46 25.5t30 35.5t15 41h72q-6 -34 -23 -66t-45 -56.5t-68 -39t-93 -14.5z" />
    <glyph glyph-name="dvmOcandra" unicode="&#x949;" horiz-adv-x="294" 
d="M232 818q-53 0 -90 14.5t-58.5 39t-28.5 56.5t-1 66h72q-4 -21 0 -41t17 -35.5t36 -25.5t58 -10q34 0 61 10t46 25.5t30 35.5t15 41h72q-6 -34 -23 -66t-45 -56.5t-68 -39t-93 -14.5zM158 670h-132l12 70h347l-12 -70h-131l-118 -670h-84z" />
    <glyph glyph-name="dvKA" unicode="&#x915;" horiz-adv-x="995" 
d="M433 201q-29 -45 -77.5 -74t-115.5 -29q-46 0 -83 16.5t-61 47t-33.5 73.5t0.5 97q9 52 32.5 94t57 71.5t75.5 45.5t89 16q69 0 108 -29.5t53 -74.5l38 215h-490l12 70h1048l-13 -70h-477l-38 -213q29 44 75.5 73t112.5 29q45 0 81 -17t59 -47.5t31.5 -72.5t-0.5 -93
q-10 -55 -33 -97t-56 -71t-74 -44t-86 -15q-16 0 -31.5 1.5t-28.5 5.5l11 66q9 -2 20 -3t22 -1q30 0 58 10.5t51.5 31t40 50t23.5 67.5q6 36 -0.5 65t-22.5 49.5t-41.5 31.5t-56.5 11q-37 0 -66.5 -13t-51 -34t-36.5 -48t-22 -55l-59 -337h-80zM274 168q39 0 69 13.5
t52.5 34.5t37 47t20.5 51l4 19q4 27 -0.5 54.5t-19.5 49.5t-41.5 36t-66.5 14q-32 0 -61.5 -11t-54 -31t-42 -49.5t-23.5 -65.5q-7 -38 -0.5 -68t24 -51t43.5 -32t59 -11z" />
    <glyph glyph-name="dvKHA" unicode="&#x916;" horiz-adv-x="933" 
d="M718 218q-26 -35 -66.5 -58.5t-97.5 -23.5q-21 0 -37 4q-20 -30 -45.5 -56t-57 -45.5t-68.5 -30.5t-79 -11q-114 0 -170 64.5t-36 181.5l28 156h35q28 0 55.5 6.5t50 23.5t39 46t24.5 74l21 121h-288l13 70h986l-13 -70h-131l-117 -670h-84zM581 201q35 0 63 12.5t48 33
t32 45.5t16 49t1 48.5t-16.5 45t-37.5 33t-60 12.5q-28 0 -54.5 -9t-47.5 -26.5t-36 -43t-21 -58.5q-6 -34 0.5 -60.5t22 -44.5t39 -27.5t51.5 -9.5zM282 70q30 0 56 8t47.5 21.5t39 31t30.5 36.5q-37 27 -53.5 74.5t-5.5 109.5q7 45 28 81.5t51.5 61.5t67.5 38.5t78 12.5
q59 -1 93 -24t48 -58l36 207h-400l-23 -131q-10 -57 -31.5 -95.5t-50 -62.5t-62.5 -34t-70 -10l-18 -103q-14 -74 23 -119t116 -45z" />
    <glyph glyph-name="dvGA" unicode="&#x917;" horiz-adv-x="746" 
d="M609 670h-178l-47 -270q-6 -36 -20.5 -68t-37.5 -56t-56.5 -38t-76.5 -14q-40 0 -69.5 12.5t-47.5 35.5t-24.5 54t0.5 69l6 30h82l-6 -31q-3 -18 -2 -35.5t8 -31.5t21.5 -22.5t37.5 -8.5q25 0 43 9t30 23t18.5 32.5t9.5 36.5l48 273h-322l12 70h799l-12 -70h-132
l-118 -670h-83z" />
    <glyph glyph-name="dvGHA" unicode="&#x918;" horiz-adv-x="710" 
d="M290 174q41 0 79.5 13.5t69.5 38t52 59t29 75.5l55 310h-339l-14 -73q-9 -58 17 -89t99 -31h47l-12 -68h-53q-78 0 -118 -33t-48 -80q-6 -31 2 -54t27 -38t46.5 -22.5t60.5 -7.5zM38 740h764l-13 -70h-130l-118 -670h-84l39 221q-41 -54 -102 -85t-134 -31q-47 0 -86 12
t-65 35t-37.5 57.5t-3.5 78.5q6 33 21.5 59.5t37.5 45.5t48 31t53 17v2q-23 4 -42.5 14.5t-32 28.5t-17 44.5t2.5 62.5l13 77h-126z" />
    <glyph glyph-name="dvNGA" unicode="&#x919;" horiz-adv-x="661" 
d="M584 342q-23 0 -35 15t-8 36q4 22 21.5 37t39.5 15q23 0 35 -15t8 -37q-4 -21 -21.5 -36t-39.5 -15zM40 740h712l-12 -70h-219l-22 -121h1l-11 -60h-176q-21 0 -43 -3.5t-41 -12.5t-33 -25.5t-19 -41.5q-4 -23 2 -39t19.5 -26t32 -14t39.5 -4h44q39 0 74.5 -9.5t61 -30
t37 -53t3.5 -78.5q-14 -74 -73.5 -120t-164.5 -46q-56 0 -99 14.5t-70.5 40t-39.5 61t-5 77.5h83q-9 -56 25 -92.5t112 -36.5q65 0 104.5 30t47.5 75q6 31 -2.5 52t-26 33.5t-41.5 17.5t-51 5h-40q-30 0 -61 7.5t-54 24.5t-35 44.5t-5 68.5q7 39 27 66t48 43.5t62 24t68 7.5
h120l21 121h-412z" />
    <glyph glyph-name="dvCA" unicode="&#x91a;" horiz-adv-x="735" 
d="M38 740h788l-13 -70h-131l-117 -670h-84l36 205q-36 -48 -91.5 -76.5t-119.5 -28.5q-43 0 -79 13.5t-60.5 39t-35 63t-2.5 84.5q10 54 40.5 95.5t78.5 65.5h-183l12 66h364l-13 -66h-35q-36 0 -67 -11.5t-54.5 -31t-39.5 -47t-22 -58.5q-6 -35 2 -61.5t26 -44.5
t44.5 -27.5t58.5 -9.5q38 0 71.5 14t60 38t44.5 56t25 69l57 323h-573z" />
    <glyph glyph-name="dvCHA" unicode="&#x91b;" horiz-adv-x="815" 
d="M36 740h870l-12 -70h-218l-22 -124q30 -6 54 -21.5t39 -41t20 -61t-3 -80.5q-13 -74 -50.5 -132t-93.5 -99t-128.5 -62.5t-156.5 -21.5q-69 0 -126 15t-95.5 43.5t-56 70t-7.5 95.5q6 35 22 62.5t38 47.5t49.5 32.5t57.5 17.5v3q-23 4 -42 14.5t-31.5 28.5t-17 45t1.5 63
l20 105h-124zM348 99q66 0 123.5 16.5t102.5 48t75 77t41 103.5q6 36 1.5 63t-17 45t-31 27t-39.5 9q-18 0 -38 -6.5t-37.5 -20t-31 -36t-18.5 -53.5q-5 -21 -4.5 -44.5t4.5 -48.5h-70q-8 51 1 101q7 40 23.5 69t38.5 49.5t49 32t55 16.5l23 123h-369l-18 -102
q-10 -58 14.5 -89t95.5 -31h23l-12 -69h-21q-40 0 -71 -10t-53 -27t-35.5 -40t-17.5 -48q-7 -38 5.5 -67t40.5 -48.5t70.5 -29.5t96.5 -10z" />
    <glyph glyph-name="dvJA" unicode="&#x91c;" horiz-adv-x="840" 
d="M38 740h894l-13 -70h-130l-119 -670h-83l75 427h-189l-17 -95q-8 -44 -27.5 -81t-48.5 -64t-67.5 -41.5t-84.5 -14.5q-44 0 -77 15t-54 42t-28.5 64.5t0.5 82.5l29 164h84l-29 -165q-11 -58 12 -94t74 -36q53 0 88.5 36t46.5 94l30 165h271l30 171h-679z" />
    <glyph glyph-name="dvJHA" unicode="&#x91d;" horiz-adv-x="856" 
d="M660 323l61 347h-196l-26 -144l-7 -37h-177q-20 0 -42 -3.5t-41.5 -12.5t-34 -25.5t-18.5 -42.5q-4 -23 2 -38.5t19 -25t32 -14t41 -4.5h387zM649 259l-190 1q19 -20 28 -48.5t2 -67.5q-6 -32 -21.5 -59.5t-40.5 -47.5t-59.5 -32t-77.5 -12q-39 0 -66.5 10t-46 23.5
t-28.5 27.5t-14 23l-27 -154h-80l45 248h75q-1 -23 6 -44t22.5 -37t41 -25t60.5 -9q63 0 95.5 29t39.5 69q9 51 -21.5 80t-99.5 29h-53q-32 1 -61 9.5t-49.5 26.5t-30 45.5t-2.5 65.5q7 40 27.5 67t49 43t62.5 23t69 7h118l22 120h-411l13 70h902l-13 -70h-132l-117 -670
h-82z" />
    <glyph glyph-name="dvNYA" unicode="&#x91e;" horiz-adv-x="810" 
d="M38 740h863l-12 -70h-131l-118 -670h-84l52 293h-106q-12 -43 -35.5 -80.5t-56.5 -65t-75 -43t-93 -15.5q-50 0 -86 14t-60 38t-35 55.5t-10 66.5h79q2 -20 10 -38t23 -32.5t37.5 -23t53.5 -8.5q37 0 68 13t53.5 35.5t37 52.5t20.5 63q6 32 2 61.5t-18.5 52t-40.5 36
t-64 13.5q-32 0 -58 -9t-46 -23.5t-34.5 -33t-22.5 -36.5h-79q11 35 33 66.5t54 55.5t73.5 38t91.5 14q49 0 85.5 -15t60 -41.5t34.5 -62t9 -76.5h107l54 305h-648z" />
    <glyph glyph-name="dvTTA" unicode="&#x91f;" horiz-adv-x="647" 
d="M36 740h702l-12 -70h-212l-34 -187h-100q-44 0 -84.5 -11.5t-73 -35t-55 -58.5t-31.5 -83q-7 -39 1.5 -72t29.5 -57t53.5 -37.5t73.5 -13.5q42 0 78.5 14t64.5 39t46.5 59.5t25.5 75.5h80q-10 -58 -36 -106t-65.5 -82t-91 -53t-112.5 -19q-59 0 -106 18.5t-78.5 52.5
t-44.5 80.5t-3 103.5q12 64 42 112.5t74 80t100 47.5t119 16h24l21 116h-409z" />
    <glyph glyph-name="dvTTHA" unicode="&#x920;" horiz-adv-x="672" 
d="M289 118q39 0 75.5 13t65.5 36.5t49 56.5t27 72t-0.5 72.5t-28 58t-52 38.5t-72.5 14q-39 0 -75 -13t-65 -36.5t-49 -56t-27 -72.5q-7 -39 0.5 -72.5t28 -58t52 -38.5t71.5 -14zM280 47q-56 0 -102 18.5t-77 52.5t-44 81.5t-3 104.5q10 53 35 96t60.5 74t80 49.5
t93.5 24.5l22 122h-323l13 70h729l-13 -70h-324l-22 -123q46 -7 84.5 -27.5t63.5 -53.5t35 -76.5t1 -96.5q-10 -57 -38.5 -102.5t-69.5 -77.5t-92.5 -49t-108.5 -17z" />
    <glyph glyph-name="dvDDA" unicode="&#x921;" horiz-adv-x="575" 
d="M40 740h627l-12 -70h-139l-33 -181h-170q-21 0 -43 -3.5t-41 -12.5t-33 -25.5t-19 -41.5q-4 -23 2 -39t19.5 -26t32 -14t39.5 -4h44q39 0 74.5 -9.5t61 -30t37 -53t3.5 -78.5q-14 -74 -73.5 -120t-164.5 -46q-56 0 -99 14.5t-70.5 40t-39.5 61t-5 77.5h83
q-9 -56 25 -92.5t112 -36.5q65 0 104.5 30t47.5 75q6 31 -2.5 52t-26 33.5t-41.5 17.5t-51 5h-40q-30 0 -61 7.5t-54 24.5t-35 44.5t-5 68.5q7 39 27 66t48 43.5t62 24t68 7.5h114l22 121h-407z" />
    <glyph glyph-name="dvDDHA" unicode="&#x922;" 
d="M38 740h694l-13 -70h-184l-30 -172h-95q-49 0 -94.5 -13.5t-82.5 -40.5t-63 -67.5t-35 -95.5q-8 -46 0.5 -85t32.5 -67t62 -43.5t89 -15.5q36 0 68 9.5t57.5 27t42.5 42t23 54.5q8 45 -15 74t-67 29q-39 0 -69 -23t-37 -64q-1 -5 -1.5 -10t-0.5 -10h-61q0 7 0.5 15
t1.5 15q6 33 22 58.5t39.5 43.5t54 27t64.5 9q36 0 65 -12t47.5 -34t26 -52.5t1.5 -67.5q-8 -43 -30.5 -78.5t-57.5 -61t-81.5 -39.5t-101.5 -14q-64 0 -116 20t-86.5 57t-49 88t-3.5 114q12 69 44 119.5t77.5 84.5t102 50.5t118.5 16.5h39l20 112h-431z" />
    <glyph glyph-name="dvNNA" unicode="&#x923;" horiz-adv-x="856" 
d="M262 254q51 0 85.5 33.5t43.5 87.5l52 295h-217l-52 -295q-10 -54 13.5 -87.5t74.5 -33.5zM38 740h909l-12 -70h-132l-118 -670h-83l118 670h-195l-51 -287q-8 -43 -25.5 -79.5t-45 -63.5t-64 -42t-82.5 -15q-45 0 -79 14.5t-56 41t-29.5 63.5t0.5 81l51 287h-118z" />
    <glyph glyph-name="dvTA" unicode="&#x924;" horiz-adv-x="694" 
d="M38 740h748l-13 -70h-132l-117 -670h-84l75 426h-146q-94 0 -157 -43.5t-80 -134.5q-15 -85 25 -132t131 -47h21l-11 -67h-26q-56 0 -102 15.5t-76.5 47t-43.5 78t-2 108.5q11 65 40.5 111.5t73 76.5t98.5 44.5t117 14.5h150l31 172h-532z" />
    <glyph glyph-name="dvTHA" unicode="&#x925;" horiz-adv-x="765" 
d="M552 229q-12 -23 -35 -46t-54 -42t-70.5 -30.5t-84.5 -11.5q-62 0 -110 19t-78.5 54.5t-41.5 86t0 112.5q5 28 13 53h98q38 0 76 6t70 21.5t54.5 43t30.5 71.5q8 47 -14.5 79t-74.5 32q-32 0 -57 -12.5t-42.5 -34t-26 -50.5t-8.5 -62h-76q1 48 16.5 90.5t44 73.5t69.5 49
t92 18q43 0 75.5 -13.5t52.5 -38.5t27.5 -59t0.5 -74q-9 -52 -35 -90t-64 -62.5t-87 -36.5t-105 -12h-50q-8 -43 -1 -78.5t29 -61t58.5 -40t87.5 -14.5q43 0 83.5 14.5t73.5 41.5t56.5 66t32.5 88l63 361h216l-12 -70h-132l-118 -670h-84z" />
    <glyph glyph-name="dvDA" unicode="&#x926;" horiz-adv-x="611" 
d="M40 740h662l-13 -70h-143l-32 -182h-148q-39 0 -75.5 -10t-65.5 -30t-49.5 -50.5t-27.5 -71.5q-12 -72 23.5 -116t106.5 -44q24 0 51 8t50 24.5t41 42t24 61.5h76l-55 -318h-82l34 194q-27 -36 -72.5 -57.5t-99.5 -21.5q-46 0 -83.5 16t-62.5 46t-34.5 73t-0.5 97
q10 60 39 103t70 71t92 41.5t106 13.5h72l19 110h-435z" />
    <glyph glyph-name="dvDHA" unicode="&#x927;" horiz-adv-x="714" 
d="M255 98q-44 0 -81 11.5t-62.5 34t-37.5 55.5t-4 75q6 34 21.5 59t36 42.5t44 28t46.5 13.5v3q-24 6 -44.5 19t-35 33.5t-20 49t0.5 64.5t23 66t42.5 51.5t58.5 33.5t71 12q42 0 73 -13.5t49 -38.5t21.5 -60.5t-8.5 -79.5h-64q14 54 -5.5 88t-72.5 34q-45 0 -77.5 -30
t-39.5 -73q-11 -58 21 -90t99 -32h67l-12 -68h-53q-69 0 -108.5 -29t-47.5 -75q-5 -28 3 -49.5t26 -35.5t44 -21.5t58 -7.5q44 0 84 14.5t72.5 41.5t54.5 64.5t30 82.5l54 299h-1l11 70h214l-12 -70h-130l-118 -670h-84l39 220q-40 -57 -103.5 -89.5t-142.5 -32.5z" />
    <glyph glyph-name="dvNA" unicode="&#x928;" horiz-adv-x="789" 
d="M236 188q27 0 51.5 9.5t44 26t32.5 39t18 48.5q10 54 -19 88.5t-84 34.5q-29 0 -54 -9t-45 -25.5t-33.5 -39.5t-18.5 -50q-9 -54 20.5 -88t87.5 -34zM38 740h843l-12 -70h-132l-118 -670h-83l77 434h-196q20 -23 29.5 -56t1.5 -77q-7 -43 -27.5 -77t-50.5 -58t-67 -36.5
t-77 -12.5q-45 0 -80.5 14.5t-58.5 41t-33 62.5t-2 79q8 46 30 81.5t54 59.5t73 36.5t88 12.5h328l29 166h-628z" />
    <glyph glyph-name="dvPA" unicode="&#x92a;" horiz-adv-x="655" 
d="M303 268q34 0 62 11t49.5 29.5t36 44t22.5 54.5l46 263h-299l-39 -225q-14 -81 16 -129t106 -48zM38 740h708l-12 -70h-132l-117 -670h-83l49 279q-30 -38 -74.5 -60t-101.5 -22q-52 0 -90 18t-61 50.5t-30 78t3 101.5l41 225h-112z" />
    <glyph glyph-name="dvPHA" unicode="&#x92b;" horiz-adv-x="985" 
d="M293 268q34 0 61.5 12.5t48.5 33.5t35 49t19 59l44 248h-281l-39 -229q-15 -80 11 -126.5t101 -46.5zM38 740h1039l-13 -70h-480l-38 -216q29 45 78 75t118 30q45 0 80 -16.5t57.5 -46t31 -71t-0.5 -91.5q-10 -55 -33.5 -98t-56.5 -73t-74 -45.5t-86 -15.5q-36 0 -63 8
l11 65q22 -5 44 -5q31 0 59.5 11t51.5 31.5t39 50t23 67.5q6 36 0 65t-22.5 49.5t-41.5 31.5t-56 11q-39 0 -69.5 -14t-53 -36.5t-37.5 -51t-22 -58.5l-57 -327h-83l49 279q-29 -38 -72 -60t-97 -22q-51 0 -86.5 17.5t-56.5 49.5t-27 77t4 100l41 229h-112z" />
    <glyph glyph-name="dvBA" unicode="&#x92c;" horiz-adv-x="689" 
d="M474 199q-31 -46 -84 -77t-125 -31q-50 0 -91.5 17.5t-69 49t-39 76.5t-1.5 99q9 55 34.5 98.5t62.5 74t83.5 47t98.5 16.5q73 0 116.5 -31t60.5 -76l36 208h-530l12 70h742l-12 -70h-132l-117 -670h-80zM351 512q-74 0 -133 -45l233 -240q20 24 32.5 51.5t17.5 53.5
q6 33 0 65t-24 57.5t-49.5 41.5t-76.5 16zM290 153q40 0 72.5 12.5t58.5 32.5l-233 240q-20 -22 -33 -49t-18 -59q-8 -42 1 -75t30.5 -55.5t52.5 -34.5t69 -12z" />
    <glyph glyph-name="dvBHA" unicode="&#x92d;" horiz-adv-x="794" 
d="M224 172q50 0 83 34.5t44 97.5l14 81h-90q-53 0 -91 -28t-47 -79q-9 -49 16.5 -77.5t70.5 -28.5zM215 101q-41 0 -73 12.5t-53 36t-29 56t-1 72.5q8 43 28.5 75.5t50.5 55t67 34t79 11.5h93l17 94q11 59 -4.5 94t-64.5 35q-41 0 -70.5 -27.5t-39.5 -77.5q-3 -19 -2 -38
h-83q-1 19 2 41q7 39 24 71t43 55t59.5 35.5t74.5 12.5q46 0 76.5 -15.5t47 -44t19.5 -68t-6 -86.5l-14 -81h164l50 286h216l-12 -70h-132l-119 -670h-83l68 385h-164l-13 -77q-18 -100 -73 -153.5t-143 -53.5z" />
    <glyph glyph-name="dvMA" unicode="&#x92e;" horiz-adv-x="786" 
d="M197 172q51 0 83.5 34.5t43.5 97.5l14 81h-92q-52 0 -90 -28t-46 -79q-9 -49 16.5 -77.5t70.5 -28.5zM650 670h-183l-38 -216h183zM38 740h839l-12 -70h-131l-118 -670h-84l68 385h-183l-14 -77q-17 -100 -72.5 -153.5t-142.5 -53.5q-42 0 -74 13t-52.5 36t-28.5 56
t-1 72q7 43 27.5 75.5t50.5 55t67.5 34t78.5 11.5h95l38 216h-363z" />
    <glyph glyph-name="dvYA" unicode="&#x92f;" horiz-adv-x="737" 
d="M321 182q42 0 80.5 14t69 39t51 60t27.5 77v-1l53 299h-202l-14 -83q-17 -97 -76 -143.5t-155 -50.5q0 -2 -0.5 -3.5t-0.5 -3.5q-17 -94 28 -149t139 -55zM38 740h791l-13 -70h-131l-118 -670h-83l38 216q-34 -45 -90.5 -74.5t-134.5 -29.5q-62 0 -109 20t-76.5 57
t-40 89t1.5 116q2 11 5 23l6 24h15q41 0 75.5 8t61 27t44.5 49.5t26 75.5l12 69h-292z" />
    <glyph glyph-name="dvRA" unicode="&#x930;" horiz-adv-x="536" 
d="M39 740h589l-13 -70h-118l-17 -96q-20 -112 -86 -173.5t-183 -61.5h-50l-24 -137q-12 -61 11.5 -100t82.5 -39q53 0 87 35.5t44 93.5l3 19h81q-1 -5 -1.5 -9.5t-0.5 -7.5q-16 -93 -72 -148t-147 -55q-50 0 -86 16t-58 45t-28.5 68.5t2.5 86.5l35 200h105q171 0 201 167
l17 96h-386z" />
    <glyph glyph-name="dvLA" unicode="&#x932;" horiz-adv-x="898" 
d="M818 309q-9 -53 -32 -97t-58 -76t-82.5 -50t-106.5 -17q-8 0 -18 0.5t-18 1.5l13 73q7 -1 14.5 -1.5t14.5 -0.5q39 0 70.5 12.5t55.5 35t40 54t23 68.5q6 33 2.5 61.5t-15.5 50t-34 33.5t-54 12q-69 0 -111 -51t-56 -132l-3 -15h-69l1 15q8 40 6.5 73.5t-13 58t-34 38
t-55.5 13.5q-34 0 -61 -12t-47.5 -33t-33.5 -49.5t-19 -62.5q-7 -37 -2.5 -68t21 -53.5t44 -35.5t67.5 -13q7 0 13.5 0.5t14.5 1.5l-13 -73q-9 -1 -15.5 -1.5t-14.5 -0.5q-59 0 -101 19t-67 52.5t-32.5 79t1.5 97.5q19 109 85 167.5t158 58.5q40 0 68 -13t46 -33.5t27 -46.5
t11 -52h2q10 24 26 47.5t37.5 43.5t49 33.5t62.5 18.5l23 129h-629l13 70h957l-13 -70h-246l-24 -133q66 -18 96.5 -78t14.5 -150z" />
    <glyph glyph-name="dvVA" unicode="&#x935;" horiz-adv-x="674" 
d="M283 163q44 0 78 15t59 39t40 53.5t20 57.5q6 30 1.5 60t-21 53.5t-46 38.5t-73.5 15q-35 0 -67.5 -11.5t-58.5 -33t-44.5 -52t-25.5 -68.5q-7 -39 0.5 -70t26 -52.5t47 -33t64.5 -11.5zM622 670l-118 -670h-81l35 199q-32 -45 -83 -74t-120 -29q-50 0 -90 16.5t-65.5 48
t-35.5 76.5t1 101q9 52 33 93.5t58.5 70.5t78 45t92.5 16q71 0 114 -28.5t63 -72.5l36 208h-514l12 70h728l-13 -70h-131z" />
    <glyph glyph-name="dvSHA" unicode="&#x936;" horiz-adv-x="814" 
d="M242 -8q-52 0 -90 16t-61 45.5t-30.5 70.5t1.5 92l31 175h146q39 0 75.5 9t66.5 27.5t50.5 47.5t27.5 68q11 62 -18 97.5t-83 35.5q-35 0 -63 -13.5t-47.5 -37.5t-30 -56t-10.5 -69h-83q2 56 20.5 102t50.5 78.5t75.5 50.5t95.5 18q45 0 81.5 -14.5t60.5 -42.5
t33.5 -67.5t0.5 -89.5q-10 -54 -36.5 -94.5t-65 -67.5t-86 -40t-100.5 -13h-89l-19 -110q-6 -31 -3 -58t15 -46.5t34 -30.5t55 -11q58 0 96 39.5t49 107.5h82q-7 -48 -25 -88t-47 -69.5t-69 -45.5t-91 -16zM690 740h216l-13 -70h-131l-118 -670h-84z" />
    <glyph glyph-name="dvSSA" unicode="&#x937;" horiz-adv-x="661" 
d="M304 263q56 0 96.5 28t62.5 72l-256 242l-29 -162q-15 -83 18.5 -131.5t107.5 -48.5zM527 670h-308l264 -249v2zM38 740h715l-13 -70h-131l-118 -670h-82l49 277q-31 -39 -76 -62t-105 -23q-51 0 -89.5 18t-62 51.5t-31 80t2.5 103.5l41 225h-112z" />
    <glyph glyph-name="dvSA" unicode="&#x938;" horiz-adv-x="819" 
d="M466 579q-10 -57 -34 -96t-56 -65h263l45 252h-202zM39 740h872l-13 -70h-131l-118 -670h-83l61 349h-465l-26 -146q-11 -62 12.5 -101t84.5 -39q58 0 91.5 40t42.5 101h81q-6 -47 -23.5 -86t-45.5 -67.5t-66.5 -44t-86.5 -15.5q-50 0 -86 16.5t-58 46t-29 69.5t1 88
l36 200h93q86 0 136 45.5t64 122.5l16 91h-373z" />
    <glyph glyph-name="dvHA" unicode="&#x939;" horiz-adv-x="595" 
d="M483 62q-10 -32 -31 -62t-52.5 -53t-72 -37t-89.5 -14q-56 0 -96.5 17.5t-65.5 48.5t-34 71.5t-1 87.5q11 62 47.5 110t91.5 74q-31 16 -50.5 45.5t-11.5 76.5q12 64 62.5 95t122.5 31h129l22 117h-418l12 70h639l-12 -70h-142l-20 -117l-12 -61h-182q-21 0 -41 -4
t-36.5 -14t-28 -25.5t-15.5 -37.5q-6 -32 10 -52t45 -30q14 2 28 3.5t28 1.5q52 0 89 -15t60.5 -39t34 -53.5t10.5 -57.5h-81q-1 16 -8.5 33.5t-22.5 32t-38.5 23.5t-55.5 9q-35 0 -65 -12t-52.5 -32.5t-37.5 -48t-21 -58.5q-6 -32 -1 -59.5t20.5 -47.5t42 -31.5t62.5 -11.5
q31 0 56.5 8.5t45.5 22t34 31t22 34.5h80v0z" />
    <glyph glyph-name="dvLLA" unicode="&#x933;" horiz-adv-x="990" 
d="M261 167q34 0 64 11t53.5 31.5t39.5 48.5t22 62t0 63t-22.5 50t-42.5 32.5t-60 11.5q-33 0 -63 -11t-54 -32t-40.5 -50t-22.5 -65q-6 -34 0.5 -62t23.5 -48t43 -31t59 -11zM648 167q33 0 63 11t54.5 31t41 48t22.5 62q12 72 -23.5 115t-102.5 43q-34 0 -64 -11.5
t-53.5 -32.5t-40 -50t-22.5 -63q-12 -68 22 -110.5t103 -42.5zM649 95q-39 0 -70.5 11t-54.5 29.5t-37.5 44t-18.5 55.5h-3q-14 -30 -36.5 -55.5t-51.5 -44t-64 -29.5t-74 -11q-48 0 -86 16.5t-63.5 46t-35.5 71t-1 91.5q9 52 33.5 94.5t59.5 72.5t78.5 46t90.5 16
q39 0 69.5 -10.5t53 -29t37.5 -44t22 -54.5h2q30 54 79.5 91.5t118.5 45.5l22 122h-701l13 70h1050l-13 -70h-268l-23 -127q36 -8 64 -27t46 -47.5t24.5 -66t-1.5 -82.5q-9 -50 -33 -91.5t-58.5 -71t-78 -46t-91.5 -16.5z" />
    <glyph glyph-name="dvK_SSA" horiz-adv-x="803" 
d="M212 567q-5 -29 2 -52t24 -39.5t43 -25.5t58 -10q42 23 72 52t38 74q4 25 -1.5 46t-19 35.5t-34 22.5t-45.5 8q-23 0 -46 -7.5t-41.5 -22t-32 -35t-17.5 -46.5zM342 107q-7 -11 -20 -24t-32 -24.5t-44 -19.5t-56 -8q-39 0 -69 12.5t-49 34t-26 51.5t-1 66q7 42 28 73.5
t50 55t64 41.5t70 35q-28 7 -52.5 21.5t-41 36.5t-23.5 51.5t-1 66.5q7 41 27.5 73.5t51 55t67.5 34t77 11.5q38 0 70.5 -11.5t54.5 -33t31.5 -53.5t2.5 -72q-8 -49 -34.5 -82.5t-61.5 -58.5h207l53 301h212l-13 -70h-132l-118 -670h-80l67 377h-291q-35 -16 -67.5 -31
t-59 -33.5t-45.5 -43t-25 -58.5q-8 -46 17 -78.5t79 -32.5q28 0 52 10t42 26.5t30 39t16 46.5h71l-49 -277h-77z" />
    <glyph glyph-name="dvJ_NYA" horiz-adv-x="807" 
d="M633 457h-209q40 -23 60 -63.5t10 -101.5q-7 -42 -26 -76.5t-47.5 -58.5t-65.5 -37t-79 -12q-63 2 -102.5 26.5t-54.5 59.5l-28 -159h-81l48 274h78q-2 -33 7 -57.5t26.5 -41t41.5 -25t52 -8.5q31 0 58 10t47.5 28t34 42.5t18.5 53.5q6 36 -2 63t-27.5 45.5t-48.5 28
t-64 9.5h-20l12 68h374l26 145h-644l12 70h859l-12 -70h-132l-118 -670h-83z" />
    <glyph glyph-name="dvKxA" unicode="&#x958;" horiz-adv-x="995" 
d="M433 201q-29 -45 -77.5 -74t-115.5 -29q-46 0 -83 16.5t-61 47t-33.5 73.5t0.5 97q9 52 32.5 94t57 71.5t75.5 45.5t89 16q69 0 108 -29.5t53 -74.5l38 215h-490l12 70h1048l-13 -70h-477l-38 -213q29 44 75.5 73t112.5 29q45 0 81 -17t59 -47.5t31.5 -72.5t-0.5 -93
q-10 -55 -33 -97t-56 -71t-74 -44t-86 -15q-16 0 -31.5 1.5t-28.5 5.5l11 66q9 -2 20 -3t22 -1q30 0 58 10.5t51.5 31t40 50t23.5 67.5q6 36 -0.5 65t-22.5 49.5t-41.5 31.5t-56.5 11q-37 0 -66.5 -13t-51 -34t-36.5 -48t-22 -55l-59 -337h-80zM274 168q39 0 69 13.5
t52.5 34.5t37 47t20.5 51l4 19q4 27 -0.5 54.5t-19.5 49.5t-41.5 36t-66.5 14q-32 0 -61.5 -11t-54 -31t-42 -49.5t-23.5 -65.5q-7 -38 -0.5 -68t24 -51t43.5 -32t59 -11zM188 -95q-24 0 -37.5 16t-9.5 39q4 24 23 40.5t43 16.5q23 0 36.5 -16.5t9.5 -40.5q-4 -23 -23 -39
t-42 -16z" />
    <glyph glyph-name="dvKHxA" unicode="&#x959;" horiz-adv-x="933" 
d="M718 218q-26 -35 -66.5 -58.5t-97.5 -23.5q-21 0 -37 4q-20 -30 -45.5 -56t-57 -45.5t-68.5 -30.5t-79 -11q-114 0 -170 64.5t-36 181.5l28 156h35q28 0 55.5 6.5t50 23.5t39 46t24.5 74l21 121h-288l13 70h986l-13 -70h-131l-117 -670h-84zM217 -193q-24 0 -37.5 16
t-9.5 39q4 24 23 40.5t43 16.5q23 0 36.5 -16.5t9.5 -40.5q-4 -23 -23 -39t-42 -16zM581 201q35 0 63 12.5t48 33t32 45.5t16 49t1 48.5t-16.5 45t-37.5 33t-60 12.5q-28 0 -54.5 -9t-47.5 -26.5t-36 -43t-21 -58.5q-6 -34 0.5 -60.5t22 -44.5t39 -27.5t51.5 -9.5zM282 70
q30 0 56 8t47.5 21.5t39 31t30.5 36.5q-37 27 -53.5 74.5t-5.5 109.5q7 45 28 81.5t51.5 61.5t67.5 38.5t78 12.5q59 -1 93 -24t48 -58l36 207h-400l-23 -131q-10 -57 -31.5 -95.5t-50 -62.5t-62.5 -34t-70 -10l-18 -103q-14 -74 23 -119t116 -45z" />
    <glyph glyph-name="dvGxA" unicode="&#x95a;" horiz-adv-x="746" 
d="M609 670h-178l-47 -270q-6 -36 -20.5 -68t-37.5 -56t-56.5 -38t-76.5 -14q-40 0 -69.5 12.5t-47.5 35.5t-24.5 54t0.5 69l6 30h82l-6 -31q-3 -18 -2 -35.5t8 -31.5t21.5 -22.5t37.5 -8.5q25 0 43 9t30 23t18.5 32.5t9.5 36.5l48 273h-322l12 70h799l-12 -70h-132
l-118 -670h-83zM160 28q-24 0 -37.5 16t-9.5 39q4 24 23 40.5t43 16.5q23 0 36.5 -16.5t9.5 -40.5q-4 -23 -23 -39t-42 -16z" />
    <glyph glyph-name="dvJxA" unicode="&#x95b;" horiz-adv-x="840" 
d="M38 740h894l-13 -70h-130l-119 -670h-83l75 427h-189l-17 -95q-8 -44 -27.5 -81t-48.5 -64t-67.5 -41.5t-84.5 -14.5q-44 0 -77 15t-54 42t-28.5 64.5t0.5 82.5l29 164h84l-29 -165q-11 -58 12 -94t74 -36q53 0 88.5 36t46.5 94l30 165h271l30 171h-679zM197 -60
q-24 0 -37.5 16t-9.5 39q4 24 23 40.5t43 16.5q23 0 36.5 -16.5t9.5 -40.5q-4 -23 -23 -39t-42 -16z" />
    <glyph glyph-name="dvDDxA" unicode="&#x95c;" horiz-adv-x="575" 
d="M40 740h627l-12 -70h-139l-33 -181h-170q-21 0 -43 -3.5t-41 -12.5t-33 -25.5t-19 -41.5q-4 -23 2 -39t19.5 -26t32 -14t39.5 -4h44q39 0 74.5 -9.5t61 -30t37 -53t3.5 -78.5q-14 -74 -73.5 -120t-164.5 -46q-56 0 -99 14.5t-70.5 40t-39.5 61t-5 77.5h83
q-9 -56 25 -92.5t112 -36.5q65 0 104.5 30t47.5 75q6 31 -2.5 52t-26 33.5t-41.5 17.5t-51 5h-40q-30 0 -61 7.5t-54 24.5t-35 44.5t-5 68.5q7 39 27 66t48 43.5t62 24t68 7.5h114l22 121h-407zM211 -206q-24 0 -37.5 16t-9.5 39q4 24 23 40.5t43 16.5q23 0 36.5 -16.5
t9.5 -40.5q-4 -23 -23 -39t-42 -16z" />
    <glyph glyph-name="dvDDHxA" unicode="&#x95d;" 
d="M38 740h694l-13 -70h-184l-30 -172h-95q-49 0 -94.5 -13.5t-82.5 -40.5t-63 -67.5t-35 -95.5q-8 -46 0.5 -85t32.5 -67t62 -43.5t89 -15.5q36 0 68 9.5t57.5 27t42.5 42t23 54.5q8 45 -15 74t-67 29q-39 0 -69 -23t-37 -64q-1 -5 -1.5 -10t-0.5 -10h-61q0 7 0.5 15
t1.5 15q6 33 22 58.5t39.5 43.5t54 27t64.5 9q36 0 65 -12t47.5 -34t26 -52.5t1.5 -67.5q-8 -43 -30.5 -78.5t-57.5 -61t-81.5 -39.5t-101.5 -14q-64 0 -116 20t-86.5 57t-49 88t-3.5 114q12 69 44 119.5t77.5 84.5t102 50.5t118.5 16.5h39l20 112h-431zM249 -183
q-24 0 -37.5 16t-9.5 39q4 24 23 40.5t43 16.5q23 0 36.5 -16.5t9.5 -40.5q-4 -23 -23 -39t-42 -16z" />
    <glyph glyph-name="dvPHxA" unicode="&#x95e;" horiz-adv-x="985" 
d="M293 268q34 0 61.5 12.5t48.5 33.5t35 49t19 59l44 248h-281l-39 -229q-15 -80 11 -126.5t101 -46.5zM38 740h1039l-13 -70h-480l-38 -216q29 45 78 75t118 30q45 0 80 -16.5t57.5 -46t31 -71t-0.5 -91.5q-10 -55 -33.5 -98t-56.5 -73t-74 -45.5t-86 -15.5q-36 0 -63 8
l11 65q22 -5 44 -5q31 0 59.5 11t51.5 31.5t39 50t23 67.5q6 36 0 65t-22.5 49.5t-41.5 31.5t-56 11q-39 0 -69.5 -14t-53 -36.5t-37.5 -51t-22 -58.5l-57 -327h-83l49 279q-29 -38 -72 -60t-97 -22q-51 0 -86.5 17.5t-56.5 49.5t-27 77t4 100l41 229h-112zM197 9
q-24 0 -37.5 16t-9.5 39q4 24 23 40.5t43 16.5q23 0 36.5 -16.5t9.5 -40.5q-4 -23 -23 -39t-42 -16z" />
    <glyph glyph-name="dvRxA" unicode="&#x931;" horiz-adv-x="536" 
d="M39 740h589l-13 -70h-118l-17 -96q-20 -112 -86 -173.5t-183 -61.5h-50l-24 -137q-12 -61 11.5 -100t82.5 -39q53 0 87 35.5t44 93.5l3 19h81q-1 -5 -1.5 -9.5t-0.5 -7.5q-16 -93 -72 -148t-147 -55q-50 0 -86 16t-58 45t-28.5 68.5t2.5 86.5l35 200h105q171 0 201 167
l17 96h-386zM29 -160q-24 0 -37.5 16t-9.5 39q4 24 23 40.5t43 16.5q23 0 36.5 -16.5t9.5 -40.5q-4 -23 -23 -39t-42 -16z" />
    <glyph glyph-name="dvK" horiz-adv-x="739" 
d="M433 201q-29 -45 -77.5 -74t-115.5 -29q-46 0 -83 16.5t-61 47t-33.5 73.5t0.5 97q9 52 32.5 94t57 71.5t75.5 45.5t89 16q69 0 108 -29.5t53 -74.5l38 215h-490l12 70h952l-12 -70h-382l-38 -213q29 44 75.5 73t112.5 29q45 0 81 -17t59 -47.5t31.5 -72.5t-0.5 -92h-83
q6 36 -0.5 65t-22.5 49.5t-41.5 31.5t-56.5 11q-37 0 -66.5 -13t-51 -34t-36.5 -48t-22 -55l-59 -337h-80zM274 168q39 0 69 13.5t52.5 34.5t37 47t20.5 51l4 19q4 27 -0.5 54.5t-19.5 49.5t-41.5 36t-66.5 14q-32 0 -61.5 -11t-54 -31t-42 -49.5t-23.5 -65.5
q-7 -38 -0.5 -68t24 -51t43.5 -32t59 -11z" />
    <glyph glyph-name="dvKH" horiz-adv-x="674" 
d="M584 200q65 0 110.5 38t56.5 102t-20.5 102t-96.5 38q-64 0 -109.5 -38t-56.5 -102q-12 -64 20 -102t96 -38zM39 740h856l-13 -70h-484l-23 -131q-10 -57 -31.5 -95.5t-50 -62.5t-62.5 -34t-70 -10l-18 -103q-14 -74 23 -119t116 -45q31 0 57.5 8t48 21.5t38.5 31
t30 36.5q-39 26 -56.5 69.5t-6.5 103.5q8 48 30.5 85.5t55.5 64t75.5 40.5t90.5 14t85 -14t61 -40.5t33 -64t1 -85.5q-9 -48 -32 -86t-56.5 -64.5t-75.5 -40t-88 -13.5q-14 0 -27 1.5t-26 3.5q-17 -29 -40.5 -55.5t-54 -46t-67 -31t-79.5 -11.5q-59 0 -104 17t-74 49
t-39.5 77.5t-0.5 102.5l28 156h35q30 0 57 6.5t49.5 23.5t38.5 46t24 74l21 121h-288z" />
    <glyph glyph-name="dvG" horiz-adv-x="499" 
d="M38 740h533l-12 -70h-128l-47 -270q-6 -36 -20.5 -68t-37.5 -56t-56.5 -38t-76.5 -14q-40 0 -69.5 12.5t-47.5 35.5t-24.5 54t0.5 69l6 30h82l-6 -31q-3 -18 -2 -35.5t8 -31.5t21.5 -22.5t37.5 -8.5q25 0 43 9t30 23t18.5 32.5t9.5 36.5l48 273h-322z" />
    <glyph glyph-name="dvGH" horiz-adv-x="431" 
d="M38 740h620l-12 -70h-411l-13 -73q-10 -58 16 -89t99 -31h48l-13 -68h-52q-78 0 -118 -32.5t-49 -80.5q-5 -31 3 -54t27 -38t46.5 -22.5t60.5 -7.5q44 0 82.5 14t69 39t51 59t27.5 74h71q-10 -54 -37 -100.5t-68 -81t-94 -54t-114 -19.5q-55 0 -97.5 12.5t-70.5 36.5
t-39 58.5t-3 78.5q6 33 21.5 59t37.5 44.5t47.5 30.5t52.5 16l1 2q-23 4 -42.5 14.5t-32 28.5t-17 44.5t2.5 62.5l13 77h-126z" />
    <glyph glyph-name="dvNG" horiz-adv-x="660" 
d="M584 342q-23 0 -35.5 15t-7.5 36q4 22 21 37t39 15q23 0 35 -15t8 -37q-3 -21 -20.5 -36t-39.5 -15zM195 -94h84l88 -199h-86zM40 740h712l-12 -70h-219l-22 -121h1l-12 -60h-175q-21 0 -43 -3.5t-41 -12.5t-33 -25.5t-19 -41.5q-4 -23 2 -39t19.5 -26t32 -14t39.5 -4h44
q39 0 74.5 -9.5t61 -30t37 -53t3.5 -78.5q-14 -74 -73.5 -120t-164.5 -46q-56 0 -99 14.5t-70.5 40t-39.5 61t-5 77.5h83q-9 -56 25 -92.5t112 -36.5q65 0 104.5 30t47.5 75q6 31 -2.5 52t-26 33.5t-41.5 17.5t-51 5h-40q-30 0 -61 7.5t-54 24.5t-35 44.5t-5 68.5
q7 39 27 66t48 43.5t62 24t68 7.5h119l22 121h-413z" />
    <glyph glyph-name="dvC" horiz-adv-x="464" 
d="M77 527h364l-13 -66h-35q-36 0 -67 -11.5t-55 -31t-39.5 -47t-21.5 -58.5q-6 -35 2 -61.5t26 -44.5t44.5 -27.5t58.5 -9.5q38 0 71.5 14t60.5 38.5t45 57t24 70.5h71q-8 -53 -33 -99t-63.5 -80t-88.5 -53t-107 -19q-47 0 -86 13t-65.5 38.5t-38 63t-2.5 86.5
q10 54 40.5 95.5t78.5 65.5h-183zM38 740h644l-12 -70h-644z" />
    <glyph glyph-name="dvCH" horiz-adv-x="815" 
d="M36 740h870l-12 -70h-664l-18 -102q-10 -58 14.5 -89t95.5 -31h23l-12 -69h-21q-40 0 -71 -10t-53 -27t-35.5 -40t-17.5 -48q-7 -38 5.5 -67t40.5 -48.5t70.5 -29.5t96.5 -10q66 0 123.5 16.5t102.5 48t75 77t41 103.5q6 36 1.5 63t-17 45t-31 27t-39.5 9q-18 0 -38 -6.5
t-37.5 -20t-31 -36t-18.5 -53.5q-5 -21 -4.5 -44.5t4.5 -48.5h-70q-8 51 1 101q8 46 29 78.5t49.5 53t61.5 29.5t66 9q38 0 69 -13t51.5 -39t28.5 -65t-1 -91q-13 -74 -50.5 -132t-93.5 -99t-128.5 -62.5t-156.5 -21.5q-69 0 -126 15t-95.5 43.5t-56 70t-7.5 95.5
q6 35 22 62.5t38 47.5t49.5 32.5t57.5 17.5v3q-23 4 -42 14.5t-31.5 28.5t-17 45t1.5 63l20 105h-124z" />
    <glyph glyph-name="dvJ" horiz-adv-x="557" 
d="M228 131q-44 0 -77 15t-54 42t-28.5 64.5t0.5 82.5l29 164h84l-29 -165q-11 -58 12 -94t74 -36q53 0 88.5 36t46.5 94l30 165h313l-12 -72h-232l-17 -95q-8 -44 -27.5 -81t-48.5 -64t-67.5 -41.5t-84.5 -14.5zM39 740h721l-13 -70h-720z" />
    <glyph glyph-name="dvJH" horiz-adv-x="565" 
d="M46 740h710l-13 -70h-218l-26 -144l-7 -37h-177q-20 0 -42 -3.5t-41.5 -12.5t-34 -25.5t-18.5 -42.5q-4 -23 2 -38.5t19 -25t32 -14t41 -4.5h409l-11 -64l-212 1q19 -20 28 -48.5t2 -67.5q-6 -32 -21.5 -59.5t-40.5 -47.5t-59.5 -32t-77.5 -12q-39 0 -66.5 10t-46 23.5
t-28.5 27.5t-14 23l-27 -154h-80l45 248h75q-1 -23 6 -44t22.5 -37t41 -25t60.5 -9q63 0 95.5 29t39.5 69q9 51 -21.5 80t-99.5 29h-53q-32 1 -61 9.5t-49.5 26.5t-30 45.5t-2.5 65.5q7 40 27.5 67t49 43t62.5 23t69 7h118l22 120h-411z" />
    <glyph glyph-name="dvNY" horiz-adv-x="550" 
d="M242 89q-50 0 -86 14t-60 38t-35 55.5t-10 66.5h79q2 -20 10 -38t23 -32.5t37.5 -23t53.5 -8.5q37 0 68 13t53.5 35.5t37 52.5t20.5 63q6 32 2 61.5t-18.5 52t-40.5 36t-64 13.5q-32 0 -58 -9t-46 -23.5t-34.5 -33t-22.5 -36.5h-79q11 35 33 66.5t54 55.5t73.5 38
t91.5 14q49 0 85.5 -15t60 -41.5t34.5 -62t9 -76.5h150l-12 -72h-149q-12 -43 -35.5 -80.5t-56.5 -65t-75 -43t-93 -15.5zM38 740h692l-12 -70h-692z" />
    <glyph glyph-name="dvTT" horiz-adv-x="647" 
d="M226 -37h83l89 -199h-85zM36 740h702l-12 -70h-212l-34 -187h-100q-44 0 -84.5 -11.5t-73 -35t-55 -58.5t-31.5 -83q-7 -39 1.5 -72t29.5 -57t53.5 -37.5t73.5 -13.5q42 0 78.5 14t64.5 39t46.5 59.5t25.5 75.5h80q-10 -58 -36 -106t-65.5 -82t-91 -53t-112.5 -19
q-59 0 -106 18.5t-78.5 52.5t-44.5 80.5t-3 103.5q12 64 42 112.5t74 80t100 47.5t119 16h24l21 116h-409z" />
    <glyph glyph-name="dvTTH" horiz-adv-x="672" 
d="M225 -32h83l89 -200h-85zM289 118q39 0 75.5 13t65.5 36.5t49 56.5t27 72t-0.5 72.5t-28 58t-52 38.5t-72.5 14q-39 0 -75 -13t-65 -36.5t-49 -56t-27 -72.5q-7 -39 0.5 -72.5t28 -58t52 -38.5t71.5 -14zM280 47q-56 0 -102 18.5t-77 52.5t-44 81.5t-3 104.5q10 53 35 96
t60.5 74t80 49.5t93.5 24.5l22 122h-323l13 70h729l-13 -70h-324l-22 -123q46 -7 84.5 -27.5t63.5 -53.5t35 -76.5t1 -96.5q-10 -57 -38.5 -102.5t-69.5 -77.5t-92.5 -49t-108.5 -17z" />
    <glyph glyph-name="dvDD" horiz-adv-x="575" 
d="M192 -94h83l88 -199h-85zM40 740h627l-12 -70h-139l-33 -181h-170q-21 0 -43 -3.5t-41 -12.5t-33 -25.5t-19 -41.5q-4 -23 2 -39t19.5 -26t32 -14t39.5 -4h44q39 0 74.5 -9.5t61 -30t37 -53t3.5 -78.5q-14 -74 -73.5 -120t-164.5 -46q-56 0 -99 14.5t-70.5 40t-39.5 61
t-5 77.5h83q-9 -56 25 -92.5t112 -36.5q65 0 104.5 30t47.5 75q6 31 -2.5 52t-26 33.5t-41.5 17.5t-51 5h-40q-30 0 -61 7.5t-54 24.5t-35 44.5t-5 68.5q7 39 27 66t48 43.5t62 24t68 7.5h114l22 121h-407z" />
    <glyph glyph-name="dvDDH" 
d="M232 -72h83l89 -199h-85zM38 740h694l-13 -70h-184l-30 -172h-95q-49 0 -94.5 -13.5t-82.5 -40.5t-63 -67.5t-35 -95.5q-8 -46 0.5 -85t32.5 -67t62 -43.5t89 -15.5q36 0 68 9.5t57.5 27t42.5 42t23 54.5q8 45 -15 74t-67 29q-39 0 -69 -23t-37 -64q-1 -5 -1.5 -10
t-0.5 -10h-61q0 7 0.5 15t1.5 15q6 33 22 58.5t39.5 43.5t54 27t64.5 9q36 0 65 -12t47.5 -34t26 -52.5t1.5 -67.5q-8 -43 -30.5 -78.5t-57.5 -61t-81.5 -39.5t-101.5 -14q-64 0 -116 20t-86.5 57t-49 88t-3.5 114q12 69 44 119.5t77.5 84.5t102 50.5t118.5 16.5h39l20 112
h-431z" />
    <glyph glyph-name="dvNN" horiz-adv-x="576" 
d="M38 740h618l-13 -70h-118l-51 -287q-8 -43 -25.5 -79.5t-45 -63.5t-64 -42t-82.5 -15q-45 0 -79 14.5t-56 41t-29.5 63.5t0.5 81l51 287h-118zM262 254q51 0 85.5 33.5t43.5 87.5l52 295h-217l-52 -295q-10 -54 13.5 -87.5t74.5 -33.5z" />
    <glyph glyph-name="dvT" horiz-adv-x="392" 
d="M272 2q-56 0 -102 15.5t-76.5 47t-43.5 78t-2 108.5q11 65 40.5 111.5t73 76.5t98.5 44.5t117 14.5h189l-13 -72h-184q-94 0 -157 -43.5t-80 -134.5q-15 -85 25 -132t131 -47h21l-11 -67h-26zM38 740h572l-13 -70h-571z" />
    <glyph glyph-name="dvTH" horiz-adv-x="478" 
d="M645 351q-9 -58 -39 -104.5t-73 -79.5t-96 -50.5t-109 -17.5q-75 0 -129.5 24.5t-85 68t-36.5 103t15 129.5h97q39 0 77 6t69.5 21.5t54 43.5t30.5 72q8 46 -14.5 78t-73.5 32q-33 0 -58 -12t-42.5 -33.5t-26 -50.5t-8.5 -63h-76q1 49 17 91.5t45 73.5t70.5 48.5
t92.5 17.5q42 0 73.5 -13.5t51.5 -38.5t27.5 -59t0.5 -74q-9 -52 -35 -90t-64 -62.5t-87 -36.5t-104 -12h-51q-15 -93 34.5 -143.5t142.5 -50.5q41 0 80.5 13t72 37t55 57.5t30.5 74.5h72v0z" />
    <glyph glyph-name="dvD" horiz-adv-x="609" 
d="M369 -95h83l89 -200h-86zM40 740h662l-13 -70h-143l-32 -182h-148q-39 0 -75.5 -10t-65.5 -30t-49.5 -50.5t-27.5 -71.5q-12 -72 23.5 -116t106.5 -44q24 0 51 8t50 24.5t41 42t24 61.5h76l-55 -318h-82l34 194q-27 -36 -72.5 -57.5t-99.5 -21.5q-46 0 -83.5 16t-62.5 46
t-34.5 73t-0.5 97q10 60 39 103t70 71t92 41.5t106 13.5h72l19 110h-435z" />
    <glyph glyph-name="dvDH" horiz-adv-x="434" 
d="M275 97q-49 0 -90 11t-69 33.5t-41 55.5t-5 78q6 34 21.5 59.5t36 42.5t44 27t46.5 13v3q-24 6 -44.5 19t-35 33.5t-20 49t0.5 64.5t23 66t42.5 51.5t58 33.5t70.5 12q43 0 74 -13.5t49 -38.5t21.5 -60.5t-8.5 -79.5h-64q14 54 -6 88t-72 34q-23 0 -42.5 -8t-35 -22
t-26 -33t-13.5 -40q-12 -58 20.5 -90t98.5 -32h68l-12 -68h-54q-69 0 -108 -29.5t-47 -76.5q-6 -30 3 -51.5t28.5 -35t46.5 -19.5t57 -6q46 0 85.5 12t69.5 33.5t49 51.5t25 66h74q-9 -52 -35 -95t-66.5 -74t-95.5 -48t-122 -17z" />
    <glyph glyph-name="dvN" horiz-adv-x="518" 
d="M226 117q-45 0 -80.5 14.5t-58.5 41t-33 62.5t-2 79q8 46 30 81.5t54 59.5t73 36.5t88 12.5h388l-12 -70h-256q20 -23 29.5 -56.5t1.5 -76.5q-7 -43 -27.5 -77t-50 -58t-66.5 -36.5t-78 -12.5zM236 188q27 0 51.5 9.5t44 26t32.5 39t18 48.5q10 54 -19 88.5t-84 34.5
q-29 0 -54 -9t-45 -25.5t-33.5 -39.5t-18.5 -50q-9 -54 20.5 -88t87.5 -34zM38 740h689l-13 -70h-688z" />
    <glyph glyph-name="dvP" horiz-adv-x="379" 
d="M38 740h563l-12 -70h-369l-39 -225q-14 -81 16 -129t106 -48q36 0 65 12t51 33t36.5 48.5t20.5 58.5l68 1q-8 -47 -28 -88t-51.5 -71t-74 -47.5t-96.5 -17.5q-56 0 -97.5 18.5t-66.5 52t-33.5 80.5t2.5 104l39 218h-112z" />
    <glyph glyph-name="dvPH" horiz-adv-x="737" 
d="M293 268q34 0 61.5 12.5t48.5 33.5t35 49t19 59l44 248h-281l-39 -229q-15 -80 11 -126.5t101 -46.5zM38 740h943l-12 -70h-385l-38 -216q29 45 78 75t118 30q45 0 80 -16.5t57.5 -46.5t31 -72.5t-0.5 -93.5h-85q6 36 0 65t-22.5 49.5t-41.5 31.5t-56 11q-39 0 -69.5 -14
t-53 -36.5t-37.5 -51t-22 -58.5l-57 -327h-83l49 279q-29 -38 -72 -60t-97 -22q-51 0 -86.5 17.5t-56.5 49.5t-27 77t4 100l41 229h-112z" />
    <glyph glyph-name="dvB" horiz-adv-x="420" 
d="M277 91q-54 0 -97.5 17t-72.5 48.5t-41.5 75.5t-3.5 98t34 98t63.5 75.5t87 49t104.5 17.5q64 0 107.5 -21.5t69.5 -55.5t34.5 -76.5t1.5 -84.5q-8 -49 -31.5 -92.5t-60.5 -76.5t-86 -52.5t-109 -19.5zM347 511q-36 0 -70 -12t-63 -34l232 -241q20 24 33 51.5t18 53.5
q6 33 0.5 65.5t-24 58.5t-50 42t-76.5 16zM38 740h600l-13 -70h-599zM285 150q40 0 73 12.5t59 33.5l-233 241q-40 -47 -52 -109q-7 -42 2 -75t30.5 -56t52.5 -35t68 -12z" />
    <glyph glyph-name="dvBH" horiz-adv-x="518" 
d="M224 172q50 0 83 34.5t44 97.5l14 81h-90q-53 0 -91 -28t-47 -79q-9 -49 16.5 -77.5t70.5 -28.5zM215 101q-41 0 -73 12.5t-53 36t-29 56t-1 72.5q8 43 28.5 75.5t50.5 55t67 34t79 11.5h93l17 94q11 59 -4.5 94t-64.5 35q-41 0 -70.5 -27.5t-39.5 -77.5q-3 -19 -2 -38
h-83q-1 19 2 41q7 39 24 71t43 55t59.5 35.5t74.5 12.5q46 0 76.5 -15.5t47 -44t19.5 -68t-6 -86.5l-14 -81h198l-12 -69h-198l-13 -77q-18 -100 -73 -153.5t-143 -53.5z" />
    <glyph glyph-name="dvM" horiz-adv-x="513" 
d="M197 172q51 0 83.5 34.5t43.5 97.5l14 81h-92q-52 0 -90 -28t-46 -79q-9 -49 16.5 -77.5t70.5 -28.5zM38 740h663l-13 -70h-221l-38 -216h221l-12 -69h-221l-14 -77q-17 -100 -72.5 -153.5t-142.5 -53.5q-42 0 -74 13t-52.5 36t-28.5 56t-1 72q7 43 27.5 75.5t50.5 55
t67.5 34t78.5 11.5h95l38 216h-363z" />
    <glyph glyph-name="dvY" horiz-adv-x="453" 
d="M39 740h652l-13 -70h-278l-14 -83q-17 -98 -76 -144t-155 -50q0 -2 -0.5 -3.5t-0.5 -3.5q-17 -97 30.5 -150.5t139.5 -53.5q42 0 79.5 13t67 37t49.5 57t27 73h77q-9 -53 -34.5 -99t-65.5 -80t-93 -53t-116 -19q-65 0 -115.5 19.5t-82.5 56.5t-44 89t0 118q2 11 5 23
l6 24h15q41 0 75.5 8t61.5 27t45 49.5t26 75.5l11 69h-292z" />
    <glyph glyph-name="dvR" horiz-adv-x="535" 
d="M152 -91h83l88 -199h-85zM39 740h589l-13 -70h-118l-17 -96q-20 -112 -86 -173.5t-183 -61.5h-50l-24 -137q-12 -61 11.5 -100t82.5 -39q53 0 87 35.5t44 93.5l3 19h81q-1 -5 -1.5 -9.5t-0.5 -7.5q-16 -93 -72 -148t-147 -55q-50 0 -86 16t-58 45t-28.5 68.5t2.5 86.5
l35 200h105q171 0 201 167l17 96h-386z" />
    <glyph glyph-name="dvL" horiz-adv-x="671" 
d="M253 69q-59 0 -101 19t-67 52.5t-32.5 79t1.5 97.5q19 109 85 167.5t158 58.5q40 0 68 -13t46 -33.5t27 -46.5t11 -52h2q12 27 29.5 53t43 46.5t58.5 33t75 12.5q44 0 77.5 -16.5t55 -47t29.5 -73t0 -94.5h-85q6 33 2.5 61.5t-15.5 50t-34 33.5t-54 12q-69 0 -111 -51
t-56 -132l-3 -15h-69l1 15q8 40 6.5 73.5t-13 58t-34 38t-55.5 13.5q-34 0 -61 -12t-47.5 -33t-33.5 -49.5t-19 -62.5q-7 -37 -2.5 -68t21 -53.5t44 -35.5t67.5 -13q7 0 13.5 0.5t14.5 1.5l-13 -73q-9 -1 -15.5 -1.5t-14.5 -0.5zM33 740h860l-12 -70h-861z" />
    <glyph glyph-name="dvV" horiz-adv-x="402" 
d="M275 96q-56 0 -99.5 17t-72 48.5t-39.5 76t-1 98.5q9 51 34 93t62.5 72t85.5 46t103 16q65 0 109 -22t69.5 -56.5t33 -77t0.5 -84.5t-28.5 -82.5t-57 -73t-85.5 -52t-114 -19.5zM285 162q43 0 77.5 15.5t59 39.5t39.5 53.5t20 58.5q6 30 1.5 60t-21 53.5t-46 38.5
t-72.5 15q-35 0 -68.5 -11.5t-60.5 -33t-45.5 -52t-25.5 -69.5t0.5 -70.5t27 -53t48.5 -33t66 -11.5zM38 740h596l-12 -70h-596z" />
    <glyph glyph-name="dvSH" horiz-adv-x="538" 
d="M242 -8q-52 0 -90 16t-61 45.5t-30.5 70.5t1.5 92l31 175h146q39 0 75.5 9t66.5 27.5t50.5 47.5t27.5 68q11 61 -18 97t-83 36q-35 0 -63 -13.5t-47.5 -37.5t-30 -56t-10.5 -69h-83q2 56 20.5 102t50.5 78.5t75.5 50.5t95.5 18q45 0 82 -14.5t61 -42.5t33 -67.5t0 -89.5
q-10 -54 -36.5 -94.5t-65 -67.5t-86.5 -40t-100 -13h-89l-19 -110q-6 -31 -3 -58t15 -46.5t34 -30.5t55 -11q58 0 96 39.5t49 107.5h82q-7 -48 -25 -88t-47 -69.5t-69 -45.5t-91 -16z" />
    <glyph glyph-name="dvSS" horiz-adv-x="387" 
d="M302 263q33 0 59 9t45.5 23t33.5 32t23 36l-256 242l-29 -162q-15 -85 18.5 -132.5t105.5 -47.5zM38 740h569l-13 -70h-376l324 -299q-9 -31 -28 -63t-49.5 -57.5t-72.5 -42t-97 -16.5q-54 0 -95.5 18t-68 51.5t-35.5 80t1 103.5l41 225h-112z" />
    <glyph glyph-name="dvS" horiz-adv-x="524" 
d="M39 740h659l-13 -70h-203l-16 -91q-10 -57 -34 -96t-56 -65h265l-12 -69h-467l-26 -146q-11 -62 12.5 -101t84.5 -39q58 0 91.5 40t42.5 101h81q-6 -47 -23.5 -86t-45.5 -67.5t-66.5 -44t-86.5 -15.5q-50 0 -86 16.5t-58 46t-29 69.5t1 88l36 200h93q86 0 136 45.5
t64 122.5l16 91h-373z" />
    <glyph glyph-name="dvH" horiz-adv-x="586" 
d="M175 -183h83l89 -199h-85zM483 62q-10 -32 -31 -62t-52.5 -53t-72 -37t-89.5 -14q-56 0 -96.5 17.5t-65.5 48.5t-34 71.5t-1 87.5q11 62 47.5 110t91.5 74q-31 16 -50.5 45.5t-11.5 76.5q12 64 62.5 95t122.5 31h129l22 117h-418l12 70h639l-12 -70h-142l-20 -117
l-12 -61h-182q-21 0 -41 -4t-36.5 -14t-28 -25.5t-15.5 -37.5q-6 -32 10 -52t45 -30q14 2 28 3.5t28 1.5q52 0 89 -15t60.5 -39t34 -53.5t10.5 -57.5h-81q-1 16 -8.5 33.5t-22.5 32t-38.5 23.5t-55.5 9q-35 0 -65 -12t-52.5 -32.5t-37.5 -48t-21 -58.5q-6 -32 -1 -59.5
t20.5 -47.5t42 -31.5t62.5 -11.5q31 0 56.5 8.5t45.5 22t34 31t22 34.5h80z" />
    <glyph glyph-name="dvLL" horiz-adv-x="990" 
d="M239 95q-48 0 -86 16.5t-63.5 46t-35.5 71t-1 91.5q9 52 33.5 94.5t59.5 72.5t78.5 46t90.5 16q39 0 69.5 -10.5t53 -29t37.5 -44t22 -54.5h2q16 29 39 54.5t51.5 44t62.5 29t73 10.5q47 0 85.5 -16t63.5 -46t35 -72.5t1 -94.5q-9 -50 -33 -91.5t-58.5 -71t-78 -46
t-91.5 -16.5q-39 0 -70.5 11t-54.5 29.5t-37.5 44t-18.5 55.5h-3q-14 -30 -36.5 -55.5t-51.5 -44t-64 -29.5t-74 -11zM261 167q34 0 64 11t53.5 31.5t39.5 48.5t22 62t0 63t-22.5 50t-42.5 32.5t-60 11.5q-33 0 -63 -11t-54 -32t-40.5 -50t-22.5 -65q-6 -34 0.5 -62
t23.5 -48t43 -31t59 -11zM648 167q33 0 63 11t54.5 31t41 48t22.5 62q12 72 -23.5 115t-102.5 43q-34 0 -64 -11.5t-53.5 -32.5t-40 -50t-22.5 -63q-12 -68 22 -110.5t103 -42.5zM31 740h1050l-13 -70h-1050z" />
    <glyph glyph-name="dvK_SS" horiz-adv-x="529" 
d="M212 567q-5 -29 2 -52t24 -39.5t43 -25.5t58 -10q42 23 72 52t38 74q4 25 -1.5 46t-19 35.5t-34 22.5t-45.5 8q-23 0 -46 -7.5t-41.5 -22t-32 -35t-17.5 -46.5zM342 107q-7 -11 -20 -24t-32 -24.5t-44 -19.5t-56 -8q-39 0 -69 12.5t-49 34t-26 51.5t-1 66q7 42 28 73.5
t50 55t64 41.5t70 35q-28 7 -52.5 21.5t-41 36.5t-23.5 51.5t-1 66.5q7 41 27.5 73.5t51 55t67.5 34t77 11.5q38 0 70.5 -11.5t54.5 -33t31.5 -53.5t2.5 -72q-8 -49 -34.5 -82.5t-61.5 -58.5h235l-11 -62h-319q-35 -16 -67.5 -31t-59 -33.5t-45.5 -43t-25 -58.5
q-8 -46 17 -78.5t79 -32.5q28 0 52 10t42 26.5t30 39t16 46.5h71l-49 -277h-77z" />
    <glyph glyph-name="dvJ_NY" horiz-adv-x="535" 
d="M39 740h731l-12 -70h-731zM271 525h461l-12 -68h-296q40 -23 60 -63.5t10 -101.5q-7 -42 -26 -76.5t-47.5 -58.5t-65.5 -37t-79 -12q-63 2 -102.5 26.5t-54.5 59.5l-28 -159h-81l48 274h78q-2 -33 7 -57.5t26.5 -41t41.5 -25t52 -8.5q31 0 58 10t47.5 28t34 42.5
t18.5 53.5q6 36 -2 63t-27.5 45.5t-48.5 28t-64 9.5h-20z" />
    <glyph glyph-name="dvKx" horiz-adv-x="739" 
d="M433 201q-29 -45 -77.5 -74t-115.5 -29q-46 0 -83 16.5t-61 47t-33.5 73.5t0.5 97q9 52 32.5 94t57 71.5t75.5 45.5t89 16q69 0 108 -29.5t53 -74.5l38 215h-490l12 70h952l-12 -70h-382l-38 -213q29 44 75.5 73t112.5 29q45 0 81 -17t59 -47.5t31.5 -72.5t-0.5 -92h-83
q6 36 -0.5 65t-22.5 49.5t-41.5 31.5t-56.5 11q-37 0 -66.5 -13t-51 -34t-36.5 -48t-22 -55l-59 -337h-80zM274 168q39 0 69 13.5t52.5 34.5t37 47t20.5 51l4 19q4 27 -0.5 54.5t-19.5 49.5t-41.5 36t-66.5 14q-32 0 -61.5 -11t-54 -31t-42 -49.5t-23.5 -65.5
q-7 -38 -0.5 -68t24 -51t43.5 -32t59 -11zM188 -95q-24 0 -37.5 16t-9.5 39q4 24 23 40.5t43 16.5q23 0 36.5 -16.5t9.5 -40.5q-4 -23 -23 -39t-42 -16z" />
    <glyph glyph-name="dvKHx" horiz-adv-x="674" 
d="M217 -193q-24 0 -37.5 16t-9.5 39q4 24 23 40.5t43 16.5q23 0 36.5 -16.5t9.5 -40.5q-4 -23 -23 -39t-42 -16zM584 200q65 0 110.5 38t56.5 102t-20.5 102t-96.5 38q-64 0 -109.5 -38t-56.5 -102q-12 -64 20 -102t96 -38zM39 740h856l-13 -70h-484l-23 -131
q-10 -57 -31.5 -95.5t-50 -62.5t-62.5 -34t-70 -10l-18 -103q-14 -74 23 -119t116 -45q31 0 57.5 8t48 21.5t38.5 31t30 36.5q-39 26 -56.5 69.5t-6.5 103.5q8 48 30.5 85.5t55.5 64t75.5 40.5t90.5 14t85 -14t61 -40.5t33 -64t1 -85.5q-9 -48 -32 -86t-56.5 -64.5
t-75.5 -40t-88 -13.5q-14 0 -27 1.5t-26 3.5q-17 -29 -40.5 -55.5t-54 -46t-67 -31t-79.5 -11.5q-59 0 -104 17t-74 49t-39.5 77.5t-0.5 102.5l28 156h35q30 0 57 6.5t49.5 23.5t38.5 46t24 74l21 121h-288z" />
    <glyph glyph-name="dvGx" horiz-adv-x="499" 
d="M38 740h533l-12 -70h-128l-47 -270q-6 -36 -20.5 -68t-37.5 -56t-56.5 -38t-76.5 -14q-40 0 -69.5 12.5t-47.5 35.5t-24.5 54t0.5 69l6 30h82l-6 -31q-3 -18 -2 -35.5t8 -31.5t21.5 -22.5t37.5 -8.5q25 0 43 9t30 23t18.5 32.5t9.5 36.5l48 273h-322zM160 28
q-24 0 -37.5 16t-9.5 39q4 24 23 40.5t43 16.5q23 0 36.5 -16.5t9.5 -40.5q-4 -23 -23 -39t-42 -16z" />
    <glyph glyph-name="dvJx" horiz-adv-x="557" 
d="M228 131q-44 0 -77 15t-54 42t-28.5 64.5t0.5 82.5l29 164h84l-29 -165q-11 -58 12 -94t74 -36q53 0 88.5 36t46.5 94l30 165h313l-12 -72h-232l-17 -95q-8 -44 -27.5 -81t-48.5 -64t-67.5 -41.5t-84.5 -14.5zM39 740h721l-13 -70h-720zM197 -60q-24 0 -37.5 16t-9.5 39
q4 24 23 40.5t43 16.5q23 0 36.5 -16.5t9.5 -40.5q-4 -23 -23 -39t-42 -16z" />
    <glyph glyph-name="dvPHx" horiz-adv-x="737" 
d="M293 268q34 0 61.5 12.5t48.5 33.5t35 49t19 59l44 248h-281l-39 -229q-15 -80 11 -126.5t101 -46.5zM38 740h943l-12 -70h-385l-38 -216q29 45 78 75t118 30q45 0 80 -16.5t57.5 -46.5t31 -72.5t-0.5 -93.5h-85q6 36 0 65t-22.5 49.5t-41.5 31.5t-56 11q-39 0 -69.5 -14
t-53 -36.5t-37.5 -51t-22 -58.5l-57 -327h-83l49 279q-29 -38 -72 -60t-97 -22q-51 0 -86.5 17.5t-56.5 49.5t-27 77t4 100l41 229h-112zM196 9q-24 0 -37.5 16t-9.5 39q4 24 23 40.5t43 16.5q23 0 36.5 -16.5t9.5 -40.5q-4 -23 -23 -39t-42 -16z" />
    <glyph glyph-name="dvAnusvara" unicode="&#x902;" horiz-adv-x="0" 
d="M-65 835q-24 0 -37.5 16.5t-9.5 39.5t23 39.5t42 16.5q25 0 38 -16.5t9 -39.5t-23 -39.5t-42 -16.5z" />
    <glyph glyph-name="dvCandrabindu" unicode="&#x901;" horiz-adv-x="0" 
d="M-63 818q-49 0 -85.5 14t-59.5 38t-31.5 56t-1.5 68h67q-3 -21 1.5 -41.5t18 -37t37 -26.5t58.5 -10t62.5 10t47 26.5t31.5 37t16 41.5h68q-7 -36 -24.5 -68t-46 -56t-68 -38t-90.5 -14zM-40 982q-18 0 -27.5 12t-6.5 29t17 29.5t32 12.5t28 -12.5t6 -29.5
q-3 -17 -17 -29t-32 -12z" />
    <glyph glyph-name="dvVisarga" unicode="&#x903;" horiz-adv-x="232" 
d="M133 436q-23 0 -37 16t-9 40q4 23 23 39.5t43 16.5q23 0 36.5 -16.5t9.5 -39.5q-5 -24 -23.5 -40t-42.5 -16zM80 132q-24 0 -37.5 16.5t-9.5 39.5q5 23 23.5 39.5t42.5 16.5q23 0 37 -16.5t9 -39.5q-4 -23 -23 -39.5t-42 -16.5z" />
    <glyph glyph-name="dvAvagraha" unicode="&#x93d;" horiz-adv-x="576" 
d="M35 133h239q39 0 61.5 18t26.5 45q5 27 -9.5 52.5t-39 51.5t-53 53.5t-52 58t-36.5 65t-5 75.5q6 33 21.5 55.5t39 37t52 21t59.5 6.5h203l-12 -71h-183q-15 0 -31 -2.5t-29.5 -9.5t-23.5 -18.5t-13 -30.5q-5 -28 9.5 -54t38.5 -52t52.5 -53.5t52 -57.5t36.5 -64.5
t6 -74.5q-9 -51 -50 -87t-114 -36h-259z" />
    <glyph glyph-name="dvVirama" unicode="&#x94d;" horiz-adv-x="0" 
d="M-260 -61h83l88 -199h-85z" />
    <glyph glyph-name="dvNukta" unicode="&#x93c;" horiz-adv-x="0" 
d="M-368 -148q-24 0 -37.5 16t-9.5 39q4 24 23 40.5t43 16.5q23 0 36.5 -16.5t9.5 -40.5q-4 -23 -23 -39t-42 -16z" />
    <glyph glyph-name="dvZero" unicode="&#x966;" horiz-adv-x="628" 
d="M76 363q13 76 36 142t60 115t90.5 77t128.5 28t118.5 -28t63.5 -77t19 -115t-14 -142q-14 -77 -36.5 -143t-59.5 -115t-90.5 -77t-128.5 -28t-118.5 28t-63.5 77t-19.5 115t14.5 143zM489 363q10 56 13.5 106.5t-6.5 89t-38 61t-81 22.5q-54 0 -90 -22.5t-60 -61t-38 -89
t-24 -106.5t-13.5 -107t6.5 -89.5t38 -61t81 -22.5q54 0 90 22.5t59.5 61t38 89.5t24.5 107z" />
    <glyph glyph-name="dvOne" unicode="&#x967;" horiz-adv-x="320" 
d="M193 626h-96l15 83h188l-125 -709h-92z" />
    <glyph glyph-name="dvTwo" unicode="&#x968;" horiz-adv-x="575" 
d="M13 73q81 57 158 113t138 110.5t102 108.5t50 108q5 28 2.5 53t-15.5 44t-36.5 29.5t-60.5 10.5q-70 0 -113.5 -43.5t-59.5 -112.5h-88q12 58 38.5 101.5t62.5 73t80.5 44.5t93.5 15q103 0 153.5 -56t33.5 -155q-12 -66 -55 -127t-101 -116t-123.5 -103t-120.5 -87h344
l-13 -76h-482z" />
    <glyph glyph-name="dvThree" unicode="&#x969;" horiz-adv-x="589" 
d="M104 541q12 46 37 82.5t61 62t80.5 38.5t94.5 13q53 0 91 -14.5t61 -39.5t31 -59t1 -73q-11 -63 -54 -107.5t-103 -57.5v-5q60 -15 90.5 -61.5t17.5 -124.5q-8 -42 -29 -78.5t-54.5 -63.5t-78.5 -42.5t-102 -15.5q-51 0 -93 13.5t-70.5 40.5t-41.5 66.5t-8 92.5h88
q-4 -58 30.5 -97t106.5 -39t114.5 37.5t52.5 93.5q13 77 -33 109t-144 32h-24l14 76h25q91 1 143.5 30t63.5 92q9 52 -18.5 84.5t-93.5 32.5q-64 0 -107 -32.5t-60 -85.5h-89v0z" />
    <glyph glyph-name="dvFour" unicode="&#x96a;" horiz-adv-x="629" 
d="M388 161h-371l12 69l437 486h109l-83 -476h100l-15 -79h-100l-28 -161h-90zM406 240l67 381l-336 -381h269z" />
    <glyph glyph-name="dvFive" unicode="&#x96b;" horiz-adv-x="628" 
d="M600 724l-13 -80h-352l-40 -228q28 31 75.5 52t101.5 21q66 0 107 -21.5t62 -56t25 -77t-3 -84.5q-9 -53 -32 -98.5t-60 -80t-87 -54t-113 -19.5q-54 0 -94.5 14.5t-67.5 40.5t-40 62.5t-12 80.5h88q3 -57 40 -89t100 -32q41 0 73.5 13t56.5 36.5t39 55t22 68.5
q14 78 -18.5 120.5t-111.5 42.5q-56 0 -98.5 -26t-68.5 -69h-86l72 408h435z" />
    <glyph glyph-name="dvSix" unicode="&#x96c;" horiz-adv-x="635" 
d="M511 551q-2 53 -28.5 82t-88.5 29q-43 0 -79 -15.5t-64.5 -50.5t-49.5 -91t-35 -137q16 27 40 47.5t52.5 34.5t60 21.5t63.5 7.5q102 0 152.5 -63t30.5 -178q-9 -50 -31 -93.5t-57.5 -76t-83 -51.5t-107.5 -19q-80 0 -126.5 27.5t-67 77t-20 118t15.5 150.5
q15 85 41.5 153t65.5 115.5t92 73t122 25.5q51 0 87.5 -15t59 -40.5t32 -59.5t7.5 -72h-84zM349 402q-31 0 -62 -9.5t-58 -28.5t-46.5 -49t-26.5 -70q-6 -36 -1.5 -67t21.5 -54.5t46.5 -36.5t72.5 -13q71 0 120 43.5t62 117.5q14 77 -17.5 122t-110.5 45z" />
    <glyph glyph-name="dvSeven" unicode="&#x96d;" horiz-adv-x="546" 
d="M584 721l-13 -69l-393 -652h-100l403 644h-385l13 77h475z" />
    <glyph glyph-name="dvEight" unicode="&#x96e;" horiz-adv-x="631" 
d="M211 384q-51 22 -74.5 63.5t-12.5 101.5q7 40 28.5 75t56 61.5t81.5 41.5t106 15q58 0 100 -15.5t67 -41.5t34 -61t2 -75q-11 -59 -49.5 -102t-96.5 -63q59 -20 87.5 -67t16.5 -118q-9 -51 -35 -91.5t-65 -69t-89 -43.5t-107 -15t-101.5 15t-73 43.5t-40 69t-2.5 91.5
q13 72 58 119t109 66zM382 666q-67 0 -114 -32.5t-58 -95.5q-10 -57 25.5 -91t102.5 -34t114 35t58 91q11 62 -24 94.5t-104 32.5zM325 344q-35 0 -67 -8.5t-58 -25.5t-44 -44t-24 -64q-12 -67 26.5 -106.5t116.5 -39.5q77 0 129 40t63 106q7 36 -1 63t-27.5 44.5t-48.5 26
t-65 8.5z" />
    <glyph glyph-name="dvNine" unicode="&#x96f;" horiz-adv-x="630" 
d="M162 194q1 -57 31 -88t94 -31q39 0 72 14.5t59 48t46 87.5t33 134q-30 -46 -83.5 -71t-113.5 -25q-50 0 -89.5 15.5t-65.5 45.5t-35.5 74t0.5 101q9 52 32 95.5t58.5 75t83.5 49.5t107 18q73 0 117 -25t64.5 -72t21 -114t-14.5 -151q-16 -90 -39.5 -160t-60.5 -118
t-88.5 -73t-122.5 -25q-54 0 -91.5 15.5t-60.5 42t-32 62t-6 75.5h84zM329 340q33 0 62.5 10.5t53.5 30t41 48.5t23 65q13 74 -19.5 120.5t-110.5 46.5q-71 0 -119.5 -44t-61.5 -116q-6 -35 -1.5 -64.5t20.5 -51t43.5 -33.5t68.5 -12z" />
    <glyph glyph-name="dvOm" unicode="&#x950;" horiz-adv-x="1056" 
d="M214 12q-49 0 -87 14.5t-62.5 41.5t-34 64.5t-1.5 82.5h79q-5 -29 1 -53t21 -41t39 -27t54 -10q60 0 102.5 37.5t53.5 97.5q4 23 0 46t-17.5 42t-38.5 30.5t-63 11.5h-39l13 71h39q33 0 59 10t45 26.5t30.5 38t15.5 43.5q5 29 -1 52t-20 39t-35.5 24.5t-46.5 8.5
q-27 0 -51.5 -8t-44 -23t-33 -36t-17.5 -47h-79q8 43 29.5 77t53 58t71.5 37t85 13q44 0 78.5 -13t57 -37t31.5 -58t2 -76q-11 -60 -49.5 -103.5t-101.5 -57.5v-3q23 -5 38 -13h60q25 0 47 5.5t39.5 19t30 36t18.5 56.5q8 44 24 80t42.5 62t65 40.5t91.5 14.5q54 0 88 -17.5
t51.5 -50t19.5 -78t-8 -101.5l-24 -136q-24 -136 -96.5 -207t-206.5 -71q-23 0 -47 2.5t-50 7.5l12 70q23 -4 44.5 -6t39.5 -2q54 0 92.5 14.5t64.5 41.5t41.5 65.5t24.5 86.5l26 144q6 37 6 68t-9.5 52.5t-29.5 33.5t-52 12q-31 0 -54 -10t-38.5 -27.5t-25.5 -40.5t-14 -49
q-18 -100 -69.5 -141t-144.5 -41h-1q8 -21 9.5 -45t-2.5 -50q-8 -45 -29.5 -82t-53 -63t-72 -40t-86.5 -14zM629 744q-53 0 -91 14.5t-60.5 39t-30 56t-1.5 66.5h68q-4 -21 1 -41t19 -36.5t38.5 -26.5t60.5 -10t62.5 10t45.5 26.5t29.5 36.5t14.5 41h68q-6 -36 -22 -68
t-44 -56t-67 -38t-91 -14zM647 908q-17 0 -27 12t-7 30q2 17 16.5 29.5t31.5 12.5q18 0 28 -12.5t7 -29.5q-3 -18 -17 -30t-32 -12z" />
    <glyph glyph-name="dvAbbreviationsign" unicode="&#x970;" horiz-adv-x="493" 
d="M276 510q36 0 64 -12t46.5 -33.5t25.5 -51.5t1 -66q-6 -35 -23 -64.5t-42.5 -50.5t-57.5 -33t-68 -12q-37 0 -66 12t-47.5 33.5t-26 51.5t-1.5 65t23.5 64.5t43 51t58.5 33.5t70 12zM268 458q-25 0 -47.5 -8t-40.5 -22.5t-30 -34.5t-16 -44q-8 -48 18.5 -78.5t77.5 -30.5
q48 0 84 29.5t44 77.5q8 49 -16.5 80t-73.5 31z" />
    <glyph glyph-name="danda" unicode="&#x964;" horiz-adv-x="282" 
d="M174 0h-82l130 741h82z" />
    <glyph glyph-name="doubledanda" unicode="&#x965;" horiz-adv-x="493" 
d="M174 0h-82l130 741h82zM385 0h-83l130 741h83z" />
    <glyph glyph-name="rupee" unicode="&#x20a8;" horiz-adv-x="1109" 
d="M486 492q11 61 -17.5 97t-106.5 36h-134l-47 -265h134q78 0 119 36.5t52 95.5zM375 697q61 0 103.5 -16t67.5 -44t32.5 -65t0.5 -80q-6 -35 -22 -67.5t-42.5 -59.5t-64.5 -46t-87 -27l139 -292h-111l-133 288h-89l-52 -288h-91l124 697h225zM631 396q6 33 25 62.5
t49.5 51.5t70.5 34.5t88 12.5q89 0 135.5 -46.5t37.5 -127.5h-93q4 45 -20 73t-79 28q-53 0 -85 -24t-40 -61q-5 -26 6.5 -42.5t32.5 -27t49.5 -17t57.5 -13.5t56.5 -17t47.5 -26.5t29.5 -42.5t2.5 -65q-6 -35 -26 -63.5t-50.5 -49.5t-69 -32.5t-82.5 -11.5q-93 0 -143.5 45
t-42.5 130h94q-5 -45 22 -73.5t83 -28.5q54 0 86.5 24t39.5 62q6 36 -15 54t-55 28.5t-74.5 19t-74 24t-53 43t-10.5 77.5z" />
    <glyph glyph-name="indianrupee" unicode="&#x20b9;" horiz-adv-x="635" 
d="M123 698h544l-12 -67h-129l-16 -91q-1 -5 -1.5 -8.5t-1.5 -8.5h129l-12 -66h-133q-16 -51 -40.5 -85.5t-61.5 -56t-88.5 -30.5t-121.5 -9l-14 -79q-5 -30 -3.5 -54.5t12.5 -42.5t32 -28t54 -10q62 0 94.5 35t43.5 95h85q-20 -102 -80.5 -152t-156.5 -50q-101 0 -142 55.5
t-24 153.5l25 141q79 0 131.5 3.5t86.5 15.5t52.5 35.5t30.5 62.5h-326l12 66h330l3 18l16 90h-330z" />
    <glyph glyph-name="zerowidthnonjoiner" unicode="&#x200c;" horiz-adv-x="0" 
d="M-23 -230v1041h47v-1041h-47z" />
    <glyph glyph-name="zerowidthjoiner" unicode="&#x200d;" horiz-adv-x="0" 
d="M95 560l-72 75v-865h-47v865l-69 -73l-33 33l93 93l-95 95l33 33l95 -95l96 95l32 -32l-96 -96l96 -95z" />
    <glyph glyph-name="dottedcircle" unicode="&#x25cc;" horiz-adv-x="651" 
d="M557 409q0 -19 -12 -30.5t-31 -11.5t-31 11.5t-12 30.5t12 30.5t31 11.5t31 -11.5t12 -30.5zM181 123q0 -19 -12 -30.5t-31 -11.5t-31 11.5t-12 30.5t12 30.5t31 11.5t31 -11.5t12 -30.5zM279 47q0 -19 -12 -30.5t-31 -11.5t-31 11.5t-12 30.5t12 30.5t31 11.5t31 -11.5
t12 -30.5zM136 236q0 -19 -12 -30.5t-31 -11.5t-31 11.5t-12 30.5t12 30.5t31 11.5t31 -11.5t12 -30.5zM403 33q0 -19 -12 -30.5t-31 -11.5t-31 11.5t-12 30.5t12 30.5t31 11.5t31 -11.5t12 -30.5zM151 357q0 -19 -12 -30.5t-31 -11.5t-31 11.5t-12 30.5t12 30.5t31 11.5
t31 -11.5t12 -30.5zM518 79q0 -19 -12 -30.5t-31 -11.5t-31 11.5t-12 30.5t12 30.5t31 11.5t31 -11.5t12 -30.5zM227 456q0 -19 -12 -30.5t-31 -11.5t-31 11.5t-12 30.5t12 30.5t31 11.5t31 -11.5t12 -30.5zM591 175q0 -19 -12 -30.5t-31 -11.5t-31 11.5t-12 30.5t12 30.5
t31 11.5t31 -11.5t12 -30.5zM344 498q0 -19 -12 -30.5t-31 -11.5t-31 11.5t-12 30.5t12 30.5t31 11.5t31 -11.5t12 -30.5zM601 295q0 -19 -12 -30.5t-31 -11.5t-31 11.5t-12 30.5t12 30.5t31 11.5t31 -11.5t12 -30.5zM465 483q0 -19 -12 -30.5t-31 -11.5t-31 11.5t-12 30.5
t12 30.5t31 11.5t31 -11.5t12 -30.5z" />
    <glyph glyph-name="dvReph" horiz-adv-x="0" 
d="M-164 814q7 41 22.5 76.5t40.5 61.5t59 40.5t79 14.5q78 0 112.5 -47t18.5 -122h-74q9 45 -9 71.5t-59 26.5q-89 0 -112 -122l-16 -89h-77z" />
    <glyph glyph-name="dvEyelash" horiz-adv-x="294" 
d="M355 387q-21 -11 -54 -18t-68 -7q-42 0 -82.5 10t-69.5 33t-43.5 60.5t-5.5 92.5h78q-6 -38 5 -63.5t32 -41.5t49.5 -22.5t58.5 -6.5q27 0 45.5 4t33.5 8zM7 740h392l-12 -70h-392z" />
    <glyph glyph-name="dvRashtrasign" horiz-adv-x="0" 
d="M-280 82h112l134 -179h-82l-109 147l-161 -147h-92z" />
    <glyph glyph-name="dvK_RA" horiz-adv-x="995" 
d="M434 205q-11 -16 -23.5 -30t-28.5 -25l-233 -196h-92l180 150q-46 0 -82.5 16t-60 45.5t-32 71t0.5 93.5t32.5 94.5t57 72.5t75.5 46t89 16q69 0 108 -29.5t53 -74.5l38 215h-490l12 70h1048l-13 -70h-477l-38 -213q29 44 75.5 73t112.5 29q45 0 81 -17t59 -47.5
t31.5 -72.5t-0.5 -93q-10 -55 -33 -97t-56 -71t-74 -44t-86 -15q-16 0 -31.5 1.5t-28.5 5.5l11 66q9 -2 20 -3t22 -1q30 0 58 10.5t51.5 31t40 50t23.5 67.5q6 36 -0.5 65t-22.5 49.5t-41.5 31.5t-56.5 11q-37 0 -66.5 -13t-51 -34t-36.5 -48t-22 -55l-59 -337h-80zM273 168
q25 0 48 6l12 10l7 -3q25 10 44 25.5t33.5 34.5t23.5 39.5t13 40.5l5 23q2 26 -4 51.5t-21 46t-41 33t-64 12.5q-32 0 -61.5 -11t-54 -31t-42 -49.5t-23.5 -65.5q-7 -38 -0.5 -68t23.5 -51t43 -32t59 -11z" />
    <glyph glyph-name="dvKH_RA" horiz-adv-x="933" 
d="M718 218q-26 -35 -66.5 -58.5t-97.5 -23.5q-22 0 -38 4q-27 -43 -70 -77l-237 -206h-92l1 5l163 138h-12q-57 0 -100.5 16.5t-70.5 47.5t-37 76.5t0 102.5l28 156h35q28 0 55.5 6.5t50 23.5t39 46t24.5 74l21 121h-288l13 70h986l-13 -70h-131l-117 -670h-84zM581 201
q35 0 63 12.5t48 33t32 45.5t16 49t1 48.5t-16.5 45t-37.5 33t-60 12.5q-28 0 -54.5 -9t-47.5 -26.5t-36 -43t-21 -58.5q-6 -34 0.5 -60.5t22 -44.5t39 -27.5t51.5 -9.5zM282 70q30 0 56 8t47.5 21.5t39 31t30.5 36.5q-37 27 -53.5 74.5t-5.5 109.5q7 45 28 81.5t51.5 61.5
t67.5 38.5t78 12.5q59 -1 93 -24t48 -58l36 207h-400l-23 -131q-10 -57 -31.5 -95.5t-50 -62.5t-62.5 -34t-70 -10l-18 -103q-14 -74 23 -119t116 -45z" />
    <glyph glyph-name="dvG_RA" horiz-adv-x="746" 
d="M538 249l-315 -269h-99l427 357l58 333h-178l-37 -217q-6 -36 -20.5 -68t-37.5 -55.5t-56.5 -37.5t-77.5 -14q-41 0 -70.5 13t-47 36.5t-23.5 55t1 68.5q2 8 3 14t3 14h81l-6 -31q-4 -18 -3 -36t8.5 -32t22 -22.5t37.5 -8.5q25 0 43 9t30 23t19 32t10 36l38 221h-322
l13 70h798l-12 -70h-132l-117 -670h-82z" />
    <glyph glyph-name="dvGH_RA" horiz-adv-x="710" 
d="M290 174q40 0 78 13.5t69.5 38t53 59t29.5 75.5l55 310h-339l-14 -73q-9 -58 17.5 -89t101.5 -31h44l-12 -68h-48q-79 0 -120.5 -33t-50.5 -80q-6 -31 2 -54t27 -38t46.5 -22.5t60.5 -7.5zM38 740h764l-13 -70h-130l-118 -670h-84l39 221q-28 -37 -63 -62l-249 -212h-93
l193 159q-6 -1 -12 -1h-12q-47 0 -85.5 12t-65 35t-38 57.5t-3.5 78.5q6 33 21.5 59.5t37.5 45.5t48 31t53 17v2q-23 4 -42.5 14.5t-32 28.5t-17 44.5t2.5 62.5l13 77h-126z" />
    <glyph glyph-name="dvNG_RA" horiz-adv-x="661" 
d="M584 342q-23 0 -35 15t-8 36q4 22 21.5 37t39.5 15q23 0 35 -15t8 -37q-4 -21 -21.5 -36t-39.5 -15zM40 740h712l-12 -70h-219l-22 -121h1l-11 -60h-176q-21 0 -43 -3.5t-41 -12.5t-33 -25.5t-19 -41.5q-4 -23 2 -39t19.5 -26t32 -14t39.5 -4h44q39 0 74.5 -9.5t61 -30
t37 -53t3.5 -78.5q-11 -60 -53 -102.5t-114 -56.5l117 -156h-82l-109 147l-161 -147h-92l175 158q-73 18 -108.5 67t-24.5 117h83q-9 -56 25 -92.5t112 -36.5q65 0 104.5 30t47.5 75q6 31 -2.5 52t-26 33.5t-41.5 17.5t-51 5h-40q-30 0 -61 7.5t-54 24.5t-35 44.5t-5 68.5
q7 39 27 66t48 43.5t62 24t68 7.5h120l21 121h-412z" />
    <glyph glyph-name="dvC_RA" horiz-adv-x="735" 
d="M38 740h788l-13 -70h-131l-117 -670h-84l37 208q-25 -34 -61 -59l-228 -195h-92l178 149h-8q-44 0 -80 13.5t-60.5 38.5t-35 61.5t-2.5 83.5q10 54 40.5 95.5t78.5 65.5h-183l12 66h364l-13 -66h-35q-36 0 -67 -11.5t-55 -31t-39.5 -47t-21.5 -58.5q-6 -35 2 -61.5
t26 -44.5t44.5 -27.5t58.5 -9.5q38 0 71.5 14t60 38t44.5 56t25 69v-1l58 324h-574z" />
    <glyph glyph-name="dvCH_RA" horiz-adv-x="815" 
d="M348 99q66 0 123.5 16.5t102.5 48t75 77t41 103.5q6 36 1.5 63t-17 45t-31 27t-39.5 9q-18 0 -38 -6.5t-37.5 -20t-31 -36t-18.5 -53.5q-5 -21 -4.5 -44.5t4.5 -48.5h-70q-8 51 1 101q7 40 23.5 69t38.5 49.5t49 32t55 16.5l23 123h-369l-18 -102q-10 -58 14.5 -89
t95.5 -31h23l-12 -69h-21q-40 0 -71 -10t-53 -27t-35.5 -40t-17.5 -48q-7 -38 5.5 -67t40.5 -48.5t70.5 -29.5t96.5 -10zM36 740h870l-12 -70h-218l-22 -124q30 -6 54 -21.5t39 -41t20 -61t-3 -80.5q-11 -62 -39 -113t-70.5 -90t-97.5 -65t-119 -38l119 -158h-88l-108 148
l-161 -148h-87l168 152q-58 5 -104.5 22.5t-77.5 45.5t-44.5 66.5t-4.5 86.5q6 35 22 62.5t38 47.5t49.5 32.5t57.5 17.5v3q-23 4 -42 14.5t-31.5 28.5t-17 45t1.5 63l20 105h-124z" />
    <glyph glyph-name="dvJ_RA" horiz-adv-x="840" 
d="M38 740h894l-12 -70h-132l-118 -670h-78l41 239l-306 -273h-95l415 360l19 107h-196l-5 -31q-8 -44 -26.5 -81t-47 -64t-65.5 -42t-81 -15q-47 0 -81.5 15t-55.5 42t-28.5 64t0.5 81l18 99h85l-18 -97q-11 -59 11.5 -94.5t74.5 -35.5q53 0 89 35.5t46 94.5l17 97h275
l30 169h-682z" />
    <glyph glyph-name="dvJH_RA" horiz-adv-x="919" 
d="M723 323l61 347h-259l-26 -144l-7 -37h-177q-20 0 -42 -3.5t-41.5 -12.5t-34 -25.5t-18.5 -42.5q-4 -23 2 -38.5t19 -25t32 -14t41 -4.5h450zM689 120l-210 -227h-86l313 325l5 28v10l1 3l-253 1q19 -20 28 -48.5t2 -67.5q-6 -32 -21.5 -59.5t-40.5 -47.5t-59.5 -32
t-77.5 -12q-39 0 -66.5 10t-46 23.5t-28.5 27.5t-14 23l-27 -154h-80l45 248h75q-1 -23 6 -44t22.5 -37t41 -25t60.5 -9q63 0 95.5 29t39.5 69q9 51 -21.5 80t-99.5 29h-53q-32 1 -61 9.5t-49.5 26.5t-30 45.5t-2.5 65.5q7 40 27.5 67t49 43t62.5 23t69 7h118l22 120h-411
l13 70h965l-13 -70h-132l-118 -670h-80z" />
    <glyph glyph-name="dvNY_RA" horiz-adv-x="857" 
d="M39 740h909l-11 -70h-132l-118 -670h-82l29 164l-272 -243h-88l375 329l11 63h-153q-11 -42 -33.5 -79t-54.5 -64t-74.5 -42.5t-93.5 -15.5q-50 0 -87.5 14t-63 38t-37 55.5t-8.5 66.5h79q0 -19 7.5 -37t23.5 -32.5t39 -23.5t55 -9q38 0 68.5 12.5t53 33.5t36.5 49t19 59
q5 30 1 57t-19 47.5t-41 33t-63 12.5q-33 0 -59 -9t-46 -23.5t-34 -33t-23 -36.5h-80q11 35 32.5 66.5t53 55.5t72.5 38t91 14q48 0 84 -13.5t60.5 -36.5t37.5 -55.5t13 -69.5h155l50 285h-694z" />
    <glyph glyph-name="dvTT_RA" horiz-adv-x="647" 
d="M36 740h702l-12 -70h-212l-34 -187h-100q-44 0 -84.5 -11.5t-73 -35t-55 -58.5t-31.5 -83q-7 -39 1.5 -72t29.5 -57t53.5 -37.5t73.5 -13.5q42 0 78.5 14t64.5 39t46.5 59.5t25.5 75.5h80q-17 -99 -77.5 -165.5t-154.5 -86.5l114 -153h-82l-107 145h-4l-159 -145h-92
l173 156q-40 12 -71 34t-51 53.5t-27 71t1 85.5q12 64 42 112.5t74 80t100 47.5t119 16h24l21 116h-409z" />
    <glyph glyph-name="dvTTH_RA" horiz-adv-x="674" 
d="M293 118q39 0 75.5 13t65.5 36.5t49 56.5t27 72t-0.5 72.5t-28 58t-52 38.5t-72.5 14q-39 0 -75 -13t-65 -36.5t-49 -56t-27 -72.5q-7 -39 0.5 -72.5t28 -58t52 -38.5t71.5 -14zM286 44l-161 -147h-92l176 160q-40 10 -72 32.5t-52 54.5t-27.5 72.5t0.5 87.5q10 53 35 96
t60.5 74t80 49.5t93.5 24.5l22 122h-323l13 70h729l-13 -70h-324l-22 -123q46 -7 84.5 -27.5t63.5 -53.5t35 -76.5t1 -96.5q-8 -47 -29.5 -86.5t-52 -70t-69.5 -51t-83 -30.5l118 -158h-82z" />
    <glyph glyph-name="dvDD_RA" horiz-adv-x="575" 
d="M40 740h627l-12 -70h-139l-33 -181h-170q-21 0 -43 -3.5t-41 -12.5t-33 -25.5t-19 -41.5q-4 -23 2 -39t19.5 -26t32 -14t39.5 -4h44q39 0 74.5 -9.5t61 -30t37 -53t3.5 -78.5q-11 -61 -54 -103.5t-117 -56.5l116 -155h-82l-109 147l-161 -147h-92l176 159
q-71 19 -105.5 67.5t-23.5 115.5h83q-9 -56 25 -92.5t112 -36.5q65 0 104.5 30t47.5 75q6 31 -2.5 52t-26 33.5t-41.5 17.5t-51 5h-40q-30 0 -61 7.5t-54 24.5t-35 44.5t-5 68.5q7 39 27 66t48 43.5t62 24t68 7.5h114l22 121h-407z" />
    <glyph glyph-name="dvDDH_RA" 
d="M38 740h694l-13 -70h-184l-30 -172h-95q-49 0 -94.5 -13.5t-82.5 -40.5t-63 -67.5t-35 -95.5q-8 -46 0.5 -85t32.5 -67t62 -43.5t89 -15.5q36 0 68 9.5t57.5 27t42.5 42t23 54.5q8 45 -15 74t-67 29q-39 0 -69 -23t-37 -64q-1 -5 -1.5 -10t-0.5 -10h-61q0 7 0.5 15
t1.5 15q6 33 22 58.5t39.5 43.5t54 27t64.5 9q36 0 65 -12t47.5 -34t26 -52.5t1.5 -67.5q-14 -75 -70.5 -125.5t-144.5 -63.5l115 -153h-82l-109 147l-161 -147h-92l179 162q-44 12 -77.5 36.5t-55.5 58.5t-29.5 77.5t1.5 93.5q12 69 44 119.5t77.5 84.5t102 50.5
t118.5 16.5h39l20 112h-431z" />
    <glyph glyph-name="dvNN_RA" horiz-adv-x="856" 
d="M277 329q51 0 85.5 34t43.5 88l39 219h-218l-39 -219q-9 -54 14.5 -88t74.5 -34zM41 740h906l-12 -70h-132l-118 -670h-79l45 251l-319 -283h-98l430 374l57 328h-194l-37 -212q-8 -43 -25.5 -79.5t-45 -63.5t-65 -42t-83.5 -15t-80 15t-55 42t-28 63.5t1 79.5l36 212
h-117z" />
    <glyph glyph-name="dvT_RA" horiz-adv-x="695" 
d="M38 740h748l-13 -70h-131l-117 -670h-81l47 268l-315 -268h-110v4l437 353q-13 46 -53 76.5t-103 30.5q-37 0 -71 -11.5t-62 -33.5t-47.5 -54.5t-26.5 -74.5h-83q9 56 34.5 101t63 76t84.5 47.5t100 16.5q37 0 66.5 -8.5t51.5 -22.5t37 -32t24 -37l42 239h-534z" />
    <glyph glyph-name="dvTH_RA" horiz-adv-x="765" 
d="M552 229q-10 -19 -26.5 -37.5t-39.5 -35.5h1l-319 -229h-104v5l239 167q-61 1 -108 20.5t-77 55t-40.5 85t0.5 111.5q5 28 13 53h98q38 0 76 6t70 21.5t54.5 43t30.5 71.5q8 47 -14.5 79t-74.5 32q-32 0 -57 -12.5t-42.5 -34t-26 -50.5t-8.5 -62h-76q1 48 16.5 90.5
t44 73.5t69.5 49t92 18q43 0 75.5 -13.5t52.5 -38.5t27.5 -59t0.5 -74q-9 -52 -35 -90t-64 -62.5t-87 -36.5t-105 -12h-50q-8 -43 -1 -78.5t29 -61t58.5 -40t87.5 -14.5q43 0 83.5 14.5t73.5 41.5t56.5 66t32.5 88l63 361h216l-12 -70h-132l-118 -670h-84z" />
    <glyph glyph-name="dvD_RA" horiz-adv-x="611" 
d="M40 740h662l-13 -70h-143l-32 -182h-148q-39 0 -75.5 -10t-65.5 -30t-49.5 -50.5t-27.5 -71.5q-12 -72 23.5 -116t106.5 -44q24 0 51 8t50 24.5t41 42t24 61.5h76l-55 -318h-82l34 194q-7 -10 -15.5 -18t-18.5 -16l-240 -201h-92l189 156q-45 1 -81.5 17.5t-60.5 46.5
t-33.5 72.5t-0.5 95.5q10 60 39 103t70 71t92 41.5t106 13.5h72l19 110h-435z" />
    <glyph glyph-name="dvDH_RA" horiz-adv-x="714" 
d="M255 100q-44 0 -81 11.5t-62.5 33.5t-37.5 54.5t-4 74.5q6 34 21.5 59t36 42.5t44 28t46.5 13.5v3q-24 6 -44.5 19t-35 33.5t-20 49t0.5 64.5t23 66t42.5 51.5t58.5 33.5t71 12q42 0 73 -13.5t49 -38.5t21.5 -60.5t-8.5 -79.5h-64q14 54 -5.5 88t-72.5 34q-45 0 -77 -30
t-40 -73q-11 -58 21 -90t99 -32h67l-12 -68h-53q-69 0 -108.5 -29t-47.5 -75q-5 -28 3 -49.5t26 -35.5t44 -21.5t58 -7.5q44 0 84 14.5t72.5 41.5t54.5 64.5t30 82.5l54 299h-1l11 70h214l-12 -70h-130l-118 -670h-84l39 221q-21 -31 -52 -56h1l-267 -229h-94l200 166
q-8 -1 -16.5 -1.5t-17.5 -0.5z" />
    <glyph glyph-name="dvN_RA" horiz-adv-x="822" 
d="M236 188q27 0 51.5 9.5t44 26t32.5 39t18 48.5q10 54 -19 88.5t-84 34.5q-29 0 -54 -9t-45 -25.5t-33.5 -39.5t-18.5 -50q-9 -54 20.5 -88t87.5 -34zM39 740h874l-12 -70h-132l-118 -670h-76l35 195l-299 -269h-94l403 353l27 155h-230q20 -23 29.5 -56t1.5 -77
q-7 -43 -27.5 -77t-50.5 -58t-67 -36.5t-77 -12.5q-45 0 -80.5 14.5t-58.5 41t-33 62.5t-2 79q8 46 30 81.5t54 59.5t73 36.5t88 12.5h363l29 166h-663z" />
    <glyph glyph-name="dvP_RA" horiz-adv-x="655" 
d="M301 268q33 0 62 11.5t51.5 31t37.5 45.5t22 55l46 259h-299l-39 -225q-14 -81 15 -129t104 -48zM38 740h708l-12 -70h-131l-118 -670h-83l50 284q-19 -22 -40 -39l-291 -257h-92l248 213h-7q-51 0 -88 17.5t-59 49.5t-28.5 77t3.5 100l40 225h-112z" />
    <glyph glyph-name="dvPH_RA" horiz-adv-x="985" 
d="M293 268q34 0 61.5 12.5t48.5 33.5t35 49t19 59l44 248h-281l-39 -229q-15 -80 11 -126.5t101 -46.5zM38 740h1039l-13 -70h-480l-38 -216q29 45 78 75t118 30q45 0 80 -16.5t57.5 -46t31 -71t-0.5 -91.5q-10 -55 -33.5 -98t-56.5 -73t-74 -45.5t-86 -15.5q-36 0 -63 8
l11 65q22 -5 44 -5q31 0 59.5 11t51.5 31.5t39 50t23 67.5q6 36 0 65t-22.5 49.5t-41.5 31.5t-56 11q-39 0 -69.5 -14t-53 -36.5t-37.5 -51t-22 -58.5l-57 -327h-83l50 283q-17 -21 -36 -36l-288 -259h-92l247 214h-1q-51 0 -86.5 17t-56.5 48.5t-27 75.5t4 98l41 229h-112z
" />
    <glyph glyph-name="dvB_RA" horiz-adv-x="688" 
d="M188 -54h-90l184 150q-5 -1 -9 -1h-9q-50 0 -91 17t-68.5 48t-38.5 75t-2 98q9 55 34.5 98.5t63 74t84.5 47t100 16.5q70 0 113 -31.5t61 -76.5l36 209h-530l12 70h742l-13 -70h-131l-117 -670h-80l34 195q-15 -21 -39 -43zM351 512q-74 0 -133 -45l233 -240
q20 24 32.5 51t17.5 54q6 33 0.5 65t-24 57.5t-50 41.5t-76.5 16zM290 153q40 0 72.5 12.5t58.5 32.5l-233 240q-19 -22 -32.5 -49t-18.5 -59q-8 -42 1 -75t30.5 -55.5t52.5 -34.5t69 -12z" />
    <glyph glyph-name="dvBH_RA" horiz-adv-x="815" 
d="M228 191q51 0 84 34.5t44 97.5l12 66h-95q-51 0 -87.5 -24.5t-45.5 -68.5q-9 -48 16.5 -76.5t71.5 -28.5zM219 121q-41 0 -73 12.5t-53 35.5t-29 55t-2 71q7 39 27.5 69.5t50 51t66.5 31t78 10.5h96l16 91q11 60 -5.5 94.5t-66.5 34.5q-42 0 -72 -27.5t-39 -76.5
q-2 -9 -2 -17.5v-19.5h-81q0 21 3 41q6 38 23 70t43 54.5t59.5 35t74.5 12.5q46 0 76 -15.5t46 -44t19 -68t-5 -86.5l-14 -78h190l50 283h211l-12 -70h-133l-118 -670h-76l35 195l-316 -269h-95l422 349l20 114h-189l-11 -61q-17 -99 -73 -153t-141 -54z" />
    <glyph glyph-name="dvM_RA" horiz-adv-x="786" 
d="M204 197q51 0 84 35t44 98l14 79h-95q-51 0 -88.5 -28.5t-46.5 -77.5q-9 -48 16 -77t72 -29zM657 670h-189l-34 -193h188zM42 740h839l-13 -70h-131l-119 -670h-76l36 197l-319 -271h-95l422 348l24 135h-188l-13 -75q-17 -98 -72.5 -152t-142.5 -54q-41 0 -73 12.5
t-52.5 35.5t-29 55t-1.5 71q7 42 27.5 75t50.5 55t67.5 33.5t78.5 11.5h96l35 193h-364z" />
    <glyph glyph-name="dvY_RA" horiz-adv-x="738" 
d="M321 182q40 0 76.5 12.5t66.5 35t51 54t31 70.5l56 316h-202l-14 -80q-18 -99 -76.5 -146t-153.5 -51q-1 -2 -1 -3.5t-1 -3.5q-17 -94 28 -149t139 -55zM39 740h790l-12 -70h-132l-118 -670h-83l37 213q-30 -39 -75 -64l-288 -209h-103l1 5l239 168q-62 1 -108.5 21
t-75.5 56.5t-39.5 88t1.5 115.5q2 11 5 23l6 24h15q41 0 75.5 8.5t61.5 27.5t45 50t26 76l11 67h-292z" />
    <glyph glyph-name="dvL_RA" horiz-adv-x="898" 
d="M818 309q-9 -53 -32 -97t-58 -76t-82.5 -50t-106.5 -17q-8 0 -18 0.5t-18 1.5l13 73q7 -1 14.5 -1.5t14.5 -0.5q39 0 70.5 12.5t55.5 35t40 54t23 68.5q6 33 2.5 61.5t-15.5 50t-34 33.5t-54 12q-69 0 -111 -51t-56 -132l-3 -15h-69l1 15q8 40 6.5 73.5t-13 58t-34 38
t-55.5 13.5q-34 0 -61 -12t-47.5 -33t-33.5 -49.5t-19 -62.5q-7 -37 -2.5 -68t21 -53.5t44 -35.5t67.5 -13q7 0 13.5 0.5t14.5 1.5l-13 -73q-9 -1 -15.5 -1.5t-14.5 -0.5q-59 0 -101 19t-67 52.5t-32.5 79t1.5 97.5q19 109 85 167.5t158 58.5q40 0 68 -13t46 -33.5t27 -46.5
t11 -52h2q10 24 26 47.5t37.5 43.5t49 33.5t62.5 18.5l23 129h-629l13 70h957l-13 -70h-246l-24 -133q66 -18 96.5 -78t14.5 -150zM493 16h112l134 -179h-82l-109 147l-161 -147h-92z" />
    <glyph glyph-name="dvV_RA" horiz-adv-x="674" 
d="M283 163q44 0 78 15t59 39t40 53.5t20 57.5q6 30 1.5 60t-21 53.5t-46 38.5t-73.5 15q-35 0 -67.5 -11.5t-58.5 -33t-44.5 -52t-25.5 -68.5q-7 -39 0.5 -70t26 -52.5t47 -33t64.5 -11.5zM622 670l-118 -670h-81l35 203q-22 -32 -56 -57l-228 -190h-93l179 144h-5
q-50 0 -90 16.5t-65.5 47t-35.5 74.5t1 100q9 52 33 93.5t59 70.5t79 45t94 16q72 0 114.5 -29t58.5 -76l37 212h-514l12 70h728l-13 -70h-131z" />
    <glyph glyph-name="dvSH_RA" horiz-adv-x="806" 
d="M317 406l9 6q48 32 81.5 67t42.5 87q4 22 -0.5 42t-17 36t-32.5 25.5t-48 9.5q-25 0 -47.5 -9t-40 -24t-29 -35t-14.5 -41q-9 -52 13 -90t67 -65zM582 165l-69 42l-263 -212h-99l1 7l305 238l-147 87l-200 -137h-96l1 11l238 161q-63 42 -92 95t-16 121q6 37 25 68.5
t47.5 54t65.5 35.5t80 13q44 0 77.5 -14.5t55 -38.5t29.5 -56t2 -67q-11 -63 -47.5 -109.5t-104.5 -92.5l221 -131l88 500h213l-12 -70h-131l-119 -670h-82z" />
    <glyph glyph-name="dvSS_RA" horiz-adv-x="663" 
d="M304 263q56 0 96.5 28t62.5 72l-256 242l-29 -162q-15 -83 18.5 -131.5t107.5 -48.5zM527 670h-308l264 -249v2zM38 740h715l-13 -70h-131l-118 -670h-82l49 277q-24 -30 -53 -49l-282 -240h-94l247 204q-51 0 -89 18.5t-61.5 51.5t-31 79.5t2.5 103.5l41 225h-112z" />
    <glyph glyph-name="dvS_RA" horiz-adv-x="877" 
d="M466 579q-10 -57 -34 -96t-56 -65h324l45 252h-263zM38 740h911l-12 -70h-112l-119 -670h-73l39 219l-251 -276h-83l342 362l9 48h-530l-26 -151q-10 -61 11 -100t75 -39q27 0 46.5 10.5t32.5 28.5t21 42.5t13 52.5h72q-5 -44 -19 -81.5t-38 -65.5t-57.5 -43.5
t-78.5 -15.5t-78.5 16t-53.5 45t-26.5 68.5t1.5 86.5l36 204h93q86 0 136 45.5t64 122.5l16 91h-373z" />
    <glyph glyph-name="dvH_RA" horiz-adv-x="586" 
d="M478 32q-10 -32 -31.5 -61t-52.5 -51.5t-71 -36t-88 -13.5q-56 0 -97.5 18.5t-67 51t-34 75.5t0.5 92q12 66 49.5 117.5t95.5 80.5q-32 15 -52 45.5t-12 76.5q11 64 62.5 95t122.5 31h129l21 117h-418l13 70h639l-13 -70h-141l-21 -117l-11 -61h-183q-21 0 -41 -4
t-36 -14t-27.5 -25.5t-15.5 -37.5q-6 -32 10 -52.5t46 -30.5q13 2 25.5 3.5t26.5 1.5q40 0 73 -10.5t56 -28t37 -41t17 -49.5l-131 -115h-79l135 116q-11 23 -39 43.5t-76 20.5q-37 0 -68 -13.5t-54.5 -36t-39.5 -53.5t-22 -65q-6 -35 -1 -64.5t21 -52t43 -35t65 -12.5
q31 0 57 8.5t46 22.5t34.5 30.5t22.5 33.5h75v0z" />
    <glyph glyph-name="dvLL_RA" horiz-adv-x="990" 
d="M261 167q34 0 64 11t53.5 31.5t39.5 48.5t22 62t0 63t-22.5 50t-42.5 32.5t-60 11.5q-33 0 -63 -11t-54 -32t-40.5 -50t-22.5 -65q-6 -34 0.5 -62t23.5 -48t43 -31t59 -11zM648 167q33 0 63 11t54.5 31t41 48t22.5 62q12 72 -23.5 115t-102.5 43q-34 0 -64 -11.5
t-53.5 -32.5t-40 -50t-22.5 -63q-12 -68 22 -110.5t103 -42.5zM654 93l-161 -147h-92l177 160q-47 16 -75 50t-35 79h-3q-14 -30 -36.5 -55.5t-51.5 -44t-64 -29.5t-74 -11q-48 0 -86 16.5t-63.5 46t-35.5 71t-1 91.5q9 52 33.5 94.5t59.5 72.5t78.5 46t90.5 16
q39 0 69.5 -10.5t53 -29t37.5 -44t22 -54.5h2q30 54 79.5 91.5t118.5 45.5l22 122h-701l13 70h1050l-13 -70h-268l-23 -127q36 -8 64 -27t46 -47.5t24.5 -66t-1.5 -82.5q-7 -40 -23.5 -74.5t-41 -62t-55 -47.5t-65.5 -30l120 -160h-82z" />
    <glyph glyph-name="dvKx_RA" horiz-adv-x="1029" 
d="M470 206q-21 -32 -49 -53l-236 -199h-93l181 150q-46 0 -82.5 16t-60 45.5t-32.5 71t0 93.5t32.5 94.5t57 72.5t76 46t89.5 16q69 0 108 -30t53 -75l38 216h-537l12 70h1094l-12 -70h-478l-37 -215q28 45 74.5 74.5t112.5 29.5q45 0 81 -17t59.5 -47.5t32 -72.5t-0.5 -93
q-10 -55 -33.5 -97t-56.5 -71t-73.5 -44t-85.5 -15q-17 0 -32 1.5t-29 5.5l12 66q8 -2 19 -3t22 -1q30 0 58.5 10.5t51.5 31t39.5 50t23.5 67.5q6 36 0 65t-22.5 49.5t-41.5 31.5t-56 11q-39 0 -69 -13.5t-52 -36t-36 -50.5t-20 -57l-58 -330h-80zM309 168q25 0 48 6l12 10
l7 -3q25 10 44 25.5t33.5 34.5t23.5 39.5t13 40.5l2 9q4 28 0 56t-18.5 50.5t-41 36.5t-67.5 14q-32 0 -61.5 -11t-54.5 -31t-42.5 -49.5t-23.5 -65.5q-7 -38 -0.5 -68t23.5 -51t43.5 -32t59.5 -11zM13 9q-23 0 -35.5 15t-8.5 37q4 23 21.5 38t40.5 15q22 0 34.5 -15
t8.5 -38q-4 -22 -21.5 -37t-39.5 -15z" />
    <glyph glyph-name="dvKHx_RA" horiz-adv-x="933" 
d="M718 218q-26 -35 -66.5 -58.5t-97.5 -23.5q-22 0 -38 4q-27 -43 -70 -77l-237 -206h-92l1 5l163 138h-12q-57 0 -100.5 16.5t-70.5 47.5t-37 76.5t0 102.5l28 156h35q28 0 55.5 6.5t50 23.5t39 46t24.5 74l21 121h-288l13 70h986l-13 -70h-131l-117 -670h-84zM18 -122
q-23 0 -35.5 15t-8.5 37q4 23 21.5 38t40.5 15q22 0 34.5 -15t8.5 -38q-4 -22 -21.5 -37t-39.5 -15zM581 201q35 0 63 12.5t48 33t32 45.5t16 49t1 48.5t-16.5 45t-37.5 33t-60 12.5q-28 0 -54.5 -9t-47.5 -26.5t-36 -43t-21 -58.5q-6 -34 0.5 -60.5t22 -44.5t39 -27.5
t51.5 -9.5zM282 70q30 0 56 8t47.5 21.5t39 31t30.5 36.5q-37 27 -53.5 74.5t-5.5 109.5q7 45 28 81.5t51.5 61.5t67.5 38.5t78 12.5q59 -1 93 -24t48 -58l36 207h-400l-23 -131q-10 -57 -31.5 -95.5t-50 -62.5t-62.5 -34t-70 -10l-18 -103q-14 -74 23 -119t116 -45z" />
    <glyph glyph-name="dvGx_RA" horiz-adv-x="746" 
d="M538 249l-315 -269h-99l427 357l58 333h-178l-37 -217q-6 -36 -20.5 -68t-37.5 -55.5t-56.5 -37.5t-77.5 -14q-41 0 -70.5 13t-47 36.5t-23.5 55t1 68.5q2 8 3 14t3 14h81l-6 -31q-4 -18 -3 -36t8.5 -32t22 -22.5t37.5 -8.5q25 0 43 9t30 23t19 32t10 36l38 221h-322
l13 70h798l-12 -70h-132l-117 -670h-82zM45 56q-23 0 -35.5 15t-8.5 37q4 23 21.5 38t40.5 15q22 0 34.5 -15t8.5 -38q-4 -22 -21.5 -37t-39.5 -15z" />
    <glyph glyph-name="dvJx_RA" horiz-adv-x="840" 
d="M38 740h894l-12 -70h-132l-118 -670h-78l41 239l-306 -273h-95l415 360l19 107h-196l-5 -31q-8 -44 -26.5 -81t-47 -64t-65.5 -42t-81 -15q-47 0 -81.5 15t-55.5 42t-28.5 64t0.5 81l18 99h85l-18 -97q-11 -59 11.5 -94.5t74.5 -35.5q53 0 89 35.5t46 94.5l17 97h275
l30 169h-682zM79 -9q-23 0 -35.5 15t-8.5 37q4 23 21.5 38t40.5 15q22 0 34.5 -15t8.5 -38q-4 -22 -21.5 -37t-39.5 -15z" />
    <glyph glyph-name="dvPHx_RA" horiz-adv-x="1022" 
d="M329 268q34 0 62 12.5t49 33.5t34.5 49t18.5 59l44 248h-280l-41 -229q-14 -80 12.5 -126.5t100.5 -46.5zM13 740h1099l-12 -70h-480l-38 -215q29 45 78 74.5t117 29.5q45 0 80.5 -16.5t58 -46t31 -71t-0.5 -91.5q-10 -55 -33.5 -98t-56.5 -73t-74 -45.5t-86 -15.5
q-17 0 -33.5 2t-29.5 6l11 65q23 -5 45 -5q62 0 110 42.5t62 117.5q6 36 -0.5 65t-23 49.5t-41 31.5t-55.5 11q-41 0 -72.5 -15t-54.5 -39.5t-37 -55.5t-19 -62v1l-56 -316h-83l50 283q-8 -10 -16.5 -19t-19.5 -17l-288 -259h-92l246 214q-51 0 -87 17t-57 48.5t-26.5 75.5
t4.5 98l40 229h-172zM9 88q-23 0 -35.5 15t-8.5 37q4 23 21.5 38t40.5 15q22 0 34.5 -15t8.5 -38q-4 -22 -21.5 -37t-39.5 -15z" />
    <glyph glyph-name="dvK_R" horiz-adv-x="739" 
d="M434 205q-11 -16 -23.5 -30t-28.5 -25l-233 -196h-92l183 150h-3q-46 0 -82.5 16t-60 45.5t-32 71t0.5 93.5t32.5 94.5t57 72.5t75.5 46t89 16q69 0 108 -29.5t53 -74.5l38 215h-490l12 70h952l-12 -70h-382l-38 -213q29 44 75.5 73t112.5 29q45 0 81 -17t59 -47.5
t31.5 -72.5t-0.5 -92h-83q6 36 -0.5 65t-22.5 49.5t-41.5 31.5t-56.5 11q-37 0 -66.5 -13t-51 -34t-36.5 -48t-22 -55l-59 -337h-80zM273 168q40 0 71.5 14.5t54 36.5t36.5 49t19 53l5 23q2 26 -4 51.5t-21 46t-41 33t-64 12.5q-32 0 -61.5 -11t-54 -31t-42 -49.5
t-23.5 -65.5q-7 -38 -0.5 -68t23.5 -51t43 -32t59 -11z" />
    <glyph glyph-name="dvKH_R" horiz-adv-x="674" 
d="M584 200q65 0 110.5 38t56.5 102t-20.5 102t-96.5 38q-64 0 -109.5 -38t-56.5 -102q-12 -64 20 -102t96 -38zM39 740h856l-13 -70h-484l-23 -131q-10 -57 -31.5 -95.5t-50 -62.5t-62.5 -34t-70 -10l-18 -103q-14 -74 23 -119t116 -45q31 0 57.5 8t48 21.5t38.5 31
t30 36.5q-39 26 -56.5 69.5t-6.5 103.5q8 48 30.5 85.5t55.5 64t75.5 40.5t90.5 14t85 -14t61 -40.5t33 -64t1 -85.5q-9 -48 -32 -86t-56.5 -64.5t-75.5 -40t-88 -13.5q-14 0 -27 1.5t-26 3.5q-19 -32 -46.5 -61t-62.5 -49l-200 -174h-92v5l159 135q-59 0 -104 17t-73.5 49
t-39 77.5t-0.5 102.5l28 156h35q30 0 57 6.5t49.5 23.5t38.5 46t24 74l21 121h-288z" />
    <glyph glyph-name="dvG_R" horiz-adv-x="480" 
d="M570 353l-14 -89l-333 -284h-99zM39 740h599l-13 -70h-194l-37 -217q-6 -36 -20.5 -68t-37.5 -55.5t-56.5 -37.5t-77.5 -14q-41 0 -70.5 13t-47.5 36.5t-23.5 55t1.5 68.5q2 8 3 14t3 14h81l-6 -31q-4 -18 -3 -36t8.5 -32t22 -22.5t37.5 -8.5q25 0 43 9t30 23t19 32
t10 36l38 221h-322z" />
    <glyph glyph-name="dvGH_R" horiz-adv-x="431" 
d="M38 740h620l-12 -70h-411l-13 -73q-10 -58 16 -89t99 -31h48l-13 -68h-52q-78 0 -118 -32.5t-49 -80.5q-5 -31 3 -54t27 -38t46.5 -22.5t60.5 -7.5q44 0 82.5 14t69 39t51 59t27.5 74h71q-11 -62 -44.5 -113.5t-84.5 -86.5l-249 -213h-93l194 160q-9 -1 -18 -1.5
t-18 -0.5q-55 0 -97.5 12.5t-70.5 36.5t-39 58.5t-3 78.5q6 33 21.5 59t37.5 44.5t47.5 30.5t52.5 16l1 2q-23 4 -42.5 14.5t-32 28.5t-17 44.5t2.5 62.5l13 77h-126z" />
    <glyph glyph-name="dvNG_R" horiz-adv-x="661" 
d="M177 -177h83l89 -199h-85zM584 342q-23 0 -35 15t-8 36q4 22 21.5 37t39.5 15q23 0 35 -15t8 -37q-4 -21 -21.5 -36t-39.5 -15zM40 740h712l-12 -70h-219l-22 -121h1l-11 -60h-176q-21 0 -43 -3.5t-41 -12.5t-33 -25.5t-19 -41.5q-4 -23 2 -39t19.5 -26t32 -14t39.5 -4
h44q39 0 74.5 -9.5t61 -30t37 -53t3.5 -78.5q-11 -60 -53 -102.5t-114 -56.5l117 -156h-82l-109 147l-161 -147h-92l175 158q-73 18 -108.5 67t-24.5 117h83q-9 -56 25 -92.5t112 -36.5q65 0 104.5 30t47.5 75q6 31 -2.5 52t-26 33.5t-41.5 17.5t-51 5h-40q-30 0 -61 7.5
t-54 24.5t-35 44.5t-5 68.5q7 39 27 66t48 43.5t62 24t68 7.5h120l21 121h-412z" />
    <glyph glyph-name="dvC_R" horiz-adv-x="464" 
d="M38 740h644l-12 -70h-644zM77 527h364l-13 -66h-35q-36 0 -67 -11.5t-55 -31t-39.5 -47t-21.5 -58.5q-6 -35 2 -61.5t26 -44.5t44.5 -27.5t58.5 -9.5q38 0 71.5 14t60.5 38.5t45 57t24 70.5h71q-10 -64 -43 -116t-85 -87l-222 -193h-92l176 146q-7 -1 -13 -1h-13
q-47 0 -86 13t-65.5 38.5t-38 63t-2.5 86.5q10 54 40.5 95.5t78.5 65.5h-183z" />
    <glyph glyph-name="dvCH_R" horiz-adv-x="815" 
d="M36 740h870l-12 -70h-664l-18 -102q-10 -58 14.5 -89t95.5 -31h23l-12 -69h-21q-40 0 -71 -10t-53 -27t-35.5 -40t-17.5 -48q-7 -38 5.5 -67t40.5 -48.5t70.5 -29.5t96.5 -10q66 0 123.5 16.5t102.5 48t75 77t41 103.5q6 36 1.5 63t-17 45t-31 27t-39.5 9q-18 0 -38 -6.5
t-37.5 -20t-31 -36t-18.5 -53.5q-5 -21 -4.5 -44.5t4.5 -48.5h-70q-8 51 1 101q8 46 29 78.5t49.5 53t61.5 29.5t66 9q38 0 69 -13t51.5 -39t28.5 -65t-1 -91q-11 -62 -39 -113t-70.5 -90t-97.5 -65t-119 -38l119 -158h-88l-108 148l-161 -148h-87l168 152
q-58 5 -104.5 22.5t-77.5 45.5t-44.5 66.5t-4.5 86.5q6 35 22 62.5t38 47.5t49.5 32.5t57.5 17.5v3q-23 4 -42 14.5t-31.5 28.5t-17 45t1.5 63l20 105h-124z" />
    <glyph glyph-name="dvJ_R" horiz-adv-x="554" 
d="M695 369l-15 -88l-353 -315h-94zM40 740h721l-13 -70h-720zM245 200q-47 0 -81.5 15t-55.5 42t-28.5 64t0.5 81l18 99h85l-18 -97q-11 -59 11.5 -94.5t74.5 -35.5q53 0 89 35.5t46 94.5l17 97h316l-12 -68h-237l-5 -31q-8 -44 -26.5 -81t-47 -64t-65.5 -42t-81 -15z" />
    <glyph glyph-name="dvJH_R" horiz-adv-x="569" 
d="M687 194l-16 -91l-192 -210h-87zM46 740h738l-13 -70h-246l-26 -144l-7 -37h-177q-20 0 -42 -3.5t-41.5 -12.5t-34 -25.5t-18.5 -42.5q-4 -23 2 -38.5t19 -25t32 -14t41 -4.5h436l-10 -64l-240 1q19 -20 28 -48.5t2 -67.5q-6 -32 -21.5 -59.5t-40.5 -47.5t-59.5 -32
t-77.5 -12q-39 0 -66.5 10t-46 23.5t-28.5 27.5t-14 23l-27 -154h-80l45 248h75q-1 -23 6 -44t22.5 -37t41 -25t60.5 -9q63 0 95.5 29t39.5 69q9 51 -21.5 80t-99.5 29h-53q-32 1 -61 9.5t-49.5 26.5t-30 45.5t-2.5 65.5q7 40 27.5 67t49 43t62.5 23t69 7h118l22 120h-411z
" />
    <glyph glyph-name="dvNY_R" horiz-adv-x="543" 
d="M251 112q-50 0 -87.5 14t-63 38t-37 55.5t-8.5 66.5h79q0 -19 7.5 -37t23.5 -32.5t39 -23.5t55 -9q38 0 68.5 12.5t53 33.5t36.5 49t19 59q5 30 1 57t-19 47.5t-41 33t-63 12.5q-33 0 -59 -9t-46 -23.5t-34 -33t-23 -36.5h-80q11 35 32.5 66.5t53 55.5t72.5 38t91 14
q48 0 84 -13.5t60.5 -36.5t37.5 -55.5t13 -69.5h161l-12 -72h-158q-11 -42 -33.5 -79t-54.5 -64t-74.5 -42.5t-93.5 -15.5zM362 -79h-88l381 339l-15 -91zM39 740h701l-12 -70h-701z" />
    <glyph glyph-name="dvTT_R" horiz-adv-x="647" 
d="M211 -115h83l89 -199h-85zM36 740h702l-12 -70h-212l-34 -187h-100q-44 0 -84.5 -11.5t-73 -35t-55 -58.5t-31.5 -83q-7 -39 1.5 -72t29.5 -57t53.5 -37.5t73.5 -13.5q42 0 78.5 14t64.5 39t46.5 59.5t25.5 75.5h80q-17 -99 -77.5 -165.5t-154.5 -86.5l114 -153h-82
l-107 145h-4l-159 -145h-92l173 156q-40 12 -71 34t-51 53.5t-27 71t1 85.5q12 64 42 112.5t74 80t100 47.5t119 16h24l21 116h-409z" />
    <glyph glyph-name="dvTTH_R" horiz-adv-x="674" 
d="M211 -118h83l90 -199h-86zM293 118q39 0 75.5 13t65.5 36.5t49 56.5t27 72t-0.5 72.5t-28 58t-52 38.5t-72.5 14q-39 0 -75 -13t-65 -36.5t-49 -56t-27 -72.5q-7 -39 0.5 -72.5t28 -58t52 -38.5t71.5 -14zM286 44l-161 -147h-92l176 160q-40 10 -72 32.5t-52 54.5
t-27.5 72.5t0.5 87.5q10 53 35 96t60.5 74t80 49.5t93.5 24.5l22 122h-323l13 70h729l-13 -70h-324l-22 -123q46 -7 84.5 -27.5t63.5 -53.5t35 -76.5t1 -96.5q-8 -47 -29.5 -86.5t-52 -70t-69.5 -51t-83 -30.5l118 -158h-82z" />
    <glyph glyph-name="dvDD_R" horiz-adv-x="575" 
d="M169 -177h84l88 -199h-85zM40 740h627l-12 -70h-139l-33 -181h-170q-21 0 -43 -3.5t-41 -12.5t-33 -25.5t-19 -41.5q-4 -23 2 -39t19.5 -26t32 -14t39.5 -4h44q39 0 74.5 -9.5t61 -30t37 -53t3.5 -78.5q-11 -61 -54 -103.5t-117 -56.5l116 -155h-82l-109 147l-161 -147
h-92l176 159q-71 19 -105.5 67.5t-23.5 115.5h83q-9 -56 25 -92.5t112 -36.5q65 0 104.5 30t47.5 75q6 31 -2.5 52t-26 33.5t-41.5 17.5t-51 5h-40q-30 0 -61 7.5t-54 24.5t-35 44.5t-5 68.5q7 39 27 66t48 43.5t62 24t68 7.5h114l22 121h-407z" />
    <glyph glyph-name="dvDDH_R" 
d="M222 -155h84l89 -199h-86zM38 740h694l-13 -70h-184l-30 -172h-95q-49 0 -94.5 -13.5t-82.5 -40.5t-63 -67.5t-35 -95.5q-8 -46 0.5 -85t32.5 -67t62 -43.5t89 -15.5q36 0 68 9.5t57.5 27t42.5 42t23 54.5q8 45 -15 74t-67 29q-39 0 -69 -23t-37 -64q-1 -5 -1.5 -10
t-0.5 -10h-61q0 7 0.5 15t1.5 15q6 33 22 58.5t39.5 43.5t54 27t64.5 9q36 0 65 -12t47.5 -34t26 -52.5t1.5 -67.5q-14 -75 -70.5 -125.5t-144.5 -63.5l115 -153h-82l-109 147l-161 -147h-92l179 162q-44 12 -77.5 36.5t-55.5 58.5t-29.5 77.5t1.5 93.5q12 69 44 119.5
t77.5 84.5t102 50.5t118.5 16.5h39l20 112h-431z" />
    <glyph glyph-name="dvNN_R" horiz-adv-x="564" 
d="M658 337l-17 -97l-309 -272h-98zM41 740h688l-13 -70h-189l-37 -212q-8 -43 -25.5 -79.5t-45 -63.5t-65 -42t-83.5 -15t-80 15t-55 42t-28 63.5t1 79.5l36 212h-117zM277 329q51 0 85.5 34t43.5 88l39 219h-218l-39 -219q-9 -54 14.5 -88t74.5 -34z" />
    <glyph glyph-name="dvT_R" horiz-adv-x="426" 
d="M57 290q9 55 35.5 99.5t66.5 76t90.5 49t107.5 17.5q50 0 90 -14t68.5 -39t45.5 -59.5t21 -75.5l-409 -344h-109v4l438 355q-13 45 -51.5 75t-101.5 30q-37 0 -71.5 -11.5t-62.5 -33.5t-48 -54.5t-27 -74.5h-83zM38 740h614l-13 -70h-613z" />
    <glyph glyph-name="dvTH_R" horiz-adv-x="472" 
d="M645 351q-10 -60 -41.5 -108t-77.5 -81h1l-334 -242h-105l1 6l246 173h-7q-75 0 -129.5 24.5t-85 68t-36.5 103t15 129.5h97q39 0 77 6t69.5 21.5t54 43.5t30.5 72q8 46 -14.5 78t-73.5 32q-33 0 -58 -12t-42.5 -33.5t-26 -50.5t-8.5 -63h-76q1 49 17 91.5t45 73.5
t70.5 48.5t92.5 17.5q42 0 73.5 -13.5t51.5 -38.5t27.5 -59t0.5 -74q-9 -52 -35 -90t-64 -62.5t-87 -36.5t-104 -12h-51q-15 -93 34.5 -143.5t142.5 -50.5q41 0 80.5 13t72 37t55 57.5t30.5 74.5h72v0z" />
    <glyph glyph-name="dvD_R" horiz-adv-x="611" 
d="M368 -95h84l89 -200h-87zM40 740h662l-13 -70h-143l-32 -182h-148q-39 0 -75.5 -10t-65.5 -30t-49.5 -50.5t-27.5 -71.5q-12 -72 23.5 -116t106.5 -44q24 0 51 8t50 24.5t41 42t24 61.5h76l-55 -318h-82l34 194q-7 -10 -15.5 -18t-18.5 -16l-240 -201h-92l189 156
q-45 1 -81.5 17.5t-60.5 46.5t-33.5 72.5t-0.5 95.5q10 60 39 103t70 71t92 41.5t106 13.5h72l19 110h-435z" />
    <glyph glyph-name="dvDH_R" horiz-adv-x="428" 
d="M275 97q-49 0 -90 11t-69 33.5t-41 55.5t-5 78q6 34 21.5 59.5t36 42.5t44 27t46.5 13v3q-24 6 -44.5 19t-35 33.5t-20 49t0.5 64.5t23 66t42.5 51.5t58 33.5t70.5 12q43 0 74 -13.5t49 -38.5t21.5 -60.5t-8.5 -79.5h-64q14 54 -6 88t-72 34q-23 0 -42.5 -8t-35 -22
t-26 -33t-13.5 -40q-12 -58 20.5 -90t98.5 -32h68l-12 -68h-54q-69 0 -108 -29.5t-47 -76.5q-6 -30 3 -51.5t28.5 -35t46.5 -19.5t57 -6q46 0 85.5 12t69.5 33.5t49 51.5t25 66h74q-20 -112 -110 -175l-255 -220h-93l200 165q-14 -2 -29.5 -3t-31.5 -1z" />
    <glyph glyph-name="dvN_R" horiz-adv-x="510" 
d="M226 117q-45 0 -80.5 14.5t-58.5 41t-33 62.5t-2 79q8 46 30 81.5t54 59.5t73 36.5t88 12.5h388l-12 -70h-256q20 -23 29.5 -56t1.5 -77q-8 -43 -28.5 -77t-50 -58t-66.5 -36.5t-77 -12.5zM236 188q27 0 51.5 9.5t44 26t32.5 39t18 48.5q10 54 -19 88.5t-84 34.5
q-29 0 -54 -9t-45 -25.5t-33.5 -39.5t-18.5 -50q-9 -54 20.5 -88t87.5 -34zM650 305l-14 -87l-324 -292h-94zM39 740h689l-13 -70h-689z" />
    <glyph glyph-name="dvP_R" horiz-adv-x="366" 
d="M38 740h563l-12 -70h-369l-39 -225q-14 -81 14 -129t107 -48q36 0 65.5 12.5t52 33.5t36.5 49t20 60h69q-9 -56 -34 -101.5t-66 -75.5l-289 -258h-92l244 210q-5 -1 -9.5 -1h-9.5q-57 0 -97.5 18.5t-64.5 52.5t-31 80t3 102l39 220h-112z" />
    <glyph glyph-name="dvPH_R" horiz-adv-x="737" 
d="M293 268q34 0 61.5 12.5t48.5 33.5t35 49t19 59l44 248h-281l-39 -229q-15 -80 11 -126.5t101 -46.5zM38 740h944l-13 -70h-385l-38 -216q29 45 78 75t118 30q45 0 80 -16.5t57.5 -46.5t31 -72.5t-0.5 -93.5h-85q6 36 0 65t-22.5 49.5t-41.5 31.5t-56 11q-39 0 -69.5 -14
t-53 -36.5t-37.5 -51t-22 -58.5l-57 -327h-83l50 283q-17 -21 -36 -36l-288 -259h-92l247 214h-1q-51 0 -86.5 17t-56.5 48.5t-27 75.5t4 98l41 229h-112z" />
    <glyph glyph-name="dvB_R" horiz-adv-x="420" 
d="M38 740h600l-13 -70h-599zM277 91q-54 0 -97.5 17t-72.5 48.5t-41.5 75.5t-3.5 98t34 98t63.5 75.5t87 49t104.5 17.5q64 0 107.5 -21.5t69.5 -55.5t34.5 -76.5t1.5 -84.5q-10 -57 -39 -105.5t-76 -82.5l-230 -198h-87l178 147q-8 -1 -16.5 -1.5t-16.5 -0.5zM347 511
q-36 0 -70 -12t-63 -34l232 -241q20 24 33 51.5t18 53.5q6 33 0.5 65.5t-24 58.5t-50 42t-76.5 16zM285 150q40 0 73 12.5t59 33.5l-233 241q-40 -47 -52 -109q-7 -42 2 -75t30.5 -56t52.5 -35t68 -12z" />
    <glyph glyph-name="dvBH_R" horiz-adv-x="510" 
d="M228 191q51 0 84 34.5t44 97.5l12 66h-95q-51 0 -87.5 -24.5t-45.5 -68.5q-9 -48 16.5 -76.5t71.5 -28.5zM219 121q-41 0 -73 12.5t-53 35.5t-29 55t-2 71q7 39 27.5 69.5t50 51t66.5 31t78 10.5h96l16 91q11 60 -5.5 94.5t-66.5 34.5q-42 0 -72 -27.5t-39 -76.5
q-2 -9 -2 -17.5v-19.5h-81q0 21 3 41q6 38 23 70t43 54.5t59.5 35t74.5 12.5q46 0 76 -15.5t46 -44t19 -68t-5 -86.5l-14 -78h200l-12 -68h-199l-11 -61q-17 -99 -73 -153t-141 -54zM624 283l-13 -80l-325 -277h-95z" />
    <glyph glyph-name="dvM_R" horiz-adv-x="505" 
d="M204 197q51 0 84 35t44 98l14 79h-95q-51 0 -88.5 -28.5t-46.5 -77.5q-9 -48 16 -77t72 -29zM626 306l-15 -80l-352 -300h-95zM42 740h662l-12 -70h-224l-34 -193h222l-12 -68h-222l-13 -75q-17 -98 -72.5 -152t-142.5 -54q-41 0 -73 12.5t-52.5 35.5t-29 55t-1.5 71
q7 42 27.5 75t50.5 55t67.5 33.5t78.5 11.5h96l35 193h-364z" />
    <glyph glyph-name="dvY_R" horiz-adv-x="445" 
d="M39 740h652l-13 -70h-278l-14 -83q-17 -98 -76 -144t-155 -50q0 -2 -0.5 -3.5t-0.5 -3.5q-17 -97 30.5 -150.5t139.5 -53.5q42 0 79.5 13t67 37t49.5 57t27 73h77q-10 -62 -42.5 -113t-83.5 -85l-310 -224h-103l1 5l237 166h-8q-65 0 -115.5 19.5t-82.5 56.5t-44 89
t0 118q2 11 5 23l6 24h15q41 0 75.5 8t61.5 27t45 49.5t26 75.5l11 69h-292z" />
    <glyph glyph-name="dvL_R" horiz-adv-x="898" 
d="M474 -177h83l89 -199h-86zM818 309q-9 -53 -32 -97t-58 -76t-82.5 -50t-106.5 -17q-8 0 -18 0.5t-18 1.5l13 73q7 -1 14.5 -1.5t14.5 -0.5q39 0 70.5 12.5t55.5 35t40 54t23 68.5q6 33 2.5 61.5t-15.5 50t-34 33.5t-54 12q-69 0 -111 -51t-56 -132l-3 -15h-69l1 15
q8 40 6.5 73.5t-13 58t-34 38t-55.5 13.5q-34 0 -61 -12t-47.5 -33t-33.5 -49.5t-19 -62.5q-7 -37 -2.5 -68t21 -53.5t44 -35.5t67.5 -13q7 0 13.5 0.5t14.5 1.5l-13 -73q-9 -1 -15.5 -1.5t-14.5 -0.5q-59 0 -101 19t-67 52.5t-32.5 79t1.5 97.5q19 109 85 167.5t158 58.5
q40 0 68 -13t46 -33.5t27 -46.5t11 -52h2q10 24 26 47.5t37.5 43.5t49 33.5t62.5 18.5l23 129h-629l13 70h957l-13 -70h-246l-24 -133q66 -18 96.5 -78t14.5 -150zM493 16h112l134 -179h-82l-109 147l-161 -147h-92z" />
    <glyph glyph-name="dvV_R" horiz-adv-x="394" 
d="M38 740h596l-12 -70h-596zM285 162q43 0 77.5 15.5t59 39.5t39.5 53.5t20 58.5q6 30 1.5 60t-21 53.5t-46 38.5t-72.5 15q-35 0 -68.5 -11.5t-60.5 -33t-45.5 -52t-25.5 -69.5t0.5 -70.5t27 -53t48.5 -33t66 -11.5zM275 96q-56 0 -99.5 17t-72 48.5t-39.5 76t-1 98.5
q9 51 34 93t62.5 72t85.5 46t103 16q65 0 109 -22t69.5 -56.5t33 -77t0.5 -84.5q-8 -49 -35 -95.5t-75 -79.5l-232 -200h-90l184 150q-9 -1 -18 -1.5t-19 -0.5z" />
    <glyph glyph-name="dvSH_R" horiz-adv-x="498" 
d="M317 406l9 6q48 32 81.5 67t42.5 87q4 22 -0.5 42t-17 36t-32.5 25.5t-48 9.5q-25 0 -47.5 -9t-40 -24t-29 -35t-14.5 -41q-9 -52 13 -90t67 -65zM250 -5h-99l1 7l304 239l-146 86l-200 -137h-96l1 11l238 161q-63 42 -92 95t-16 121q6 37 25 68.5t47.5 54t65.5 35.5
t80 13q44 0 77 -14.5t54.5 -38.5t30 -56t2.5 -67q-9 -63 -46.5 -109.5t-105.5 -92.5l152 -90l-14 -74z" />
    <glyph glyph-name="dvSS_R" horiz-adv-x="387" 
d="M302 263q33 0 59 9t45.5 23t33.5 32t23 36l-256 242l-29 -162q-15 -85 19 -132.5t105 -47.5zM38 740h569l-13 -70h-376l324 -299q-8 -29 -26 -59t-45 -56l-312 -268h-92l246 204h-18q-55 0 -96.5 18t-67.5 51.5t-35 80t1 103.5l41 225h-112z" />
    <glyph glyph-name="dvS_R" horiz-adv-x="524" 
d="M623 242l-16 -94l-186 -205h-83zM39 740h673l-13 -70h-217l-16 -91q-10 -57 -34 -96t-56 -65h278l-11 -65h-484l-26 -151q-10 -61 11 -100t75 -39q27 0 46.5 10.5t32.5 28.5t21 42.5t13 52.5h72q-5 -44 -19 -81.5t-38 -65.5t-57.5 -43.5t-78.5 -15.5t-78.5 16t-53.5 45
t-26.5 68.5t1.5 86.5l36 204h93q86 0 136 45.5t64 122.5l16 91h-372z" />
    <glyph glyph-name="dvH_R" horiz-adv-x="586" 
d="M169 -209h83l89 -199h-85zM478 32q-10 -32 -31.5 -61t-52.5 -51.5t-71 -36t-88 -13.5q-56 0 -97.5 18.5t-67 51t-34 75.5t0.5 92q12 66 49.5 117.5t95.5 80.5q-32 15 -52 45.5t-12 76.5q11 64 62.5 95t122.5 31h129l21 117h-418l13 70h639l-13 -70h-141l-21 -117l-11 -61
h-183q-21 0 -41 -4t-36 -14t-27.5 -25.5t-15.5 -37.5q-6 -32 10 -52.5t46 -30.5q13 2 25.5 3.5t26.5 1.5q40 0 73 -10.5t56 -28t37 -41t17 -49.5l-131 -115h-79l135 116q-11 23 -39 43.5t-76 20.5q-37 0 -68 -13.5t-54.5 -36t-39.5 -53.5t-22 -65q-6 -35 -1 -64.5t21 -52
t43 -35t65 -12.5q31 0 57 8.5t46 22.5t34.5 30.5t22.5 33.5h75z" />
    <glyph glyph-name="dvLL_R" horiz-adv-x="990" 
d="M239 95q-48 0 -86 16.5t-63.5 46t-35.5 71t-1 91.5q9 52 33.5 94.5t59.5 72.5t78.5 46t90.5 16q39 0 69.5 -10.5t53 -29t37.5 -44t22 -54.5h2q16 29 39 54.5t51.5 44t62.5 29t73 10.5q47 0 85.5 -16t63.5 -46t35 -72.5t1 -94.5q-7 -40 -23.5 -74.5t-41 -62t-55 -47.5
t-65.5 -30l120 -160h-82l-109 147l-161 -147h-92l177 160q-47 16 -75 50t-35 79h-3q-14 -30 -36.5 -55.5t-51.5 -44t-64 -29.5t-74 -11zM261 167q34 0 64 11t53.5 31.5t39.5 48.5t22 62t0 63t-22.5 50t-42.5 32.5t-60 11.5q-33 0 -63 -11t-54 -32t-40.5 -50t-22.5 -65
q-6 -34 0.5 -62t23.5 -48t43 -31t59 -11zM648 167q33 0 63 11t54.5 31t41 48t22.5 62q12 72 -23.5 115t-102.5 43q-34 0 -64 -11.5t-53.5 -32.5t-40 -50t-22.5 -63q-12 -68 22 -110.5t103 -42.5zM31 740h1050l-13 -70h-1050z" />
    <glyph glyph-name="dvKx_R" horiz-adv-x="774" 
d="M470 206q-21 -32 -49 -53l-236 -199h-93l183 150h-2q-46 0 -82.5 16t-60 45.5t-32.5 71t0 93.5t32.5 94.5t57 72.5t76 46t89.5 16q69 0 108 -30t53 -75l38 216h-525l13 70h986l-13 -70h-382l-37 -215q28 45 74.5 74.5t112.5 29.5q45 0 81 -17t59.5 -47.5t32 -72.5
t-0.5 -92h-84q6 36 0 65t-22.5 49.5t-41.5 31.5t-56 11q-39 0 -69 -13.5t-52 -36t-36 -50.5t-20 -57l-58 -330h-80zM309 168q40 0 71.5 14.5t54 36.5t36.5 49t19 53l2 9q4 28 0 56t-18.5 50.5t-41 36.5t-67.5 14q-32 0 -61.5 -11t-54.5 -31t-42.5 -49.5t-23.5 -65.5
q-7 -38 -0.5 -68t23.5 -51t43.5 -32t59.5 -11zM13 9q-23 0 -35.5 15t-8.5 37q4 23 21.5 38t40.5 15q22 0 34.5 -15t8.5 -38q-4 -22 -21.5 -37t-39.5 -15z" />
    <glyph glyph-name="dvKHx_R" horiz-adv-x="674" 
d="M18 -122q-23 0 -35.5 15t-8.5 37q4 23 21.5 38t40.5 15q22 0 34.5 -15t8.5 -38q-4 -22 -21.5 -37t-39.5 -15zM584 200q65 0 110.5 38t56.5 102t-20.5 102t-96.5 38q-64 0 -109.5 -38t-56.5 -102q-12 -64 20 -102t96 -38zM39 740h856l-13 -70h-484l-23 -131
q-10 -57 -31.5 -95.5t-50 -62.5t-62.5 -34t-70 -10l-18 -103q-14 -74 23 -119t116 -45q31 0 57.5 8t48 21.5t38.5 31t30 36.5q-39 26 -56.5 69.5t-6.5 103.5q8 48 30.5 85.5t55.5 64t75.5 40.5t90.5 14t85 -14t61 -40.5t33 -64t1 -85.5q-9 -48 -32 -86t-56.5 -64.5
t-75.5 -40t-88 -13.5q-14 0 -27 1.5t-26 3.5q-19 -32 -46.5 -61t-62.5 -49l-200 -174h-92v5l159 135q-59 0 -104 17t-73.5 49t-39 77.5t-0.5 102.5l28 156h35q30 0 57 6.5t49.5 23.5t38.5 46t24 74l21 121h-288z" />
    <glyph glyph-name="dvGx_R" horiz-adv-x="480" 
d="M570 353l-14 -89l-333 -284h-99zM39 740h599l-13 -70h-194l-37 -217q-6 -36 -20.5 -68t-37.5 -55.5t-56.5 -37.5t-77.5 -14q-41 0 -70.5 13t-47.5 36.5t-23.5 55t1.5 68.5q2 8 3 14t3 14h81l-6 -31q-4 -18 -3 -36t8.5 -32t22 -22.5t37.5 -8.5q25 0 43 9t30 23t19 32
t10 36l38 221h-322zM45 56q-23 0 -35.5 15t-8.5 37q4 23 21.5 38t40.5 15q22 0 34.5 -15t8.5 -38q-4 -22 -21.5 -37t-39.5 -15z" />
    <glyph glyph-name="dvJx_R" horiz-adv-x="554" 
d="M695 369l-15 -88l-353 -315h-94zM40 740h721l-13 -70h-720zM245 200q-47 0 -81.5 15t-55.5 42t-28.5 64t0.5 81l18 99h85l-18 -97q-11 -59 11.5 -94.5t74.5 -35.5q53 0 89 35.5t46 94.5l17 97h316l-12 -68h-237l-5 -31q-8 -44 -26.5 -81t-47 -64t-65.5 -42t-81 -15z
M79 -9q-23 0 -35.5 15t-8.5 37q4 23 21.5 38t40.5 15q22 0 34.5 -15t8.5 -38q-4 -22 -21.5 -37t-39.5 -15z" />
    <glyph glyph-name="dvPHx_R" horiz-adv-x="773" 
d="M329 268q34 0 62 12.5t49 33.5t34.5 49t18.5 59l44 248h-280l-41 -229q-14 -80 12.5 -126.5t100.5 -46.5zM13 740h1004l-12 -70h-385l-38 -215q29 45 78 74.5t117 29.5q45 0 80.5 -16.5t58 -46.5t31 -72.5t-0.5 -93.5h-85q6 36 -0.5 65t-23 49.5t-41 31.5t-55.5 11
q-41 0 -72.5 -15t-54.5 -39.5t-37 -55.5t-19 -62v1l-56 -316h-83l50 283q-8 -10 -16.5 -19t-19.5 -17l-288 -259h-92l246 214q-51 0 -87 17t-57 48.5t-26.5 75.5t4.5 98l40 229h-172zM9 88q-23 0 -35.5 15t-8.5 37q4 23 21.5 38t40.5 15q22 0 34.5 -15t8.5 -38
q-4 -22 -21.5 -37t-39.5 -15z" />
    <glyph glyph-name="dvK_KA" horiz-adv-x="1752" 
d="M274 168q39 0 69 13.5t52.5 34.5t37 47t20.5 51l4 19q4 27 -0.5 54.5t-19.5 49.5t-41.5 36t-66.5 14q-32 0 -61.5 -11t-54 -31t-42 -49.5t-23.5 -65.5q-7 -38 -0.5 -68t24 -51t43.5 -32t59 -11zM596 670l-37 -210q27 43 71.5 71t109.5 28q52 0 90 -22t58 -62
q35 41 83.5 62.5t103.5 21.5q69 0 108 -29.5t53 -74.5l38 215h-678zM1191 201q-29 -45 -77.5 -74t-115.5 -29q-46 0 -83 16.5t-61 47t-33.5 73.5t0.5 97q0 2 0.5 3.5t0.5 3.5q9 68 -22.5 108t-92.5 40q-37 0 -65.5 -12.5t-49.5 -33.5t-34 -48t-20 -55l-60 -338h-80l35 201
q-29 -45 -77.5 -74t-115.5 -29q-46 0 -83 16.5t-61 47t-33.5 73.5t0.5 97q9 52 32.5 94t57 71.5t75.5 45.5t89 16q69 0 108 -29.5t53 -74.5l38 215h-490l12 70h1806l-13 -70h-477l-38 -213q29 44 75.5 73t112.5 29q45 0 81 -17t59 -47.5t31.5 -72.5t-0.5 -93
q-10 -55 -33 -97t-56 -71t-74 -44t-86 -15q-16 0 -31.5 1.5t-28.5 5.5l11 66q9 -2 20 -3t22 -1q30 0 58 10.5t51.5 31t40 50t23.5 67.5q6 36 -0.5 65t-22.5 49.5t-41.5 31.5t-56.5 11q-37 0 -66.5 -13t-51 -34t-36.5 -48t-22 -55l-59 -337h-80zM1032 168q39 0 69 13.5
t52.5 34.5t37 47t20.5 51l4 19q4 27 -0.5 54.5t-19.5 49.5t-41.5 36t-66.5 14q-32 0 -61.5 -11t-54 -31t-42 -49.5t-23.5 -65.5q-7 -38 -0.5 -68t24 -51t43.5 -32t59 -11z" />
    <glyph glyph-name="dvKx_KxA" horiz-adv-x="1754" 
d="M274 168q39 0 69 13.5t52.5 34.5t37 47t20.5 51l4 19q4 27 -0.5 54.5t-19.5 49.5t-41.5 36t-66.5 14q-32 0 -61.5 -11t-54 -31t-42 -49.5t-23.5 -65.5q-7 -38 -0.5 -68t24 -51t43.5 -32t59 -11zM188 -95q-24 0 -37.5 16t-9.5 39q4 24 23 40.5t43 16.5q23 0 36.5 -16.5
t9.5 -40.5q-4 -23 -23 -39t-42 -16zM947 -95q-24 0 -37.5 16t-9.5 39q4 24 23 40.5t43 16.5q23 0 36.5 -16.5t9.5 -40.5q-4 -23 -23 -39t-42 -16zM596 670l-37 -211q27 43 72.5 71.5t111.5 28.5q51 0 89 -22t58 -61q35 40 83 61.5t103 21.5q69 0 108 -29.5t53 -74.5l38 215
h-679zM1192 201q-29 -45 -77.5 -74t-115.5 -29q-46 0 -83 16.5t-61 47t-33.5 73.5t0.5 97q0 2 2 8q4 33 -2.5 60.5t-21.5 46.5t-38 29.5t-51 10.5q-38 0 -67 -12.5t-50.5 -33.5t-35 -48t-20.5 -55l-60 -338h-80l35 201q-29 -45 -77.5 -74t-115.5 -29q-46 0 -83 16.5t-61 47
t-33 73.5t0 97q9 52 32.5 94t57 71.5t75.5 45.5t89 16q69 0 108 -29.5t53 -74.5l38 215h-490l12 70h1807l-13 -70h-477l-38 -213q29 44 75.5 73t112.5 29q45 0 81 -17t59 -47.5t31.5 -72.5t-0.5 -93q-10 -55 -33 -97t-56 -71t-74 -44t-86 -15q-16 0 -31.5 1.5t-28.5 5.5
l11 66q9 -2 20 -3t22 -1q30 0 58 10.5t51.5 31t40 50t23.5 67.5q6 36 -0.5 65t-22.5 49.5t-41.5 31.5t-56.5 11q-37 0 -66.5 -13t-51 -34t-36.5 -48t-22 -55l-59 -337h-80zM1033 168q39 0 69 13.5t52.5 34.5t37 47t20.5 51l4 19q4 27 -0.5 54.5t-19.5 49.5t-41.5 36
t-66.5 14q-32 0 -61.5 -11t-54 -31t-42 -49.5t-23.5 -65.5q-7 -38 -0.5 -68t24 -51t43.5 -32t59 -11z" />
    <glyph glyph-name="dvK_KHA" horiz-adv-x="1677" 
d="M740 555q75 0 116.5 -41.5t46.5 -112.5q23 4 44.5 13.5t39.5 26.5t31 43.5t19 64.5l21 121h-462l-37 -212q26 42 71 69.5t110 27.5zM274 168q39 0 69 13.5t52.5 34.5t37 47t20.5 51l4 19q4 27 -0.5 54.5t-19.5 49.5t-41.5 36t-66.5 14q-32 0 -61.5 -11t-54 -31t-42 -49.5
t-23.5 -65.5q-7 -38 -0.5 -68t24 -51t43.5 -32t59 -11zM1462 218q-26 -35 -66.5 -58.5t-97.5 -23.5q-21 0 -37 4q-20 -30 -45.5 -56t-57 -45.5t-68.5 -30.5t-79 -11q-114 0 -170 64.5t-36 181.5l18 98q8 67 -23.5 106.5t-92.5 39.5q-37 0 -65.5 -12.5t-49.5 -33.5t-34 -48
t-20 -55l-60 -338h-80l35 201q-29 -45 -77.5 -74t-115.5 -29q-46 0 -83 16.5t-61 47t-33.5 73.5t0.5 97q9 52 32.5 94t57 71.5t75.5 45.5t89 16q69 0 108 -29.5t53 -74.5l38 215h-490l12 70h1731l-13 -70h-131l-117 -670h-84zM1325 201q35 0 63 12.5t48 33t32 45.5t16 49
t1 48.5t-16.5 45t-37.5 33t-60 12.5q-28 0 -54.5 -9t-47.5 -26.5t-36 -43t-21 -58.5q-6 -34 0.5 -60.5t22 -44.5t39 -27.5t51.5 -9.5zM1026 70q30 0 56 8t47.5 21.5t39 31t30.5 36.5q-37 27 -53.5 74.5t-5.5 109.5q7 45 28 81.5t51.5 61.5t67.5 38.5t78 12.5q59 -1 93 -24
t48 -58l36 207h-400l-23 -131q-10 -57 -31.5 -95.5t-50 -62.5t-62.5 -34t-70 -10l-18 -103q-14 -74 23 -119t116 -45z" />
    <glyph glyph-name="dvK_CA" horiz-adv-x="1373" 
d="M979 170q37 0 70.5 13.5t59.5 36.5t44.5 54t26.5 67l57 329h-641l-41 -231q29 43 79 70t122 28h325l-12 -67h-35q-36 0 -67 -11.5t-55 -32t-40.5 -48.5t-22.5 -62q-7 -35 0.5 -62t25.5 -46t45 -28.5t59 -9.5zM274 168q39 0 69 13.5t52.5 34.5t37 47t20.5 51l4 19
q4 27 -0.5 54.5t-19.5 49.5t-41.5 36t-66.5 14q-32 0 -61.5 -11t-54 -31t-42 -49.5t-23.5 -65.5q-7 -38 -0.5 -68t24 -51t43.5 -32t59 -11zM398 0l35 201q-29 -45 -77.5 -74t-115.5 -29q-46 0 -83 16.5t-61 47t-33.5 73.5t0.5 97q9 52 32.5 94t57 71.5t75.5 45.5t89 16
q69 0 108 -29.5t53 -74.5l38 215h-490l12 70h1427l-13 -70h-131l-118 -670h-83l36 206q-36 -49 -91 -77.5t-120 -28.5q-44 0 -80.5 14t-60.5 40t-34.5 63.5t-1.5 84.5q10 57 41.5 100t79.5 68h-168q-42 0 -74.5 -13.5t-56 -35t-37.5 -50t-20 -58.5l-55 -313h-80z" />
    <glyph glyph-name="dvK_JA" horiz-adv-x="1591" 
d="M274 168q39 0 69 13.5t52.5 34.5t37 47t20.5 51l4 19q4 27 -0.5 54.5t-19.5 49.5t-41.5 36t-66.5 14q-32 0 -61.5 -11t-54 -31t-42 -49.5t-23.5 -65.5q-7 -38 -0.5 -68t24 -51t43.5 -32t59 -11zM990 204q53 0 88.5 36t46.5 94l29 165h272l30 171h-860l-37 -211
q27 43 72.5 71.5t111.5 28.5q47 0 81.5 -17t55 -45.5t27.5 -66.5t-1 -81l-3 -15q-8 -58 14 -94t73 -36zM478 0h-80l35 201q-29 -45 -77.5 -74t-115.5 -29q-46 0 -83 16.5t-61 47t-33.5 73.5t0.5 97q9 52 32.5 94t57 71.5t75.5 45.5t89 16q69 0 108 -29.5t53 -74.5l38 215
h-490l12 70h1645l-13 -70h-130l-119 -670h-83l75 427h-190l-17 -95q-8 -44 -27.5 -81t-49 -64t-68.5 -41.5t-85 -14.5q-45 0 -78 15t-53 40.5t-26.5 60t-0.5 73.5l2 12q6 33 1.5 61.5t-18.5 49.5t-38 32.5t-57 11.5q-40 0 -70 -14.5t-51 -38t-34 -52.5t-18 -59z" />
    <glyph glyph-name="dvK_TTA" horiz-adv-x="1406" 
d="M559 459q27 43 72 71.5t108 28.5q57 0 97 -25.5t58 -72.5q46 47 111 70t142 23h24l21 116h-596zM274 168q39 0 69 13.5t52.5 34.5t37 47t20.5 51l4 19q4 27 -0.5 54.5t-19.5 49.5t-41.5 36t-66.5 14q-32 0 -61.5 -11t-54 -31t-42 -49.5t-23.5 -65.5q-7 -38 -0.5 -68
t24 -51t43.5 -32t59 -11zM707 487q-37 0 -65.5 -12.5t-49 -33.5t-34 -48t-20.5 -55l-60 -338h-80l35 201q-29 -45 -77.5 -74t-115.5 -29q-46 0 -83 16.5t-61 47t-33.5 73.5t0.5 97q9 52 32.5 94t57 71.5t75.5 45.5t89 16q69 0 108 -29.5t53 -74.5l38 215h-490l12 70h1460
l-12 -70h-212l-34 -187h-100q-44 0 -84.5 -11.5t-73 -35t-55 -58.5t-31.5 -83q-7 -39 1.5 -72t29.5 -57t53.5 -37.5t73.5 -13.5q42 0 78.5 14t64.5 39t46.5 59.5t25.5 75.5h80q-10 -58 -36 -106t-65.5 -82t-91 -53t-112.5 -19q-59 0 -106 18.5t-78.5 52.5t-44.5 80.5
t-3 103.5q3 19 9 39q5 36 -1.5 64t-22 47t-39 29t-51.5 10z" />
    <glyph glyph-name="dvK_NNA" horiz-adv-x="1588" 
d="M558 455q27 42 72 69.5t110 27.5q66 0 107 -38l28 156h-279zM274 168q39 0 69 13.5t52.5 34.5t37 47t20.5 51l4 19q4 27 -0.5 54.5t-19.5 49.5t-41.5 36t-66.5 14q-32 0 -61.5 -11t-54 -31t-42 -49.5t-23.5 -65.5q-7 -38 -0.5 -68t24 -51t43.5 -32t59 -11zM993 254
q51 0 85.5 33.5t43.5 87.5l52 295h-217l-52 -295q-10 -54 13.5 -87.5t74.5 -33.5zM478 0h-80l35 201q-29 -45 -77.5 -74t-115.5 -29q-46 0 -83 16.5t-61 47t-33.5 73.5t0.5 97q9 52 32.5 94t57 71.5t75.5 45.5t89 16q69 0 108 -29.5t53 -74.5l38 215h-490l12 70h1640
l-12 -70h-132l-118 -670h-83l118 670h-195l-51 -287q-8 -43 -25.5 -79.5t-45 -63.5t-64 -42t-82.5 -15q-44 0 -77.5 14t-55.5 39t-30.5 60.5t-1.5 77.5q-2 53 -33 83t-83 30q-40 0 -70 -15t-51 -38.5t-33.5 -53t-17.5 -57.5z" />
    <glyph glyph-name="dvK_TA" horiz-adv-x="1094" 
d="M38 740h1147l-12 -70h-501l-50 -287q30 46 80 76.5t122 30.5q46 0 83.5 -17t61.5 -48t34 -73.5t1 -93.5q-10 -57 -34 -101.5t-58.5 -75t-78.5 -46.5t-93 -16q-22 0 -38 2t-29 5l12 67q8 -3 19.5 -4t28.5 -1q34 0 65 11.5t56 34t42 54t24 72.5q6 36 -1.5 65t-24.5 49.5
t-43.5 32t-58.5 11.5q-43 0 -76.5 -14.5t-57.5 -38t-39 -53.5t-20 -61l-44 -251h-81l73 413h-134q-92 0 -155.5 -42.5t-78.5 -129.5q-15 -81 25 -126.5t131 -45.5h21l-12 -67h-33q-57 0 -102 15.5t-74 45t-40 72.5t-1 99q11 66 44.5 110t78.5 70h-172l13 71h502l32 185h-566
z" />
    <glyph glyph-name="dvKx_TA" horiz-adv-x="1428" 
d="M735 552q60 0 99.5 -30t46.5 -93q45 35 103.5 52t126.5 17h150l31 172h-696l-38 -215q27 42 71.5 69.5t105.5 27.5zM274 168q39 0 69 13.5t52.5 34.5t37 47t20.5 51l4 19q4 27 -0.5 54.5t-19.5 49.5t-41.5 36t-66.5 14q-32 0 -61.5 -11t-54 -31t-42 -49.5t-23.5 -65.5
q-7 -38 -0.5 -68t24 -51t43.5 -32t59 -11zM188 -95q-24 0 -37.5 16t-9.5 39q4 24 23 40.5t43 16.5q23 0 36.5 -16.5t9.5 -40.5q-4 -23 -23 -39t-42 -16zM478 0h-80l35 201q-29 -45 -77.5 -74t-115.5 -29q-46 0 -83 16.5t-61 47t-33.5 73.5t0.5 97q9 52 32.5 94t57 71.5
t75.5 45.5t89 16q69 0 108 -29.5t53 -74.5l38 215h-490l12 70h1482l-13 -70h-132l-117 -670h-84l75 426h-146q-94 0 -157 -43.5t-80 -134.5q-15 -85 25 -132t131 -47h21l-11 -67h-26q-56 0 -102 15.5t-76.5 47t-43.5 78t-2 108.5q3 17 7 32.5t10 29.5q9 44 5 76.5t-18 53.5
t-36.5 31t-50.5 10q-36 0 -64 -14t-48.5 -37t-33 -51.5t-18.5 -58.5z" />
    <glyph glyph-name="dvK_T_YA" horiz-adv-x="1863" 
d="M1078 517q76 0 117 -22.5t58 -52.5q72 5 118 41t61 118l12 69h-848l-38 -214q28 43 72.5 71t105.5 28q60 0 98 -26t49 -74q40 32 90 47t105 15zM274 168q39 0 69 13.5t52.5 34.5t37 47t20.5 51l4 19q4 27 -0.5 54.5t-19.5 49.5t-41.5 36t-66.5 14q-32 0 -61.5 -11
t-54 -31t-42 -49.5t-23.5 -65.5q-7 -38 -0.5 -68t24 -51t43.5 -32t59 -11zM1447 182q42 0 80.5 14t69 39t51 60t27.5 77v-1l53 299h-202l-14 -83q-17 -97 -76 -143.5t-155 -50.5q0 -2 -0.5 -3.5t-0.5 -3.5q-17 -94 28 -149t139 -55zM478 0h-80l35 201q-29 -45 -77.5 -74
t-115.5 -29q-46 0 -83 16.5t-61 47t-33.5 73.5t0.5 97q9 52 32.5 94t57 71.5t75.5 45.5t89 16q69 0 108 -29.5t53 -74.5l38 215h-490l12 70h1917l-13 -70h-131l-118 -670h-83l38 216q-34 -45 -90.5 -74.5t-134.5 -29.5q-60 0 -105.5 18.5t-75.5 53t-42 83t-4 108.5
q-2 11 -8 23t-19.5 22.5t-37 17.5t-59.5 7q-37 0 -71 -11t-61 -33t-46 -55.5t-26 -78.5q-15 -85 24.5 -132t130.5 -47h21l-11 -67h-31q-57 0 -102.5 16.5t-74.5 48t-41 78.5t-1 108q4 20 8.5 37.5t11.5 34.5q14 68 -14 105t-87 37q-35 0 -63.5 -14.5t-49.5 -37.5t-35 -52
t-19 -59z" />
    <glyph glyph-name="dvK_T_RA" horiz-adv-x="1457" 
d="M1323 670h-727l-38 -214q29 45 75 74t110 29q55 0 94.5 -29.5t54.5 -85.5q40 42 94 64.5t117 22.5q37 0 66 -8.5t50.5 -22.5t37 -32t24.5 -37zM274 168q39 0 69 13.5t52.5 34.5t37 47t20.5 51l4 19q4 27 -0.5 54.5t-19.5 49.5t-41.5 36t-66.5 14q-32 0 -61.5 -11t-54 -31
t-42 -49.5t-23.5 -65.5q-7 -38 -0.5 -68t24 -51t43.5 -32t59 -11zM708 487q-37 0 -66 -14t-51 -36.5t-35.5 -50.5t-19.5 -57l-58 -329h-80l35 201q-29 -45 -77.5 -74t-115.5 -29q-46 0 -83 16.5t-61 47t-33.5 73.5t0.5 97q9 52 32.5 94t57 71.5t75.5 45.5t89 16
q69 0 108 -29.5t53 -74.5l38 215h-490l12 70h1511l-12 -70h-132l-117 -670h-81l48 269l-318 -269h-108v4l436 352q-12 47 -52.5 77.5t-103.5 30.5q-36 0 -70 -11.5t-62 -33.5t-47.5 -54.5t-26.5 -74.5h-83v2q8 49 3 85.5t-21 61t-40 36.5t-54 12z" />
    <glyph glyph-name="dvK_T_VA" horiz-adv-x="1801" 
d="M746 555q59 0 98.5 -32.5t47.5 -86.5q44 32 100 47t120 15h165q35 32 80 48.5t96 16.5q71 0 114 -28.5t63 -72.5l36 208h-1070l-38 -215q29 43 75.5 71.5t112.5 28.5zM274 168q39 0 69 13.5t52.5 34.5t37 47t20.5 51l4 19q4 27 -0.5 54.5t-19.5 49.5t-41.5 36t-66.5 14
q-32 0 -61.5 -11t-54 -31t-42 -49.5t-23.5 -65.5q-7 -38 -0.5 -68t24 -51t43.5 -32t59 -11zM1409 163q44 0 78 15t59 39t40 53.5t20 57.5q6 30 1.5 60t-21 53.5t-46 38.5t-73.5 15q-35 0 -67.5 -11.5t-58.5 -33t-44.5 -52t-25.5 -68.5q-7 -39 0.5 -70t26 -52.5t47 -33
t64.5 -11.5zM1748 670l-118 -670h-81l35 199q-32 -45 -83 -74t-120 -29q-50 0 -90 16.5t-65.5 48t-35.5 76.5t1 101q9 50 30 88h-117q-94 0 -157 -43.5t-80 -134.5q-15 -85 25 -132t131 -47h21l-11 -67h-26q-56 0 -102 15.5t-76.5 47t-43.5 78t-2 108.5q9 48 27 87
q7 33 2.5 60t-18 46.5t-35 30.5t-47.5 11q-40 0 -70.5 -14.5t-52.5 -37.5t-35.5 -52t-18.5 -59l-57 -323h-80l35 201q-29 -45 -77.5 -74t-115.5 -29q-46 0 -83 16.5t-61 47t-33.5 73.5t0.5 97q9 52 32.5 94t57 71.5t75.5 45.5t89 16q69 0 108 -29.5t53 -74.5l38 215h-490
l12 70h1854l-13 -70h-131z" />
    <glyph glyph-name="dvK_THA" horiz-adv-x="1511" 
d="M274 168q39 0 69 13.5t52.5 34.5t37 47t20.5 51l4 19q4 27 -0.5 54.5t-19.5 49.5t-41.5 36t-66.5 14q-32 0 -61.5 -11t-54 -31t-42 -49.5t-23.5 -65.5q-7 -38 -0.5 -68t24 -51t43.5 -32t59 -11zM748 555q65 0 104.5 -35.5t47.5 -95.5h34q38 0 76 6t70 21.5t55 43t31 71.5
q8 47 -14.5 79t-73.5 32q-27 0 -45 -7h-6h-431l-38 -216q29 43 76 72t114 29zM1298 229q-14 -24 -37.5 -47.5t-54 -42t-69 -29.5t-82.5 -11q-62 0 -110 19t-78.5 54.5t-42.5 85.5t-1 113q0 2 1 3q-2 52 -33 82.5t-80 30.5q-38 0 -67 -13.5t-50.5 -35t-35.5 -48t-21 -53.5
l-59 -337h-80l35 201q-29 -45 -77.5 -74t-115.5 -29q-46 0 -83 16.5t-61 47t-33.5 73.5t0.5 97q9 52 32.5 94t57 71.5t75.5 45.5t89 16q69 0 108 -29.5t53 -74.5l38 215h-490l12 70h996q25 9 57 9q42 0 74 -13.5t52 -38.5t27 -59t0 -74q-9 -52 -35 -90t-64 -62.5t-87 -36.5
t-104 -12h-51q-15 -88 30.5 -141t144.5 -53q41 0 81.5 14t74 41t57.5 66t33 89l63 361h216l-12 -70h-132l-118 -670h-84z" />
    <glyph glyph-name="dvK_DA" horiz-adv-x="1367" 
d="M558 456q29 45 74 74t108 29q53 0 90.5 -23t57.5 -65q45 46 107 67.5t132 21.5h72l19 110h-622zM274 168q39 0 69 13.5t52.5 34.5t37 47t20.5 51l4 19q4 27 -0.5 54.5t-19.5 49.5t-41.5 36t-66.5 14q-32 0 -61.5 -11t-54 -31t-42 -49.5t-23.5 -65.5q-7 -38 -0.5 -68
t24 -51t43.5 -32t59 -11zM1139 -16l34 194q-27 -36 -72.5 -57.5t-99.5 -21.5q-46 0 -83.5 16t-62.5 46t-34.5 73t-0.5 97q0 2 0.5 3t0.5 3q5 34 -1 62t-21 47.5t-38 30t-53 10.5q-35 0 -63.5 -14t-50 -35.5t-36 -49t-21.5 -54.5l-59 -334h-80l35 201q-29 -45 -77.5 -74
t-115.5 -29q-46 0 -83 16.5t-61 47t-33.5 73.5t0.5 97q9 52 32.5 94t57 71.5t75.5 45.5t89 16q69 0 108 -29.5t53 -74.5l38 215h-490l12 70h1420l-13 -70h-143l-32 -182h-148q-39 0 -75.5 -10t-65.5 -30t-49.5 -50.5t-27.5 -71.5q-12 -72 23.5 -116t106.5 -44q24 0 51 8
t50 24.5t41 42t24 61.5h76l-55 -318h-82z" />
    <glyph glyph-name="dvK_NA" horiz-adv-x="1553" 
d="M743 559q62 0 99.5 -28t51.5 -80q32 26 74.5 39.5t91.5 13.5h328l29 166h-821l-38 -215q29 45 75 74.5t110 29.5zM274 168q39 0 69 13.5t52.5 34.5t37 47t20.5 51l4 19q4 27 -0.5 54.5t-19.5 49.5t-41.5 36t-66.5 14q-32 0 -61.5 -11t-54 -31t-42 -49.5t-23.5 -65.5
q-7 -38 -0.5 -68t24 -51t43.5 -32t59 -11zM999 188q27 0 51.5 9.5t44 26t32.5 39t18 48.5q10 54 -19 88.5t-84 34.5q-29 0 -54 -9t-45 -25.5t-33.5 -39.5t-18.5 -50q-9 -54 20.5 -88t87.5 -34zM708 487q-38 0 -68 -15t-51.5 -38.5t-35 -52t-18.5 -55.5l-57 -326h-80l35 201
q-29 -45 -77.5 -74t-115.5 -29q-46 0 -83 16.5t-61 47t-33.5 73.5t0.5 97q9 52 32.5 94t57 71.5t75.5 45.5t89 16q69 0 108 -29.5t53 -74.5l38 215h-490l12 70h1606l-12 -70h-132l-118 -670h-83l77 434h-196q20 -23 29.5 -56t1.5 -77q-7 -43 -27.5 -77t-50.5 -58t-67 -36.5
t-77 -12.5q-45 0 -80.5 14.5t-58.5 41t-33 62.5t-2 79q1 6 2 11.5t3 10.5q5 35 -0.5 63t-20.5 47.5t-38 30t-53 10.5z" />
    <glyph glyph-name="dvK_PA" horiz-adv-x="1366" 
d="M558 455q28 43 72 71.5t105 28.5q53 0 89 -24l25 139h-253zM274 168q39 0 69 13.5t52.5 34.5t37 47t20.5 51l4 19q4 27 -0.5 54.5t-19.5 49.5t-41.5 36t-66.5 14q-32 0 -61.5 -11t-54 -31t-42 -49.5t-23.5 -65.5q-7 -38 -0.5 -68t24 -51t43.5 -32t59 -11zM1014 268
q34 0 62 11t49.5 29.5t36 44t22.5 54.5l46 263h-299l-39 -225q-14 -81 16 -129t106 -48zM478 0h-80l35 201q-29 -45 -77.5 -74t-115.5 -29q-46 0 -83 16.5t-61 47t-33.5 73.5t0.5 97q9 52 32.5 94t57 71.5t75.5 45.5t89 16q69 0 108 -29.5t53 -74.5l38 215h-490l12 70h1419
l-12 -70h-132l-117 -670h-83l49 279q-30 -38 -74.5 -60t-101.5 -22q-92 0 -139 53.5t-44 143.5q-6 44 -32.5 68.5t-68.5 24.5q-36 0 -64.5 -15t-49.5 -39t-34.5 -53t-18.5 -57z" />
    <glyph glyph-name="dvK_P_RA" horiz-adv-x="1366" 
d="M558 455q28 43 72 71.5t105 28.5q54 0 89 -24l25 139h-253zM274 168q39 0 69 13.5t52.5 34.5t37 47t20.5 51l4 19q4 27 -0.5 54.5t-19.5 49.5t-41.5 36t-66.5 14q-32 0 -61.5 -11t-54 -31t-42 -49.5t-23.5 -65.5q-7 -38 -0.5 -68t24 -51t43.5 -32t59 -11zM1012 268
q33 0 62 11.5t51.5 31t37.5 45.5t22 55l46 259h-299l-39 -225q-14 -81 15 -129t104 -48zM1163 284q-19 -22 -40 -39l-291 -257h-92l248 213h-7q-90 0 -135 50.5t-43 136.5q-5 47 -31.5 73t-69.5 26q-36 0 -64.5 -15t-49.5 -39t-34.5 -53t-18.5 -57l-57 -323h-80l35 201
q-29 -45 -77.5 -74t-115.5 -29q-46 0 -83 16.5t-61 47t-33.5 73.5t0.5 97q9 52 32.5 94t57 71.5t75.5 45.5t89 16q69 0 108 -29.5t53 -74.5l38 215h-490l12 70h1419l-12 -70h-131l-118 -670h-83z" />
    <glyph glyph-name="dvK_PHA" horiz-adv-x="1716" 
d="M558 455q28 43 72.5 71.5t107.5 28.5q62 0 104 -28l26 143h-272zM274 168q39 0 69 13.5t52.5 34.5t37 47t20.5 51l4 19q4 27 -0.5 54.5t-19.5 49.5t-41.5 36t-66.5 14q-32 0 -61.5 -11t-54 -31t-42 -49.5t-23.5 -65.5q-7 -38 -0.5 -68t24 -51t43.5 -32t59 -11zM1023 268
q34 0 61.5 12.5t48.5 33.5t35 49t19 59l44 248h-281l-39 -229q-15 -80 11 -126.5t101 -46.5zM704 487q-35 0 -62.5 -13.5t-48.5 -35t-35 -48.5t-21 -53l-59 -337h-80l35 201q-29 -45 -77.5 -74t-115.5 -29q-46 0 -83 16.5t-61 47t-33.5 73.5t0.5 97q9 52 32.5 94t57 71.5
t75.5 45.5t89 16q69 0 108 -29.5t53 -74.5l38 215h-490l12 70h1769l-13 -70h-480l-38 -216q29 45 78 75t118 30q45 0 80 -16.5t57.5 -46t31 -71t-0.5 -91.5q-10 -55 -33.5 -98t-56.5 -73t-74 -45.5t-86 -15.5q-36 0 -63 8l11 65q22 -5 44 -5q31 0 59.5 11t51.5 31.5t39 50
t23 67.5q6 36 0 65t-22.5 49.5t-41.5 31.5t-56 11q-39 0 -69.5 -14t-53 -36.5t-37.5 -51t-22 -58.5l-57 -327h-83l49 279q-29 -38 -72 -60t-97 -22q-89 0 -132.5 51.5t-39.5 139.5q-5 46 -35.5 72.5t-81.5 26.5z" />
    <glyph glyph-name="dvKx_PHA" horiz-adv-x="1716" 
d="M558 455q28 43 72.5 71.5t107.5 28.5q62 0 104 -28l26 143h-272zM274 168q39 0 69 13.5t52.5 34.5t37 47t20.5 51l4 19q4 27 -0.5 54.5t-19.5 49.5t-41.5 36t-66.5 14q-32 0 -61.5 -11t-54 -31t-42 -49.5t-23.5 -65.5q-7 -38 -0.5 -68t24 -51t43.5 -32t59 -11zM1023 268
q34 0 61.5 12.5t48.5 33.5t35 49t19 59l44 248h-281l-39 -229q-15 -80 11 -126.5t101 -46.5zM704 487q-35 0 -62.5 -13.5t-48.5 -35t-35 -48.5t-21 -53l-59 -337h-80l35 201q-29 -45 -77.5 -74t-115.5 -29q-46 0 -83 16.5t-61 47t-33.5 73.5t0.5 97q9 52 32.5 94t57 71.5
t75.5 45.5t89 16q69 0 108 -29.5t53 -74.5l38 215h-490l12 70h1769l-13 -70h-480l-38 -216q29 45 78 75t118 30q45 0 80 -16.5t57.5 -46t31 -71t-0.5 -91.5q-10 -55 -33.5 -98t-56.5 -73t-74 -45.5t-86 -15.5q-36 0 -63 8l11 65q22 -5 44 -5q31 0 59.5 11t51.5 31.5t39 50
t23 67.5q6 36 0 65t-22.5 49.5t-41.5 31.5t-56 11q-39 0 -69.5 -14t-53 -36.5t-37.5 -51t-22 -58.5l-57 -327h-83l49 279q-29 -38 -72 -60t-97 -22q-89 0 -132.5 51.5t-39.5 139.5q-5 46 -35.5 72.5t-81.5 26.5zM188 -95q-24 0 -37.5 16t-9.5 39q4 24 23 40.5t43 16.5
q23 0 36.5 -16.5t9.5 -40.5q-4 -23 -23 -39t-42 -16z" />
    <glyph glyph-name="dvKx_PHxA" horiz-adv-x="1716" 
d="M188 -95q-24 0 -37.5 16t-9.5 39q4 24 23 40.5t43 16.5q23 0 36.5 -16.5t9.5 -40.5q-4 -23 -23 -39t-42 -16zM929 9q-24 0 -37.5 16t-9.5 39q4 24 23 40.5t43 16.5q23 0 36.5 -16.5t9.5 -40.5q-4 -23 -23 -39t-42 -16zM558 455q28 43 72.5 71.5t107.5 28.5q62 0 104 -28
l26 143h-272zM274 168q39 0 69 13.5t52.5 34.5t37 47t20.5 51l4 19q4 27 -0.5 54.5t-19.5 49.5t-41.5 36t-66.5 14q-32 0 -61.5 -11t-54 -31t-42 -49.5t-23.5 -65.5q-7 -38 -0.5 -68t24 -51t43.5 -32t59 -11zM1023 268q34 0 61.5 12.5t48.5 33.5t35 49t19 59l44 248h-281
l-39 -229q-15 -80 11 -126.5t101 -46.5zM704 487q-35 0 -62.5 -13.5t-48.5 -35t-35 -48.5t-21 -53l-59 -337h-80l35 201q-29 -45 -77.5 -74t-115.5 -29q-46 0 -83 16.5t-61 47t-33.5 73.5t0.5 97q9 52 32.5 94t57 71.5t75.5 45.5t89 16q69 0 108 -29.5t53 -74.5l38 215h-490
l12 70h1769l-13 -70h-480l-38 -216q29 45 78 75t118 30q45 0 80 -16.5t57.5 -46t31 -71t-0.5 -91.5q-10 -55 -33.5 -98t-56.5 -73t-74 -45.5t-86 -15.5q-36 0 -63 8l11 65q22 -5 44 -5q31 0 59.5 11t51.5 31.5t39 50t23 67.5q6 36 0 65t-22.5 49.5t-41.5 31.5t-56 11
q-39 0 -69.5 -14t-53 -36.5t-37.5 -51t-22 -58.5l-57 -327h-83l49 279q-29 -38 -72 -60t-97 -22q-89 0 -132.5 51.5t-39.5 139.5q-5 46 -35.5 72.5t-81.5 26.5z" />
    <glyph glyph-name="dvKx_BA" horiz-adv-x="1447" 
d="M558 456q29 45 75 74t109 29q54 0 90 -23t53 -65q39 47 95 72.5t122 25.5q73 0 116.5 -31t60.5 -76l36 208h-719zM274 168q39 0 69 13.5t52.5 34.5t37 47t20.5 51l4 19q4 27 -0.5 54.5t-19.5 49.5t-41.5 36t-66.5 14q-32 0 -61.5 -11t-54 -31t-42 -49.5t-23.5 -65.5
q-7 -38 -0.5 -68t24 -51t43.5 -32t59 -11zM188 -95q-24 0 -37.5 16t-9.5 39q4 24 23 40.5t43 16.5q23 0 36.5 -16.5t9.5 -40.5q-4 -23 -23 -39t-42 -16zM1233 199q-31 -46 -84 -77t-125 -31q-50 0 -91.5 17.5t-69 49t-39 75t-2.5 96.5h-1q13 74 -19 116t-96 42
q-35 0 -63 -13t-49.5 -35t-35.5 -49.5t-21 -56.5l-59 -333h-80l35 201q-29 -45 -77.5 -74t-115.5 -29q-46 0 -83 16.5t-61 47t-33.5 73.5t0.5 97q9 52 32.5 94t57 71.5t75.5 45.5t89 16q69 0 108 -29.5t53 -74.5l38 215h-490l12 70h1501l-12 -70h-132l-117 -670h-80z
M1110 512q-74 0 -133 -45l233 -240q20 24 32.5 51.5t17.5 53.5q6 33 0 65t-24 57.5t-49.5 41.5t-76.5 16zM1049 153q40 0 72.5 12.5t58.5 32.5l-233 240q-20 -22 -33 -49t-18 -59q-8 -42 1 -75t30.5 -55.5t52.5 -34.5t69 -12z" />
    <glyph glyph-name="dvK_MA" horiz-adv-x="1555" 
d="M742 555q69 0 109 -35t49 -97q27 16 58.5 23.5t65.5 7.5h95l38 216h-561l-38 -216q28 44 74 72.5t110 28.5zM274 168q39 0 69 13.5t52.5 34.5t37 47t20.5 51l4 19q4 27 -0.5 54.5t-19.5 49.5t-41.5 36t-66.5 14q-32 0 -61.5 -11t-54 -31t-42 -49.5t-23.5 -65.5
q-7 -38 -0.5 -68t24 -51t43.5 -32t59 -11zM965 172q51 0 83.5 34.5t43.5 97.5l14 81h-92q-52 0 -90 -28t-46 -79q-9 -49 16.5 -77.5t70.5 -28.5zM1418 670h-183l-38 -216h183zM478 0h-80l35 201q-29 -45 -77.5 -74t-115.5 -29q-46 0 -83 16.5t-61 47t-33.5 73.5t0.5 97
q9 52 32.5 94t57 71.5t75.5 45.5t89 16q69 0 108 -29.5t53 -74.5l38 215h-490l12 70h1607l-12 -70h-131l-118 -670h-84l68 385h-183l-14 -77q-17 -100 -72.5 -153.5t-142.5 -53.5q-42 0 -74 13t-52.5 36t-28.5 56t-1 72q3 18 8.5 34.5t13.5 31.5q7 66 -24.5 104.5
t-90.5 38.5q-38 0 -67.5 -15t-51 -39t-35 -53t-18.5 -57z" />
    <glyph glyph-name="dvKx_MA" horiz-adv-x="1555" 
d="M742 555q69 0 109 -35t49 -97q27 16 58.5 23.5t65.5 7.5h95l38 216h-561l-38 -216q28 44 74 72.5t110 28.5zM274 168q39 0 69 13.5t52.5 34.5t37 47t20.5 51l4 19q4 27 -0.5 54.5t-19.5 49.5t-41.5 36t-66.5 14q-32 0 -61.5 -11t-54 -31t-42 -49.5t-23.5 -65.5
q-7 -38 -0.5 -68t24 -51t43.5 -32t59 -11zM965 172q51 0 83.5 34.5t43.5 97.5l14 81h-92q-52 0 -90 -28t-46 -79q-9 -49 16.5 -77.5t70.5 -28.5zM1418 670h-183l-38 -216h183zM478 0h-80l35 201q-29 -45 -77.5 -74t-115.5 -29q-46 0 -83 16.5t-61 47t-33.5 73.5t0.5 97
q9 52 32.5 94t57 71.5t75.5 45.5t89 16q69 0 108 -29.5t53 -74.5l38 215h-490l12 70h1607l-12 -70h-131l-118 -670h-84l68 385h-183l-14 -77q-17 -100 -72.5 -153.5t-142.5 -53.5q-42 0 -74 13t-52.5 36t-28.5 56t-1 72q3 18 8.5 34.5t13.5 31.5q7 66 -24.5 104.5
t-90.5 38.5q-38 0 -67.5 -15t-51 -39t-35 -53t-18.5 -57zM188 -95q-24 0 -37.5 16t-9.5 39q4 24 23 40.5t43 16.5q23 0 36.5 -16.5t9.5 -40.5q-4 -23 -23 -39t-42 -16z" />
    <glyph glyph-name="dvK_YA" horiz-adv-x="1487" 
d="M742 555q67 0 104 -31.5t48 -79.5q64 8 106 43.5t56 113.5l12 69h-472l-38 -216q28 44 74 72.5t110 28.5zM274 168q39 0 69 13.5t52.5 34.5t37 47t20.5 51l4 19q4 27 -0.5 54.5t-19.5 49.5t-41.5 36t-66.5 14q-32 0 -61.5 -11t-54 -31t-42 -49.5t-23.5 -65.5
q-7 -38 -0.5 -68t24 -51t43.5 -32t59 -11zM1071 182q42 0 80.5 14t69 39t51 60t27.5 77v-1l53 299h-202l-14 -83q-17 -97 -76 -143.5t-155 -50.5q0 -2 -0.5 -3.5t-0.5 -3.5q-17 -94 28 -149t139 -55zM707 487q-33 0 -61 -13t-49.5 -33.5t-36.5 -47t-22 -54.5l-60 -339h-80
l35 201q-29 -45 -77.5 -74t-115.5 -29q-46 0 -83 16.5t-61 47t-33.5 73.5t0.5 97q9 52 32.5 94t57 71.5t75.5 45.5t89 16q69 0 108 -29.5t53 -74.5l38 215h-490l12 70h1541l-13 -70h-131l-118 -670h-83l38 216q-34 -45 -90.5 -74.5t-134.5 -29.5q-60 0 -105.5 18.5t-75.5 53
t-42 83t-4 108.5q0 21 -5.5 41t-19 36t-35.5 25.5t-53 9.5z" />
    <glyph glyph-name="dvK_LA" horiz-adv-x="1660" 
d="M1213 398q10 24 26 47.5t37.5 43.5t49 33.5t62.5 18.5l23 129h-815l-38 -217q28 44 74 73t110 29q52 0 88 -23t54 -65q33 37 77.5 56.5t97.5 19.5q40 0 68 -13t46 -33.5t27 -46.5t11 -52h2zM274 168q39 0 69 13.5t52.5 34.5t37 47t20.5 51l4 19q4 27 -0.5 54.5
t-19.5 49.5t-41.5 36t-66.5 14q-32 0 -61.5 -11t-54 -31t-42 -49.5t-23.5 -65.5q-7 -38 -0.5 -68t24 -51t43.5 -32t59 -11zM708 487q-36 0 -65 -14t-50.5 -36.5t-35.5 -49.5t-20 -54l-59 -333h-80l35 201q-29 -45 -77.5 -74t-115.5 -29q-46 0 -83 16.5t-61 47t-33.5 73.5
t0.5 97q9 52 32.5 94t57 71.5t75.5 45.5t89 16q69 0 108 -29.5t53 -74.5l38 215h-490l12 70h1714l-13 -70h-246l-24 -133q66 -18 96.5 -78t14.5 -150q-9 -53 -32 -97t-58 -76t-82.5 -50t-106.5 -17q-8 0 -18 0.5t-18 1.5l13 73q7 -1 14.5 -1.5t14.5 -0.5q39 0 70.5 12.5
t55.5 35t40 54t23 68.5q6 33 2.5 61.5t-15.5 50t-34 33.5t-54 12q-69 0 -111 -51t-56 -132l-3 -15h-69l1 15q8 40 6.5 73.5t-13 58t-34 38t-55.5 13.5q-34 0 -61 -12t-47.5 -33t-33.5 -49.5t-19 -62.5q-7 -37 -2.5 -68t21 -53.5t44 -35.5t67.5 -13q7 0 13.5 0.5t14.5 1.5
l-13 -73q-9 -1 -15.5 -1.5t-14.5 -0.5q-59 0 -101 19t-67 52.5t-32.5 79t1.5 97.5q2 8 3 15t3 14q7 66 -24.5 103.5t-89.5 37.5z" />
    <glyph glyph-name="dvK_VA" horiz-adv-x="1431" 
d="M558 455q27 43 72.5 71.5t111.5 28.5q50 0 85.5 -22t54.5 -62q37 44 89 68t113 24q71 0 114 -28.5t63 -72.5l36 208h-701zM274 168q39 0 69 13.5t52.5 34.5t37 47t20.5 51l4 19q4 27 -0.5 54.5t-19.5 49.5t-41.5 36t-66.5 14q-32 0 -61.5 -11t-54 -31t-42 -49.5
t-23.5 -65.5q-7 -38 -0.5 -68t24 -51t43.5 -32t59 -11zM1040 163q44 0 78 15t59 39t40 53.5t20 57.5q6 30 1.5 60t-21 53.5t-46 38.5t-73.5 15q-35 0 -67.5 -11.5t-58.5 -33t-44.5 -52t-25.5 -68.5q-7 -39 0.5 -70t26 -52.5t47 -33t64.5 -11.5zM1379 670l-118 -670h-81
l35 199q-32 -45 -83 -74t-120 -29q-50 0 -90 16.5t-66 47.5t-35.5 74.5t0.5 97.5h-1q6 35 1 63.5t-20 49t-38.5 31.5t-54.5 11q-37 0 -66 -14t-50 -35.5t-34.5 -48.5t-20.5 -53l-59 -336h-80l35 201q-29 -45 -77.5 -74t-115.5 -29q-46 0 -83 16.5t-61 47t-33.5 73.5t0.5 97
q9 52 32.5 94t57 71.5t75.5 45.5t89 16q69 0 108 -29.5t53 -74.5l38 215h-490l12 70h1485l-13 -70h-131z" />
    <glyph glyph-name="dvK_V_YA" horiz-adv-x="1909" 
d="M1107 563q43 0 76.5 -11t57.5 -30t39 -45t21 -55q70 6 114.5 42.5t58.5 117.5l17 88h-895l-38 -217q28 44 75.5 73t113.5 29q52 0 86.5 -22.5t51.5 -64.5q40 45 97 70t125 25zM274 168q39 0 69 13.5t52.5 34.5t37 47t20.5 51l4 19q4 27 -0.5 54.5t-19.5 49.5t-41.5 36
t-66.5 14q-32 0 -61.5 -11t-54 -31t-42 -49.5t-23.5 -65.5q-7 -38 -0.5 -68t24 -51t43.5 -32t59 -11zM1039 163q43 0 76.5 15t58 39t39.5 53.5t22 58.5q2 6 2 10q1 8 1.5 16t2.5 15q0 25 -9.5 47.5t-27.5 39.5t-44 27.5t-60 10.5q-35 0 -68 -12t-60 -33.5t-45.5 -52
t-24.5 -67.5q-7 -39 0.5 -70t26 -52.5t46.5 -33t64 -11.5zM1490 182q41 0 79 13t69 37t52.5 57t29.5 74l54 307h-201l-19 -101q-17 -101 -76 -148.5t-156 -51.5q0 -2 -0.5 -4t-0.5 -4q-15 -82 29.5 -130.5t139.5 -48.5zM713 487q-37 0 -66.5 -13t-51.5 -34t-36 -47.5
t-21 -54.5l-60 -338h-80l35 201q-29 -45 -77.5 -74t-115.5 -29q-46 0 -83 16.5t-61 47t-33.5 73.5t0.5 97q9 52 32.5 94t57 71.5t75.5 45.5t89 16q69 0 108 -29.5t53 -74.5l38 215h-490l12 70h1963l-13 -70h-130l-118 -670h-84l38 218q-35 -45 -93.5 -75.5t-136.5 -30.5
q-79 0 -131.5 28.5t-76.5 80.5q-34 -53 -91.5 -89t-139.5 -36q-54 0 -96.5 17t-69.5 47.5t-37.5 74.5t-1.5 98q0 2 0.5 3t0.5 3q11 68 -17.5 108t-90.5 40z" />
    <glyph glyph-name="dvK_SHA" horiz-adv-x="1552" 
d="M274 168q39 0 69 13.5t52.5 34.5t37 47t20.5 51l4 19q4 27 -0.5 54.5t-19.5 49.5t-41.5 36t-66.5 14q-32 0 -61.5 -11t-54 -31t-42 -49.5t-23.5 -65.5q-7 -38 -0.5 -68t24 -51t43.5 -32t59 -11zM742 555q72 0 113.5 -44.5t43.5 -119.5h78q39 0 75.5 9t66.5 27.5
t50.5 47.5t27.5 68q10 61 -19 97t-82 36q-24 0 -45 -6l-13 1v-1h-442l-38 -215q27 43 72.5 71.5t111.5 28.5zM979 -8q-52 0 -90 16t-61 45.5t-30 70.5t2 92l20 114q13 72 -19 114.5t-94 42.5q-37 0 -65.5 -13.5t-49.5 -34.5t-34.5 -47.5t-20.5 -53.5l-59 -338h-80l35 201
q-29 -45 -77.5 -74t-115.5 -29q-46 0 -83 16.5t-61 47t-33.5 73.5t0.5 97q9 52 32.5 94t57 71.5t75.5 45.5t89 16q69 0 108 -29.5t53 -74.5l38 215h-490l12 70h1006q28 9 60 9q45 0 81.5 -14.5t60.5 -42.5t33.5 -67.5t0.5 -89.5q-10 -54 -36.5 -94.5t-65 -67.5t-86 -40
t-100.5 -13h-90l-19 -110q-6 -31 -3 -58t15 -46.5t34 -30.5t55 -11q58 0 96.5 39.5t49.5 107.5h81q-7 -48 -25 -88t-47 -69.5t-69 -45.5t-91 -16zM1427 740h216l-12 -70h-132l-117 -670h-85z" />
    <glyph glyph-name="dvK_SS_MA" horiz-adv-x="1319" 
d="M728 157q50 0 83 34.5t44 97.5l14 81h-93q-52 0 -89 -28t-46 -79q-9 -49 16.5 -77.5t70.5 -28.5zM1183 670h-183l-40 -231h182zM212 567q-5 -29 2 -52t24 -39.5t43 -25.5t58 -10q42 23 72 52t38 74q4 25 -1.5 46t-19 35.5t-34 22.5t-45.5 8q-23 0 -46 -7.5t-41.5 -22
t-32 -35t-17.5 -46.5zM342 107q-7 -11 -20 -24t-32 -24.5t-44 -19.5t-56 -8q-39 0 -69 12.5t-49 34t-26 51.5t-1 66q7 42 28 73.5t50 55t64 41.5t70 35q-28 7 -52.5 21.5t-41 36.5t-23.5 51.5t-1 66.5q7 41 27.5 73.5t51 55t67.5 34t77 11.5q38 0 70.5 -11.5t54.5 -33
t31.5 -53.5t2.5 -72q-8 -49 -34.5 -82.5t-61.5 -58.5h456l40 231h-287l13 70h764l-13 -70h-132l-117 -670h-84l65 370h-183l-13 -77q-18 -100 -73 -153.5t-143 -53.5q-42 0 -74 13t-52.5 36t-28.5 56t-1 72q6 35 21 63.5t38 50.5h-291q-35 -16 -67.5 -31t-59 -33.5
t-45.5 -43t-25 -58.5q-8 -46 17 -78.5t79 -32.5q28 0 52 10t42 26.5t30 39t16 46.5h71l-49 -277h-77z" />
    <glyph glyph-name="dvK_SS_M_YA" horiz-adv-x="1779" 
d="M212 567q-5 -29 2 -52t24 -39.5t43 -25.5t58 -10q42 23 72 52t38 74q4 25 -1.5 46t-19 35.5t-34 22.5t-45.5 8q-23 0 -46 -7.5t-41.5 -22t-32 -35t-17.5 -46.5zM342 107q-7 -11 -20 -24t-32 -24.5t-44 -19.5t-56 -8q-39 0 -69 12.5t-49 34t-26 51.5t-1 66q7 42 28 73.5
t50 55t64 41.5t70 35q-28 7 -52.5 21.5t-41 36.5t-23.5 51.5t-1 66.5q7 41 27.5 73.5t51 55t67.5 34t77 11.5q38 0 70.5 -11.5t54.5 -33t31.5 -53.5t2.5 -72q-8 -51 -35.5 -84.5t-64.5 -59.5h460l41 234h-289l12 70h1226l-13 -70h-130l-119 -670h-83l38 215q-18 -25 -41 -47
t-52 -38.5t-63 -26.5t-73 -10q-60 0 -106 19.5t-75.5 55t-41 86t-1.5 112.5h-165l-13 -76q-18 -101 -73.5 -154t-142.5 -53q-41 0 -73 13t-52.5 36t-28.5 55.5t-1 71.5q7 37 23 66.5t39 51.5h-294q-35 -16 -67.5 -31t-59 -33.5t-45.5 -43t-25 -58.5q-8 -46 17 -78.5
t79 -32.5q28 0 52 10t42 26.5t30 39t16 46.5h71l-49 -277h-77zM727 154q50 0 83 34.5t44 97.5l14 80h-92q-52 0 -90 -28t-47 -78q-8 -50 17.5 -78t70.5 -28zM1157 436q36 0 67 7t55.5 26t42 50.5t26.5 81.5l12 69h-360l-41 -234h198zM1360 164q42 0 81 17t70 45.5t52 67
t28 80.5v-2l53 298h-202l-14 -83q-11 -58 -31.5 -98t-50.5 -64.5t-68 -36t-83 -13.5q-1 -2 -1 -3.5t-1 -3.5q-18 -94 27 -149t140 -55z" />
    <glyph glyph-name="dvK_SS_YA" horiz-adv-x="1254" 
d="M838 182q42 0 80 14t68.5 39t51 60t27.5 77v-1l53 299h-201l-12 -73q-18 -112 -78.5 -163t-157.5 -56q0 -2 -0.5 -3t-0.5 -3q-17 -91 28.5 -140.5t141.5 -49.5zM212 567q-5 -29 2 -52t24 -39.5t43 -25.5t58 -10q42 23 72 52t38 74q4 25 -1.5 46t-19 35.5t-34 22.5
t-45.5 8q-23 0 -46 -7.5t-41.5 -22t-32 -35t-17.5 -46.5zM342 107q-7 -11 -20 -24t-32 -24.5t-44 -19.5t-56 -8q-39 0 -69 12.5t-49 34t-26 51.5t-1 66q7 42 28 73.5t50 55t64 41.5t70 35q-28 7 -52.5 21.5t-41 36.5t-23.5 51.5t-1 66.5q7 41 27.5 73.5t51 55t67.5 34
t77 11.5q38 0 70.5 -11.5t54.5 -33t31.5 -53.5t2.5 -72q-8 -51 -35.5 -84.5t-64.5 -59.5h204q35 0 67 6.5t58.5 24.5t45 49.5t26.5 80.5l12 73h-196l13 70h694l-13 -70h-130l-118 -670h-84l38 216q-35 -45 -91 -74.5t-134 -29.5q-62 0 -109.5 17.5t-77 51t-40.5 82t1 110.5
q0 3 1 4h-258q-35 -16 -67.5 -31t-59 -33.5t-45.5 -43t-25 -58.5q-8 -46 17 -78.5t79 -32.5q28 0 52 10t42 26.5t30 39t16 46.5h71l-49 -277h-77z" />
    <glyph glyph-name="dvK_SS_VA" horiz-adv-x="1190" 
d="M212 567q-5 -29 2.5 -52t24.5 -39.5t43 -25.5t58 -10q42 23 71.5 52t37.5 74q4 25 -1.5 46t-19 35.5t-34 22.5t-45.5 8q-23 0 -46 -7.5t-41.5 -22t-32 -35t-17.5 -46.5zM342 107q-7 -11 -20 -24t-32 -24.5t-44 -19.5t-56 -8q-39 0 -69 12.5t-49 34t-26 51.5t-1 66
q8 42 29 73.5t50 55t63.5 41.5t70.5 35q-29 7 -53.5 21.5t-41 36.5t-23.5 51.5t-1 66.5q7 41 27.5 73.5t51 55t67.5 34t77 11.5q38 0 70.5 -11.5t54.5 -33t31.5 -53.5t2.5 -72q-8 -49 -34.5 -82.5t-61.5 -58.5h194q36 59 95.5 91.5t132.5 32.5q71 0 113.5 -29t58.5 -76
l37 212h-422l12 70h636l-13 -70h-131l-118 -670h-81l35 199q-32 -45 -83 -74t-120 -29q-50 0 -89.5 16.5t-65.5 48t-35.5 76.5t0.5 101q2 11 4.5 20.5t5.5 18.5h-261q-35 -16 -67.5 -31t-59 -33.5t-45.5 -43t-25 -58.5q-8 -46 17 -78.5t79 -32.5q28 0 52 10t42 26.5t30 39
t16 46.5h71l-49 -277h-77zM800 163q41 0 74 13.5t57 35t40 48.5t23 54l5 30q3 28 -3.5 55t-23.5 48.5t-45.5 34.5t-69.5 13q-35 0 -67 -11.5t-58.5 -33t-45 -52t-25.5 -68.5q-7 -39 0.5 -70t26 -52.5t47.5 -33t65 -11.5z" />
    <glyph glyph-name="dvK_SA" horiz-adv-x="1565" 
d="M929 411q86 0 136 45.5t64 122.5l16 91h-549l-38 -218q26 42 72 71t113 29q72 0 113.5 -39t46.5 -102h26zM274 168q39 0 69 13.5t52.5 34.5t37 47t20.5 51l4 19q4 27 -0.5 54.5t-19.5 49.5t-41.5 36t-66.5 14q-32 0 -61.5 -11t-54 -31t-42 -49.5t-23.5 -65.5
q-7 -38 -0.5 -68t24 -51t43.5 -32t59 -11zM1212 579q-10 -57 -34 -96t-56 -65h263l45 252h-202zM1194 204q-6 -47 -23.5 -86t-45.5 -67.5t-66.5 -44t-86.5 -15.5q-50 0 -86 16.5t-58 46t-29 69.5t1 88l24 135h-1q11 62 -20.5 101.5t-93.5 39.5q-37 0 -66 -14t-50 -36
t-35 -48t-20 -51l-60 -338h-80l35 201q-29 -45 -77.5 -74t-115.5 -29q-46 0 -83 16.5t-61 47t-33.5 73.5t0.5 97q9 52 32.5 94t57 71.5t75.5 45.5t89 16q69 0 108 -29.5t53 -74.5l38 215h-490l12 70h1619l-13 -70h-131l-118 -670h-83l61 349h-465l-26 -146
q-11 -62 12.5 -101t84.5 -39q58 0 91.5 40t42.5 101h81z" />
    <glyph glyph-name="dvK_S_TTA" horiz-adv-x="1926" 
d="M929 411q86 0 136 45.5t64 122.5l16 91h-549l-38 -218q26 42 72 71t113 29q72 0 113.5 -39t46.5 -102h26zM274 168q39 0 69 13.5t52.5 34.5t37 47t20.5 51l4 19q4 27 -0.5 54.5t-19.5 49.5t-41.5 36t-66.5 14q-32 0 -61.5 -11t-54 -31t-42 -49.5t-23.5 -65.5
q-7 -38 -0.5 -68t24 -51t43.5 -32t59 -11zM1212 579q-10 -57 -34 -96t-56 -65h255q45 69 120.5 102.5t168.5 33.5h24l21 116h-483zM1194 204q-6 -47 -23.5 -86t-45.5 -67.5t-66.5 -44t-86.5 -15.5q-50 0 -86 16.5t-58 46t-29 69.5t1 88l24 135h-1q11 62 -20.5 101.5
t-93.5 39.5q-37 0 -66 -14t-50 -36t-35 -48t-20 -51l-60 -338h-80l35 201q-29 -45 -77.5 -74t-115.5 -29q-46 0 -83 16.5t-61 47t-33.5 73.5t0.5 97q9 52 32.5 94t57 71.5t75.5 45.5t89 16q69 0 108 -29.5t53 -74.5l38 215h-490l12 70h1979l-12 -70h-212l-34 -187h-100
q-44 0 -84.5 -11.5t-73 -35t-55 -58.5t-31.5 -83q-7 -39 1.5 -72t29.5 -57t53.5 -37.5t73.5 -13.5q42 0 78.5 14t64.5 39t46.5 59.5t25.5 75.5h80q-10 -58 -36 -106t-65.5 -82t-91 -53t-112.5 -19q-59 0 -106 18.5t-78.5 52.5t-44.5 80.5t-3 103.5q2 14 5.5 26.5t7.5 24.5
h-436l-26 -146q-11 -62 12.5 -101t84.5 -39q58 0 91.5 40t42.5 101h81z" />
    <glyph glyph-name="dvK_S_DDA" horiz-adv-x="1867" 
d="M929 411q86 0 136 45.5t64 122.5l16 91h-549l-38 -218q26 42 72 71t113 29q72 0 113.5 -39t46.5 -102h26zM274 168q39 0 69 13.5t52.5 34.5t37 47t20.5 51l4 19q4 27 -0.5 54.5t-19.5 49.5t-41.5 36t-66.5 14q-32 0 -61.5 -11t-54 -31t-42 -49.5t-23.5 -65.5
q-7 -38 -0.5 -68t24 -51t43.5 -32t59 -11zM1211 579q-10 -57 -34 -96t-56 -65h266q8 36 28.5 61t48 40.5t60.5 22.5t66 7h114l22 121h-499zM1543 -14q-56 0 -99 14.5t-70.5 40t-39.5 61t-5 77.5h83q-9 -56 25 -92.5t112 -36.5q65 0 104.5 30t47.5 75q6 31 -2.5 52t-26 33.5
t-41.5 17.5t-51 5h-40q-24 0 -48.5 4.5t-45.5 15t-37 26.5t-22 40h-480l-26 -146q-11 -62 13 -101t84 -39q58 0 92 40t43 101h80q-6 -47 -23.5 -86t-45.5 -67.5t-66.5 -44t-86.5 -15.5q-50 0 -86 16.5t-57.5 46t-28.5 69.5t1 88l24 135h-1q11 62 -20.5 101.5t-93.5 39.5
q-37 0 -66 -14t-50 -36t-35 -48t-20 -51l-60 -338h-80l35 201q-29 -45 -77.5 -74t-115.5 -29q-46 0 -83 16.5t-61 47t-33.5 73.5t0.5 97q9 52 32.5 94t57 71.5t75.5 45.5t89 16q69 0 108 -29.5t53 -74.5l38 215h-490l12 70h1920l-12 -70h-139l-33 -181h-170q-21 0 -43 -3.5
t-41 -12.5t-33 -25.5t-19 -41.5q-4 -23 2 -39t19.5 -26t32 -14t39.5 -4h44q39 0 74.5 -9.5t61 -30t37 -53t3.5 -78.5q-14 -74 -73.5 -120t-164.5 -46z" />
    <glyph glyph-name="dvK_S_TA" horiz-adv-x="1968" 
d="M929 411q86 0 136 45.5t64 122.5l16 91h-549l-38 -218q26 42 72 71t113 29q72 0 113.5 -39t46.5 -102h26zM274 168q39 0 69 13.5t52.5 34.5t37 47t20.5 51l4 19q4 27 -0.5 54.5t-19.5 49.5t-41.5 36t-66.5 14q-32 0 -61.5 -11t-54 -31t-42 -49.5t-23.5 -65.5
q-7 -38 -0.5 -68t24 -51t43.5 -32t59 -11zM1212 579q-10 -57 -34 -96t-56 -65h288q46 42 108 61t134 19h150l31 172h-605zM1194 204q-6 -47 -23.5 -86t-45.5 -67.5t-66.5 -44t-86.5 -15.5q-50 0 -86 16.5t-58 46t-29 69.5t1 88l24 135h-1q11 62 -20.5 101.5t-93.5 39.5
q-37 0 -66 -14t-50 -36t-35 -48t-20 -51l-60 -338h-80l35 201q-29 -45 -77.5 -74t-115.5 -29q-46 0 -83 16.5t-61 47t-33.5 73.5t0.5 97q9 52 32.5 94t57 71.5t75.5 45.5t89 16q69 0 108 -29.5t53 -74.5l38 215h-490l12 70h2023l-13 -70h-132l-117 -670h-84l75 426h-146
q-94 0 -157 -43.5t-80 -134.5q-15 -85 25 -132t131 -47h21l-11 -67h-26q-56 0 -102 15.5t-76.5 47t-43.5 78t-2 108.5q5 28 13.5 52.5t19.5 45.5h-448l-26 -146q-11 -62 12.5 -101t84.5 -39q58 0 91.5 40t42.5 101h81z" />
    <glyph glyph-name="dvK_S_P_RA" horiz-adv-x="1926" 
d="M929 411q86 0 136 45.5t64 122.5l16 91h-549l-38 -218q26 42 72 71t113 29q72 0 113.5 -39t46.5 -102h26zM274 168q39 0 69 13.5t52.5 34.5t37 47t20.5 51l4 19q4 27 -0.5 54.5t-19.5 49.5t-41.5 36t-66.5 14q-32 0 -61.5 -11t-54 -31t-42 -49.5t-23.5 -65.5
q-7 -38 -0.5 -68t24 -51t43.5 -32t59 -11zM1211 579q-10 -57 -34 -96t-56 -65h244q1 7 1.5 13.5t2.5 13.5l40 225h-182zM1572 268q33 0 62 11.5t51.5 31t37.5 45.5t22 55l46 259h-299l-39 -225q-14 -81 15 -129t104 -48zM1723 284q-19 -22 -40 -39l-291 -257h-92l248 213h-7
q-78 0 -123 39.5t-53 108.5h-458l-26 -146q-11 -62 13 -101t84 -39q58 0 92 40t43 101h80q-6 -47 -23.5 -86t-45.5 -67.5t-66.5 -44t-86.5 -15.5q-50 0 -86 16.5t-57.5 46t-28.5 69.5t1 88l24 135h-1q11 62 -20.5 101.5t-93.5 39.5q-37 0 -66 -14t-50 -36t-35 -48t-20 -51
l-60 -338h-80l35 201q-29 -45 -77.5 -74t-115.5 -29q-46 0 -83 16.5t-61 47t-33.5 73.5t0.5 97q9 52 32.5 94t57 71.5t75.5 45.5t89 16q69 0 108 -29.5t53 -74.5l38 215h-490l12 70h1979l-12 -70h-131l-118 -670h-83z" />
    <glyph glyph-name="dvK_S_P_LA" horiz-adv-x="2537" 
d="M929 411q86 0 136 45.5t64 122.5l16 91h-549l-38 -218q26 42 72 71t113 29q72 0 113.5 -39t46.5 -102h26zM274 168q39 0 69 13.5t52.5 34.5t37 47t20.5 51l4 19q4 27 -0.5 54.5t-19.5 49.5t-41.5 36t-66.5 14q-32 0 -61.5 -11t-54 -31t-42 -49.5t-23.5 -65.5
q-7 -38 -0.5 -68t24 -51t43.5 -32t59 -11zM1211 579q-10 -57 -34 -96t-56 -65h244q1 7 1.5 13.5t2.5 13.5l41 225h-183zM1562 268q51 0 86 26t55 66q26 88 88.5 135.5t144.5 47.5q40 0 68 -13t46 -33.5t27 -46.5t11 -52h2q10 24 26 47.5t37.5 43.5t49 33.5t62.5 18.5l23 129
h-796l-39 -225q-14 -81 10.5 -129t98.5 -48zM1193 204q-6 -47 -23.5 -86t-45.5 -67.5t-66.5 -44t-86.5 -15.5q-50 0 -86 16.5t-57.5 46t-28.5 69.5t1 88l24 135h-1q11 62 -20.5 101.5t-93.5 39.5q-37 0 -66 -14t-50 -36t-35 -48t-20 -51l-60 -338h-80l35 201
q-29 -45 -77.5 -74t-115.5 -29q-46 0 -83 16.5t-61 47t-33.5 73.5t0.5 97q9 52 32.5 94t57 71.5t75.5 45.5t89 16q69 0 108 -29.5t53 -74.5l38 215h-490l12 70h2591l-13 -70h-246l-24 -133q66 -18 96.5 -78t14.5 -150q-9 -53 -32 -97t-58 -76t-82.5 -50t-106.5 -17
q-8 0 -18 0.5t-18 1.5l13 73q7 -1 14.5 -1.5t14.5 -0.5q39 0 70.5 12.5t55.5 35t40 54t23 68.5q6 33 2.5 61.5t-15.5 50t-34 33.5t-54 12q-69 0 -111 -51t-56 -132l-3 -15h-69l1 15q8 40 6.5 73.5t-13 58t-34 38t-55.5 13.5q-34 0 -61 -12t-47.5 -33t-33.5 -49.5t-19 -62.5
q-7 -37 -2.5 -68t21 -53.5t44 -35.5t67.5 -13q7 0 13.5 0.5t14.5 1.5l-13 -73q-9 -1 -15.5 -1.5t-14.5 -0.5q-98 0 -148.5 50t-55.5 128q-28 -23 -63 -36.5t-79 -13.5q-84 0 -128.5 40.5t-52.5 111.5h-458l-26 -146q-11 -62 13 -101t84 -39q58 0 92 40t43 101h80z" />
    <glyph glyph-name="dvKH_KHA" horiz-adv-x="1606" 
d="M1391 218q-26 -35 -67 -58.5t-98 -23.5q-21 0 -37 4q-19 -30 -44.5 -56t-57 -45.5t-68.5 -30.5t-79 -11q-99 0 -154.5 49t-56.5 140q-65 -50 -156 -50q-14 0 -27 1.5t-26 3.5q-17 -29 -40.5 -55.5t-54 -46t-67 -31t-79.5 -11.5q-59 0 -104 17t-74 49t-39.5 77.5
t-0.5 102.5l28 156h35q30 0 57 6.5t49.5 23.5t38.5 46t24 74l21 121h-288l13 70h1659l-13 -70h-131l-117 -670h-84zM1254 201q35 0 62.5 12.5t47.5 33t32 45.5t16 49q5 24 1.5 48.5t-16.5 45t-37 33t-60 12.5q-28 0 -54.5 -9t-48 -26.5t-36.5 -43t-21 -58.5
q-6 -34 0.5 -60.5t22.5 -44.5t39 -27.5t52 -9.5zM584 200q65 0 110 37.5t56 98.5l2 9q9 62 -23 98.5t-95 36.5q-64 0 -109.5 -38t-56.5 -102q-12 -64 20 -102t96 -38zM282 70q31 0 57.5 8t48 21.5t38.5 31t30 36.5q-39 26 -56.5 69.5t-6.5 103.5q8 48 30.5 85.5t55.5 64
t75.5 40.5t90.5 14q79 0 126.5 -39.5t51.5 -111.5q25 3 47.5 12.5t41.5 27.5t33 46.5t21 69.5l21 121h-589l-23 -131q-10 -57 -31.5 -95.5t-50 -62.5t-62.5 -34t-70 -10l-18 -103q-14 -74 23 -119t116 -45zM955 70q30 0 56 8t47.5 21.5t39 31t30.5 36.5q-37 27 -54 74.5
t-6 109.5q8 45 29 81.5t51 61.5t67.5 38.5t78.5 12.5q59 -1 92.5 -23.5t47.5 -57.5l36 206h-400l-22 -131q-10 -57 -31.5 -95.5t-50.5 -62.5t-63 -34t-70 -10l-18 -103q-13 -74 24 -119t116 -45z" />
    <glyph glyph-name="dvKH_TA" horiz-adv-x="1365" 
d="M584 200q65 0 110.5 38t56.5 102t-20.5 102t-96.5 38q-64 0 -109.5 -38t-56.5 -102q-12 -64 20 -102t96 -38zM282 70q31 0 57.5 8t48 21.5t38.5 30.5t29 36q-38 26 -55 70t-7 104q8 48 30 85.5t54.5 64t74 40.5t89.5 14q75 0 120.5 -31.5t56.5 -91.5q45 40 103.5 58.5
t127.5 18.5h150l31 172h-832l-23 -131q-10 -57 -31.5 -95.5t-50 -62.5t-62.5 -34t-70 -10l-18 -103q-14 -74 23 -119t116 -45zM571 136q-14 0 -26.5 1.5t-24.5 3.5q-17 -29 -40.5 -55.5t-54 -46t-67 -31t-79.5 -11.5q-59 0 -104 17t-73.5 49t-39.5 77.5t-1 102.5l28 156h35
q30 0 57 6.5t49.5 23.5t38.5 46t24 74l21 121h-288l13 70h1418l-13 -70h-130l-119 -670h-83l75 426h-147q-46 0 -86 -11t-70.5 -33t-51 -55.5t-28.5 -78.5q-14 -85 25.5 -132t130.5 -47h21l-12 -67h-25q-97 0 -156 45.5t-63 135.5q-64 -47 -154 -47z" />
    <glyph glyph-name="dvKHx_TA" horiz-adv-x="1365" 
d="M231 -196q-24 0 -37.5 16t-9.5 39q4 24 23 40.5t43 16.5q23 0 36.5 -16.5t9.5 -40.5q-4 -23 -23 -39t-42 -16zM584 200q65 0 110.5 38t56.5 102t-20.5 102t-96.5 38q-64 0 -109.5 -38t-56.5 -102q-12 -64 20 -102t96 -38zM282 70q31 0 57.5 8t48 21.5t38.5 30.5t29 36
q-38 26 -55 70t-7 104q8 48 30 85.5t54.5 64t74 40.5t89.5 14q75 0 120.5 -31.5t56.5 -91.5q45 40 103.5 58.5t127.5 18.5h150l31 172h-832l-23 -131q-10 -57 -31.5 -95.5t-50 -62.5t-62.5 -34t-70 -10l-18 -103q-14 -74 23 -119t116 -45zM571 136q-14 0 -26.5 1.5
t-24.5 3.5q-17 -29 -40.5 -55.5t-54 -46t-67 -31t-79.5 -11.5q-59 0 -104 17t-73.5 49t-39.5 77.5t-1 102.5l28 156h35q30 0 57 6.5t49.5 23.5t38.5 46t24 74l21 121h-288l13 70h1418l-13 -70h-130l-119 -670h-83l75 426h-147q-46 0 -86 -11t-70.5 -33t-51 -55.5
t-28.5 -78.5q-14 -85 25.5 -132t130.5 -47h21l-12 -67h-25q-97 0 -156 45.5t-63 135.5q-64 -47 -154 -47z" />
    <glyph glyph-name="dvKH_NA" horiz-adv-x="1482" 
d="M928 188q27 0 51.5 9.5t44 26t33 39t18.5 48.5q10 54 -19.5 88.5t-84.5 34.5q-29 0 -54 -9t-44.5 -25.5t-33 -39.5t-18.5 -50q-9 -54 20 -88t87 -34zM584 200q65 0 110.5 38t56.5 102t-20.5 102t-96.5 38q-64 0 -109.5 -38t-56.5 -102q-12 -64 20 -102t96 -38zM282 70
q31 0 57.5 8t48 21.5t38.5 31t30 36.5q-39 26 -56.5 69.5t-6.5 103.5q8 48 30 85.5t54.5 64t74 40.5t89.5 14q69 0 114 -28.5t59 -80.5q32 34 78 51.5t100 17.5h325l29 166h-948l-23 -131q-10 -57 -31.5 -95.5t-50 -62.5t-62.5 -34t-70 -10l-18 -103q-14 -74 23 -119
t116 -45zM573 136q-14 0 -27 1.5t-26 3.5q-17 -29 -40.5 -55.5t-54 -46t-67 -31t-79.5 -11.5q-59 0 -104 17t-74 49t-39.5 77.5t-0.5 102.5l28 156h35q30 0 57 6.5t49.5 23.5t38.5 46t24 74l21 121h-288l13 70h1535l-13 -70h-131l-118 -670h-83l76 434h-195q20 -23 29 -56
t1 -77q-7 -43 -27.5 -77t-50.5 -58t-67.5 -36.5t-77.5 -12.5q-59 0 -100.5 25.5t-58.5 71.5q-34 -38 -81 -58t-104 -20z" />
    <glyph glyph-name="dvKH_MA" horiz-adv-x="1489" 
d="M899 172q50 0 83 34.5t45 97.5l14 81h-93q-52 0 -89.5 -28t-46.5 -79q-8 -49 17 -77.5t70 -28.5zM584 200q65 0 110.5 38t56.5 102t-20.5 102t-96.5 38q-64 0 -109.5 -38t-56.5 -102q-12 -64 20 -102t96 -38zM1352 670h-182l-38 -216h182zM282 70q31 0 57.5 8t48 21.5
t38.5 31t30 36.5q-39 26 -56.5 69.5t-6.5 103.5q8 48 30 85.5t54.5 64t74 40.5t89.5 14q77 0 123 -35t54 -99q58 44 141 44h94l38 216h-693l-23 -131q-10 -57 -31.5 -95.5t-50 -62.5t-62.5 -34t-70 -10l-18 -103q-14 -74 23 -119t116 -45zM573 136q-14 0 -27 1.5t-26 3.5
q-17 -29 -40.5 -55.5t-54 -46t-67 -31t-79.5 -11.5q-59 0 -104 17t-74 49t-39.5 77.5t-0.5 102.5l28 156h35q30 0 57 6.5t49.5 23.5t38.5 46t24 74l21 121h-288l13 70h1541l-12 -70h-132l-118 -670h-84l68 385h-182l-14 -77q-17 -102 -71 -154.5t-138 -52.5q-60 0 -100 26
t-54 72q-32 -31 -75.5 -47t-94.5 -16z" />
    <glyph glyph-name="dvKHx_MA" horiz-adv-x="1489" 
d="M217 -193q-24 0 -37.5 16t-9.5 39q4 24 23 40.5t43 16.5q23 0 36.5 -16.5t9.5 -40.5q-4 -23 -23 -39t-42 -16zM584 200q65 0 110.5 38t56.5 102t-20.5 102t-96.5 38q-64 0 -109.5 -38t-56.5 -102q-12 -64 20 -102t96 -38zM899 172q50 0 83 34.5t45 97.5l14 81h-93
q-52 0 -89.5 -28t-46.5 -79q-8 -49 17 -77.5t70 -28.5zM1352 670h-182l-38 -216h182zM282 70q31 0 57.5 8t48 21.5t38.5 31t30 36.5q-39 26 -56.5 69.5t-6.5 103.5q8 48 30 85.5t54.5 64t74 40.5t89.5 14q77 0 123 -35t54 -99q58 44 141 44h94l38 216h-693l-23 -131
q-10 -57 -31.5 -95.5t-50 -62.5t-62.5 -34t-70 -10l-18 -103q-14 -74 23 -119t116 -45zM573 136q-14 0 -27 1.5t-26 3.5q-17 -29 -40.5 -55.5t-54 -46t-67 -31t-79.5 -11.5q-59 0 -104 17t-74 49t-39.5 77.5t-0.5 102.5l28 156h35q30 0 57 6.5t49.5 23.5t38.5 46t24 74
l21 121h-288l13 70h1541l-12 -70h-132l-118 -670h-84l68 385h-182l-14 -77q-17 -102 -71 -154.5t-138 -52.5q-60 0 -100 26t-54 72q-32 -31 -75.5 -47t-94.5 -16z" />
    <glyph glyph-name="dvKH_YA" horiz-adv-x="1420" 
d="M584 200q65 0 110.5 38t56.5 102t-20.5 102t-96.5 38q-64 0 -109.5 -38t-56.5 -102q-12 -64 20 -102t96 -38zM282 70q31 0 57.5 8t48 21.5t38.5 31t30 36.5q-39 26 -56.5 69.5t-6.5 103.5q8 48 30.5 85.5t55.5 64t75.5 40.5t90.5 14q72 0 118.5 -33.5t57.5 -93.5
q65 8 110 47t57 120l13 86h-603l-23 -131q-10 -57 -31.5 -95.5t-50 -62.5t-62.5 -34t-70 -10l-18 -103q-14 -74 23 -119t116 -45zM1004 182q42 0 80 14t68.5 39t51 60t27.5 77v-1l53 299h-201l-16 -100q-14 -98 -75.5 -148t-156.5 -55q-1 -2 -1 -4t-1 -4q-5 -37 3 -69.5
t29.5 -56.5t56 -37.5t82.5 -13.5zM573 136q-14 0 -27 1.5t-26 3.5q-17 -29 -40.5 -55.5t-54 -46t-67 -31t-79.5 -11.5q-59 0 -104 17t-74 49t-39.5 77.5t-0.5 102.5l28 156h35q30 0 57 6.5t49.5 23.5t38.5 46t24 74l21 121h-288l13 70h1472l-12 -70h-131l-119 -670h-83
l38 215q-35 -44 -91.5 -73.5t-133.5 -29.5q-81 0 -132 32t-73 86q-35 -45 -87 -69.5t-114 -24.5z" />
    <glyph glyph-name="dvKHx_YA" horiz-adv-x="1420" 
d="M230 -196q-24 0 -37.5 16t-9.5 39q4 24 23 40.5t43 16.5q23 0 36.5 -16.5t9.5 -40.5q-4 -23 -23 -39t-42 -16zM584 200q65 0 110.5 38t56.5 102t-20.5 102t-96.5 38q-64 0 -109.5 -38t-56.5 -102q-12 -64 20 -102t96 -38zM282 70q31 0 57.5 8t48 21.5t38.5 31t30 36.5
q-39 26 -56.5 69.5t-6.5 103.5q8 48 30.5 85.5t55.5 64t75.5 40.5t90.5 14q72 0 118.5 -33.5t57.5 -93.5q65 8 110 47t57 120l13 86h-603l-23 -131q-10 -57 -31.5 -95.5t-50 -62.5t-62.5 -34t-70 -10l-18 -103q-14 -74 23 -119t116 -45zM1004 182q42 0 80 14t68.5 39t51 60
t27.5 77v-1l53 299h-201l-16 -100q-14 -98 -75.5 -148t-156.5 -55q-1 -2 -1 -4t-1 -4q-5 -37 3 -69.5t29.5 -56.5t56 -37.5t82.5 -13.5zM573 136q-14 0 -27 1.5t-26 3.5q-17 -29 -40.5 -55.5t-54 -46t-67 -31t-79.5 -11.5q-59 0 -104 17t-74 49t-39.5 77.5t-0.5 102.5
l28 156h35q30 0 57 6.5t49.5 23.5t38.5 46t24 74l21 121h-288l13 70h1472l-12 -70h-131l-119 -670h-83l38 215q-35 -44 -91.5 -73.5t-133.5 -29.5q-81 0 -132 32t-73 86q-35 -45 -87 -69.5t-114 -24.5z" />
    <glyph glyph-name="dvKH_VA" horiz-adv-x="1354" 
d="M1138 199q-32 -45 -83 -74t-120 -29q-68 0 -115.5 30t-65.5 86q-34 -37 -81 -56.5t-104 -19.5q-24 0 -49 5q-17 -29 -40.5 -55.5t-54 -46t-67 -31t-79.5 -11.5q-59 0 -104 17t-74 49t-39.5 77.5t-0.5 102.5l28 156h35q30 0 57 6.5t49.5 23.5t38.5 46t24 74l21 121h-288
l13 70h1407l-12 -70h-132l-117 -670h-82zM584 200q65 0 110.5 38t56.5 102t-20.5 102t-96.5 38q-64 0 -109.5 -38t-56.5 -102q-12 -64 20 -102t96 -38zM963 163q44 0 78.5 15t59 39t39.5 53.5t20 57.5q6 30 1.5 60t-21 53.5t-45.5 38.5t-73 15q-35 0 -67.5 -11.5t-59 -33
t-45 -52t-25.5 -68.5q-7 -39 0.5 -70t26 -52.5t47 -33t64.5 -11.5zM282 70q62 0 105 29t68 67q-38 26 -55.5 70t-6.5 104q8 48 30 85.5t54 64t73.5 40.5t88.5 14q60 0 102 -22t62 -62q36 49 89 76t116 27q71 0 114 -28.5t62 -71.5l36 207h-822l-23 -131q-10 -57 -31 -95.5
t-50 -62.5t-63 -34t-70 -10l-18 -103q-14 -74 23 -119t116 -45z" />
    <glyph glyph-name="dvKHx_VA" horiz-adv-x="1354" 
d="M230 -196q-24 0 -37.5 16t-9.5 39q4 24 23 40.5t43 16.5q23 0 36.5 -16.5t9.5 -40.5q-4 -23 -23 -39t-42 -16zM584 200q65 0 110.5 38t56.5 102t-20.5 102t-96.5 38q-64 0 -109.5 -38t-56.5 -102q-12 -64 20 -102t96 -38zM963 163q44 0 78.5 15t59 39t39.5 53.5t20 57.5
q6 30 1.5 60t-21 53.5t-45.5 38.5t-73 15q-35 0 -67.5 -11.5t-59 -33t-45 -52t-25.5 -68.5q-7 -39 0.5 -70t26 -52.5t47 -33t64.5 -11.5zM1138 199q-32 -45 -83 -74t-120 -29q-68 0 -115.5 30t-65.5 86q-34 -37 -81 -56.5t-104 -19.5q-24 0 -49 5q-17 -29 -40.5 -55.5
t-54 -46t-67 -31t-79.5 -11.5q-59 0 -104 17t-74 49t-39.5 77.5t-0.5 102.5l28 156h35q30 0 57 6.5t49.5 23.5t38.5 46t24 74l21 121h-288l13 70h1407l-12 -70h-132l-117 -670h-82zM282 70q62 0 105 29t68 67q-38 26 -55.5 70t-6.5 104q8 48 30 85.5t54 64t73.5 40.5
t88.5 14q60 0 102 -22t62 -62q36 49 89 76t116 27q71 0 114 -28.5t62 -71.5l36 207h-822l-23 -131q-10 -57 -31 -95.5t-50 -62.5t-63 -34t-70 -10l-18 -103q-14 -74 23 -119t116 -45z" />
    <glyph glyph-name="dvKH_SHA" horiz-adv-x="1473" 
d="M899 -8q-44 0 -79.5 12.5t-59 36.5t-35 58.5t-7.5 79.5q-63 -43 -148 -43q-14 0 -26 1.5t-24 3.5q-17 -29 -40.5 -55.5t-54 -46t-67 -31t-79.5 -11.5q-59 0 -104 17t-74 49t-39.5 77.5t-0.5 102.5l28 156h35q30 0 57 6.5t49.5 23.5t38.5 46t24 74l21 121h-288l12 70h926
q27 9 61 9q47 0 83.5 -14t60 -41t32.5 -66.5t0 -89.5q-10 -55 -36.5 -96t-64.5 -68t-86 -40.5t-101 -13.5h-89l-20 -110q-6 -31 -3.5 -57.5t14.5 -46t34.5 -31t55.5 -11.5q56 0 94 37t49 97l2 13h82q-1 -5 -1.5 -8.5t-0.5 -5.5q-17 -96 -76 -150.5t-155 -54.5zM282 70
q62 0 105 29t68 67q-38 26 -55.5 70t-6.5 104q8 48 30 85.5t54.5 64t74 40.5t89.5 14q83 0 130.5 -40t49.5 -113h77q40 0 76.5 9t66 27.5t50 47.5t27.5 68q11 62 -16.5 97.5t-86.5 35.5q-24 0 -46 -6h-571l-23 -131q-10 -57 -31.5 -95.5t-50 -62.5t-62.5 -34t-70 -10
l-18 -103q-14 -74 23 -119t116 -45zM584 200q65 0 110.5 38t56.5 102t-20.5 102t-96.5 38q-64 0 -109.5 -38t-56.5 -102q-12 -64 20 -102t96 -38zM1348 740h216l-12 -70h-131l-118 -670h-85z" />
    <glyph glyph-name="dvKHx_SHA" horiz-adv-x="1473" 
d="M230 -196q-24 0 -37.5 16t-9.5 39q4 24 23 40.5t43 16.5q23 0 36.5 -16.5t9.5 -40.5q-4 -23 -23 -39t-42 -16zM584 200q65 0 110.5 38t56.5 102t-20.5 102t-96.5 38q-64 0 -109.5 -38t-56.5 -102q-12 -64 20 -102t96 -38zM899 -8q-44 0 -79.5 12.5t-59 36.5t-35 58.5
t-7.5 79.5q-63 -43 -148 -43q-14 0 -26 1.5t-24 3.5q-17 -29 -40.5 -55.5t-54 -46t-67 -31t-79.5 -11.5q-59 0 -104 17t-74 49t-39.5 77.5t-0.5 102.5l28 156h35q30 0 57 6.5t49.5 23.5t38.5 46t24 74l21 121h-288l12 70h926q27 9 61 9q47 0 83.5 -14t60 -41t32.5 -66.5
t0 -89.5q-10 -55 -36.5 -96t-64.5 -68t-86 -40.5t-101 -13.5h-89l-20 -110q-6 -31 -3.5 -57.5t14.5 -46t34.5 -31t55.5 -11.5q56 0 94 37t49 97l2 13h82q-1 -5 -1.5 -8.5t-0.5 -5.5q-17 -96 -76 -150.5t-155 -54.5zM282 70q62 0 105 29t68 67q-38 26 -55.5 70t-6.5 104
q8 48 30 85.5t54.5 64t74 40.5t89.5 14q83 0 130.5 -40t49.5 -113h77q40 0 76.5 9t66 27.5t50 47.5t27.5 68q11 62 -16.5 97.5t-86.5 35.5q-24 0 -46 -6h-571l-23 -131q-10 -57 -31.5 -95.5t-50 -62.5t-62.5 -34t-70 -10l-18 -103q-14 -74 23 -119t116 -45zM1348 740h216
l-12 -70h-131l-118 -670h-85z" />
    <glyph glyph-name="dvKHx_SA" horiz-adv-x="1495" 
d="M230 -196q-24 0 -37.5 16t-9.5 39q4 24 23 40.5t43 16.5q23 0 36.5 -16.5t9.5 -40.5q-4 -23 -23 -39t-42 -16zM584 200q65 0 110.5 38t56.5 102t-20.5 102t-96.5 38q-64 0 -109.5 -38t-56.5 -102q-12 -64 20 -102t96 -38zM282 70q31 0 57.5 8t48 21.5t38.5 31t30 36.5
q-39 26 -56.5 69.5t-6.5 103.5q8 48 30.5 85.5t55.5 64t75.5 40.5t90.5 14q76 0 124 -35t58 -98h32q86 0 136 45.5t64 122.5l16 91h-677l-23 -131q-10 -57 -31.5 -95.5t-50 -62.5t-62.5 -34t-70 -10l-18 -103q-14 -74 23 -119t116 -45zM1142 579q-10 -57 -34 -96t-56 -65
h263l45 252h-202zM1124 204q-6 -47 -23.5 -86t-45.5 -67.5t-66.5 -44t-86.5 -15.5q-46 0 -80 14t-56.5 39.5t-32.5 60.5t-7 77q-66 -46 -153 -46q-14 0 -27 1.5t-26 3.5q-17 -29 -40.5 -55.5t-54 -46t-67 -31t-79.5 -11.5q-59 0 -104 17t-74 49t-39.5 77.5t-0.5 102.5
l28 156h35q30 0 57 6.5t49.5 23.5t38.5 46t24 74l21 121h-288l13 70h1548l-13 -70h-131l-118 -670h-83l61 349h-465l-26 -146q-11 -62 12.5 -101t84.5 -39q58 0 91.5 40t42.5 101h81z" />
    <glyph glyph-name="dvG_GA" horiz-adv-x="1195" 
d="M1059 670h-178l-47 -270q-6 -36 -20.5 -68t-37.5 -56t-56.5 -38t-76.5 -14q-40 0 -69.5 12.5t-47.5 35.5t-24.5 54t0.5 69l6 30h82l-6 -31q-3 -18 -2 -35.5t8 -31.5t21.5 -22.5t37.5 -8.5q25 0 43 9t30 23t18.5 32.5t9.5 36.5l48 273h-367l-47 -270q-6 -36 -20.5 -68
t-37.5 -56t-56.5 -38t-76.5 -14q-40 0 -69.5 12.5t-47.5 35.5t-24.5 54t0.5 69l6 30h82l-6 -31q-3 -18 -2 -35.5t8 -31.5t21.5 -22.5t37.5 -8.5q25 0 43 9t30 23t18.5 32.5t9.5 36.5l48 273h-322l12 70h1249l-12 -70h-132l-118 -670h-83z" />
    <glyph glyph-name="dvG_GHA" horiz-adv-x="1145" 
d="M724 174q41 0 79.5 13.5t69.5 38t52 59t29 75.5l55 310h-339l-14 -73q-9 -58 17 -89t99 -31h47l-12 -68h-53q-78 0 -118 -33t-48 -80q-6 -31 2 -54t27 -38t46.5 -22.5t60.5 -7.5zM891 0l39 221q-41 -54 -102 -85t-134 -31q-47 0 -86 12t-65 35t-37.5 57.5t-3.5 78.5
q6 33 21.5 59.5t37.5 45.5t48 31t53 17v2q-23 4 -42.5 14.5t-32 28.5t-17 44.5t2.5 62.5l13 77h-155l-47 -270q-6 -36 -20.5 -68t-37.5 -56t-56.5 -38t-76.5 -14q-40 0 -69.5 12.5t-47.5 35.5t-24.5 54t0.5 69l6 30h82l-6 -31q-3 -18 -2 -35.5t8 -31.5t21.5 -22.5t37.5 -8.5
q25 0 43 9t30 23t18.5 32.5t9.5 36.5l48 273h-322l12 70h1198l-13 -70h-130l-118 -670h-84z" />
    <glyph glyph-name="dvG_JA" horiz-adv-x="1279" 
d="M1025 0l75 427h-189l-17 -95q-8 -44 -27.5 -81t-48.5 -64t-67.5 -41.5t-84.5 -14.5q-44 0 -77 15t-54 42t-28.5 64.5t0.5 82.5l29 164h84l-29 -165q-11 -58 12 -94t74 -36q53 0 88.5 36t46.5 94l30 165h271l30 171h-712l-47 -270q-6 -36 -20.5 -68t-37.5 -56t-56.5 -38
t-76.5 -14q-40 0 -69.5 12.5t-47.5 35.5t-24.5 54t0.5 69l6 30h82l-6 -31q-3 -18 -2 -35.5t8 -31.5t21.5 -22.5t37.5 -8.5q25 0 43 9t30 23t18.5 32.5t9.5 36.5l48 273h-322l12 70h1332l-13 -70h-130l-119 -670h-83z" />
    <glyph glyph-name="dvG_NNA" horiz-adv-x="1303" 
d="M709 254q51 0 85.5 33.5t43.5 87.5l52 295h-217l-52 -295q-10 -54 13.5 -87.5t74.5 -33.5zM1049 0l118 670h-195l-51 -287q-8 -43 -25.5 -79.5t-45 -63.5t-64 -42t-82.5 -15q-45 0 -79 14.5t-56 41t-29.5 63.5t0.5 81l51 287h-160l-47 -270q-6 -36 -20.5 -68t-37.5 -56
t-56.5 -38t-76.5 -14q-40 0 -69.5 12.5t-47.5 35.5t-24.5 54t0.5 69l6 30h82l-6 -31q-3 -18 -2 -35.5t8 -31.5t21.5 -22.5t37.5 -8.5q25 0 43 9t30 23t18.5 32.5t9.5 36.5l48 273h-322l12 70h1356l-12 -70h-132l-118 -670h-83z" />
    <glyph glyph-name="dvG_DA" horiz-adv-x="1053" 
d="M826 -16l34 194q-27 -36 -72.5 -57.5t-99.5 -21.5q-46 0 -83.5 16t-62.5 46t-34.5 73t-0.5 97q10 60 39 103t70 71t92 41.5t106 13.5h72l19 110h-474l-47 -270q-6 -36 -20.5 -68t-37.5 -56t-56.5 -38t-76.5 -14q-40 0 -69.5 12.5t-47.5 35.5t-24.5 54t0.5 69l6 30h82
l-6 -31q-3 -18 -2 -35.5t8 -31.5t21.5 -22.5t37.5 -8.5q25 0 43 9t30 23t18.5 32.5t9.5 36.5l48 273h-322l12 70h1107l-13 -70h-143l-32 -182h-148q-39 0 -75.5 -10t-65.5 -30t-49.5 -50.5t-27.5 -71.5q-12 -72 23.5 -116t106.5 -44q24 0 51 8t50 24.5t41 42t24 61.5h76
l-55 -318h-82z" />
    <glyph glyph-name="dvG_DHA" horiz-adv-x="1150" 
d="M691 98q-44 0 -81 11.5t-62.5 34t-37.5 55.5t-4 75q6 34 21.5 59t36 42.5t44 28t46.5 13.5v3q-24 6 -44.5 19t-35 33.5t-20 49t0.5 64.5q7 46 34 84h-158l-47 -270q-6 -36 -20.5 -68t-37.5 -56t-56.5 -38t-76.5 -14q-40 0 -69.5 12.5t-47.5 35.5t-24.5 54t0.5 69l6 30h82
l-6 -31q-3 -18 -2 -35.5t8 -31.5t21.5 -22.5t37.5 -8.5q25 0 43 9t30 23t18.5 32.5t9.5 36.5l48 273h-322l12 70h649q30 9 63 9q42 0 73 -13.5t49 -38.5t21.5 -60.5t-8.5 -79.5h-64q14 54 -5.5 88t-72.5 34q-45 0 -77.5 -30t-39.5 -73q-11 -58 21 -90t99 -32h67l-12 -68h-53
q-69 0 -108.5 -29t-47.5 -75q-5 -28 3 -49.5t26 -35.5t44 -21.5t58 -7.5q44 0 84 14.5t72.5 41.5t54.5 64.5t30 82.5l54 299h-1l11 70h214l-12 -70h-130l-118 -670h-84l39 220q-40 -57 -103.5 -89.5t-142.5 -32.5z" />
    <glyph glyph-name="dvG_DH_YA" horiz-adv-x="1625" 
d="M1210 182q42 0 80 14t68.5 39t51 60t27.5 77v-1l53 299h-201l-15 -83q-17 -97 -75.5 -143.5t-154.5 -50.5q0 -2 -0.5 -3.5t-0.5 -3.5q-18 -94 27 -149t140 -55zM711 97q-47 0 -87.5 11.5t-69 34.5t-42.5 56.5t-6 77.5q6 33 21.5 58t36 42.5t44 27t46.5 12.5v3
q-24 6 -44.5 19t-35 33.5t-20 49t0.5 64.5q7 46 34 84h-158l-47 -270q-6 -36 -20.5 -68t-37.5 -56t-56.5 -38t-76.5 -14q-40 0 -69.5 12.5t-47.5 35.5t-24.5 54t0.5 69l6 30h82l-6 -31q-3 -18 -2 -35.5t8 -31.5t21.5 -22.5t37.5 -8.5q25 0 43 9t30 23t18.5 32.5t9.5 36.5
l48 273h-322l12 70h649q28 9 62 9q43 0 74 -13.5t49 -38.5t21.5 -60.5t-8.5 -79.5h-64q14 54 -6 88t-72 34q-23 0 -42.5 -8t-35 -22t-26 -33t-13.5 -40q-12 -58 20.5 -90t98.5 -32h68l-12 -68h-54q-69 0 -108 -29.5t-47 -76.5q-5 -28 4 -49t27.5 -35t45 -21t55.5 -7
q46 0 86.5 15.5t71.5 44.5t51.5 70t27.5 92l1 4q3 22 11 47h14q41 0 75.5 8t61 27t44.5 49.5t26 75.5l12 69h-182l13 70h680l-13 -70h-131l-118 -670h-83l38 215q-35 -44 -91 -73.5t-134 -29.5q-83 0 -138 35t-78 98q-38 -69 -104 -108.5t-154 -39.5z" />
    <glyph glyph-name="dvG_DH_VA" horiz-adv-x="1572" 
d="M710 97q-49 0 -90 11t-69 33.5t-41 55.5t-5 78q6 34 21.5 59.5t36 42.5t44 27t46.5 13v3q-24 6 -44.5 19t-35 33.5t-20 49t0.5 64.5q7 46 34 84h-157l-47 -270q-6 -36 -20.5 -68t-37.5 -56t-56.5 -38t-76.5 -14q-40 0 -69.5 12.5t-47.5 35.5t-24.5 54t0.5 69l6 30h82
l-6 -31q-3 -18 -2 -35.5t8 -31.5t21.5 -22.5t37.5 -8.5q25 0 43 9t30 23t18.5 32.5t9.5 36.5l48 273h-322l12 70h648q28 9 62 9q43 0 74 -13.5t49 -38.5t21.5 -60.5t-8.5 -79.5h-64q14 54 -6 88t-72 34q-23 0 -42.5 -8t-35 -22t-26 -33t-13.5 -40q-12 -58 20.5 -90t98.5 -32
h68l-12 -68h-54q-69 0 -108 -29.5t-47 -76.5q-6 -30 3 -51.5t28.5 -35t46.5 -19.5t57 -6q91 0 151 44.5t88 133.5q10 50 34.5 90.5t59 68.5t78 43t92.5 15q71 0 113.5 -29t58.5 -76l37 212h-415l13 70h628l-13 -70h-132l-117 -670h-81l35 199q-32 -45 -83 -74t-120 -29
q-72 0 -121 33.5t-66 94.5q-42 -62 -105.5 -94.5t-150.5 -32.5zM1181 163q44 0 78.5 15t59 39t39.5 53.5t20 57.5q6 30 1.5 60t-21 53.5t-46 38.5t-73.5 15q-35 0 -67 -11.5t-58.5 -33t-45 -52t-25.5 -68.5q-7 -39 0.5 -70t26 -52.5t47 -33t64.5 -11.5z" />
    <glyph glyph-name="dvG_NA" horiz-adv-x="1241" 
d="M687 188q27 0 51.5 9.5t44 26t32.5 39t18 48.5q10 54 -19 88.5t-84 34.5q-29 0 -54 -9t-45 -25.5t-33.5 -39.5t-18.5 -50q-9 -54 20.5 -88t87.5 -34zM987 0l77 434h-196q20 -23 29.5 -56t1.5 -77q-7 -43 -27.5 -77t-50.5 -58t-67 -36.5t-77 -12.5q-45 0 -80.5 14.5
t-58.5 41t-33 62.5t-2 79q8 46 30 81.5t54 59.5t73 36.5t88 12.5h328l29 166h-674l-47 -270q-6 -36 -20.5 -68t-37.5 -56t-56.5 -38t-76.5 -14q-40 0 -69.5 12.5t-47.5 35.5t-24.5 54t0.5 69l6 30h82l-6 -31q-3 -18 -2 -35.5t8 -31.5t21.5 -22.5t37.5 -8.5q25 0 43 9t30 23
t18.5 32.5t9.5 36.5l48 273h-322l12 70h1294l-12 -70h-132l-118 -670h-83z" />
    <glyph glyph-name="dvG_N_YA" horiz-adv-x="1699" 
d="M681 150q27 0 51.5 9.5t44 26t33 39t18.5 48.5q10 54 -19 88t-85 34q-57 0 -98 -34t-51 -89q-10 -54 19.5 -88t86.5 -34zM1283 182q40 0 76.5 12.5t66.5 35t51 54t31 70.5l56 316h-202l-14 -83q-16 -89 -76 -134.5t-157 -50.5q-7 -46 1 -86t29.5 -70t56 -47t81.5 -17z
M1446 0l38 214q-34 -44 -89 -73t-134 -29q-59 0 -105 20.5t-76 58t-42 90t-4 115.5h-172q20 -23 30 -56t2 -77q-8 -43 -28 -77t-49.5 -58t-66.5 -36.5t-78 -12.5q-45 0 -80.5 14.5t-58.5 41t-32.5 62.5t-2.5 79q8 46 30 81t54 59t72.5 36.5t87.5 12.5h321q43 0 78 7t61 23
t42.5 42t23.5 64l12 69h-849l-47 -270q-6 -36 -20.5 -68t-37.5 -56t-56.5 -38t-76.5 -14q-40 0 -69.5 12.5t-47.5 35.5t-24.5 54t0.5 69l6 30h82l-6 -31q-3 -18 -2 -35.5t8 -31.5t21.5 -22.5t37.5 -8.5q25 0 43 9t30 23t18.5 32.5t9.5 36.5l48 273h-322l12 70h1753l-13 -70
h-130l-119 -670h-83z" />
    <glyph glyph-name="dvG_BA" horiz-adv-x="1133" 
d="M917 199q-31 -46 -84 -77t-125 -31q-50 0 -91.5 17.5t-69 49t-39 76.5t-1.5 99q9 55 34.5 98.5t62.5 74t83.5 47t98.5 16.5q73 0 116.5 -31t60.5 -76l36 208h-568l-47 -270q-6 -36 -20.5 -68t-37.5 -56t-56.5 -38t-76.5 -14q-40 0 -69.5 12.5t-47.5 35.5t-24.5 54t0.5 69
l6 30h82l-6 -31q-3 -18 -2 -35.5t8 -31.5t21.5 -22.5t37.5 -8.5q25 0 43 9t30 23t18.5 32.5t9.5 36.5l48 273h-322l12 70h1185l-12 -70h-132l-117 -670h-80zM733 153q40 0 72.5 12.5t58.5 32.5l-233 240q-20 -22 -33 -49t-18 -59q-8 -42 1 -75t30.5 -55.5t52.5 -34.5t69 -12
zM794 512q-74 0 -133 -45l233 -240q20 24 32.5 51.5t17.5 53.5q6 33 0 65t-24 57.5t-49.5 41.5t-76.5 16z" />
    <glyph glyph-name="dvG_BHA" horiz-adv-x="1232" 
d="M661 172q51 0 84 34.5t43 97.5l14 81h-90q-53 0 -91 -28t-47 -79q-9 -49 16.5 -77.5t70.5 -28.5zM650 101q-40 0 -71.5 12.5t-52 36t-29 56t-1.5 72.5q8 43 28.5 75.5t50.5 55t67 34t79 11.5h93l17 94q11 59 -4 94t-65 35q-17 0 -36 -7h-295l-47 -270q-6 -36 -20.5 -68
t-37.5 -56t-56.5 -38t-76.5 -14q-40 0 -70 12.5t-48 35.5t-24 54t1 69l6 30h82l-6 -31q-4 -18 -3 -35.5t8.5 -31.5t22 -22.5t37.5 -8.5q25 0 43 9t30 23t18.5 32.5t9.5 36.5l48 273h-322l12 70h673q27 9 61 9q47 0 77 -15.5t46 -44t18.5 -68t-6.5 -86.5l-14 -81h164l50 286
h216l-12 -70h-132l-119 -670h-83l68 385h-164l-13 -77q-18 -100 -73 -153.5t-145 -53.5z" />
    <glyph glyph-name="dvG_BH_YA" horiz-adv-x="1677" 
d="M1261 182q42 0 80 14t68.5 39t51 60t27.5 77v-1l53 299h-201l-15 -83q-17 -97 -75.5 -145t-154.5 -53l-2 -9q-18 -94 27 -146t141 -52zM661 172q50 0 83 34.5t44 97.5l14 81h-90q-53 0 -91 -28t-47 -79q-9 -49 16.5 -77.5t70.5 -28.5zM652 101q-41 0 -73 12.5t-53 36
t-29 56t-1 72.5q8 43 28.5 75.5t50.5 55t67 34t79 11.5h93l17 94q11 59 -4.5 94t-64.5 35q-41 0 -70.5 -27.5t-39.5 -77.5q-3 -19 -2 -38h-83q-1 19 2 41q9 54 39 95h-177l-47 -270q-6 -36 -20.5 -68t-37.5 -56t-56.5 -38t-76.5 -14q-40 0 -69.5 12.5t-47.5 35.5t-24.5 54
t0.5 69l6 30h82l-6 -31q-3 -18 -2 -35.5t8 -31.5t21.5 -22.5t37.5 -8.5q25 0 43 9t30 23t18.5 32.5t9.5 36.5l48 273h-322l12 70h668q30 9 64 9q46 0 76.5 -15.5t47 -44t19.5 -68t-6 -86.5l-14 -81h166q35 0 65.5 6.5t55 23.5t41 45t24.5 72l12 69h-204l12 70h704l-13 -70
h-132l-117 -670h-84l38 215q-34 -44 -90 -73.5t-134 -29.5q-62 0 -109.5 19t-77 54t-40 86t1.5 114h-131l-13 -77q-18 -100 -73 -153.5t-143 -53.5z" />
    <glyph glyph-name="dvG_MA" horiz-adv-x="1243" 
d="M1107 670h-183l-38 -216h183zM654 172q51 0 83.5 34.5t43.5 97.5l14 81h-92q-52 0 -90 -28t-46 -79q-9 -49 16.5 -77.5t70.5 -28.5zM989 0l68 385h-183l-14 -77q-17 -100 -72.5 -153.5t-142.5 -53.5q-42 0 -74 13t-52.5 36t-28.5 56t-1 72q7 43 27.5 75.5t50.5 55
t67.5 34t78.5 11.5h95l38 216h-415l-47 -270q-6 -36 -20.5 -68t-37.5 -56t-56.5 -38t-76.5 -14q-40 0 -69.5 12.5t-47.5 35.5t-24.5 54t0.5 69l6 30h82l-6 -31q-3 -18 -2 -35.5t8 -31.5t21.5 -22.5t37.5 -8.5q25 0 43 9t30 23t18.5 32.5t9.5 36.5l48 273h-322l12 70h1296
l-12 -70h-131l-118 -670h-84z" />
    <glyph glyph-name="dvG_YA" horiz-adv-x="1182" 
d="M766 182q42 0 80.5 14t69 39t51 60t27.5 77v-1l53 299h-202l-14 -83q-17 -97 -76 -143.5t-155 -50.5q0 -2 -0.5 -3.5t-0.5 -3.5q-17 -94 28 -149t139 -55zM929 0l38 216q-34 -45 -90.5 -74.5t-134.5 -29.5q-62 0 -109 20t-76.5 57t-40 89t1.5 116q2 11 5 23l6 24h15
q41 0 75.5 8t61 27t44.5 49.5t26 75.5l12 69h-332l-47 -270q-6 -36 -20.5 -68t-37.5 -56t-56.5 -38t-76.5 -14q-40 0 -69.5 12.5t-47.5 35.5t-24.5 54t0.5 69l6 30h82l-6 -31q-3 -18 -2 -35.5t8 -31.5t21.5 -22.5t37.5 -8.5q25 0 43 9t30 23t18.5 32.5t9.5 36.5l48 273h-322
l12 70h1236l-13 -70h-131l-118 -670h-83z" />
    <glyph glyph-name="dvG_R_YA" horiz-adv-x="1183" 
d="M767 182q42 0 80.5 14t69 39t51 60t27.5 77v-1l53 299h-202l-14 -83q-17 -97 -76 -143.5t-155 -50.5q0 -2 -0.5 -3.5t-0.5 -3.5q-17 -94 28 -149t139 -55zM743 112q-81 0 -136.5 34t-78.5 95l-305 -261h-99l390 324q-2 21 -1 43.5t6 46.5q2 11 5 23l6 24h15q41 0 75.5 8
t61 27t44.5 49.5t26 75.5l12 69h-333l-37 -217q-6 -36 -20.5 -68t-37.5 -55.5t-56.5 -37.5t-77.5 -14q-41 0 -70.5 13t-47 36.5t-23.5 55t1 68.5q2 8 3 14t3 14h81l-6 -31q-4 -18 -3 -36t8.5 -32t22 -22.5t37.5 -8.5q25 0 43 9t30 23t19 32t10 36l38 221h-322l13 70h1236
l-13 -70h-131l-118 -670h-83l38 216q-34 -45 -90.5 -74.5t-134.5 -29.5z" />
    <glyph glyph-name="dvG_LA" horiz-adv-x="1348" 
d="M1268 309q-9 -53 -32 -97t-58 -76t-82.5 -50t-106.5 -17q-8 0 -18 0.5t-18 1.5l13 73q7 -1 14.5 -1.5t14.5 -0.5q39 0 70.5 12.5t55.5 35t40 54t23 68.5q6 33 2.5 61.5t-15.5 50t-34 33.5t-54 12q-69 0 -111 -51t-56 -132l-3 -15h-69l1 15q8 40 6.5 73.5t-13 58t-34 38
t-55.5 13.5q-34 0 -61 -12t-47.5 -33t-33.5 -49.5t-19 -62.5q-7 -37 -2.5 -68t21 -53.5t44 -35.5t67.5 -13q7 0 13.5 0.5t14.5 1.5l-13 -73q-9 -1 -15.5 -1.5t-14.5 -0.5q-59 0 -101 19t-67 52.5t-32.5 79t1.5 97.5q19 109 85 167.5t158 58.5q40 0 68 -13t46 -33.5t27 -46.5
t11 -52h2q10 24 26 47.5t37.5 43.5t49 33.5t62.5 18.5l23 129h-668l-47 -270q-6 -36 -20.5 -68t-37.5 -56t-56.5 -38t-76.5 -14q-40 0 -69.5 12.5t-47.5 35.5t-24.5 54t0.5 69l6 30h82l-6 -31q-3 -18 -2 -35.5t8 -31.5t21.5 -22.5t37.5 -8.5q25 0 43 9t30 23t18.5 32.5
t9.5 36.5l48 273h-322l12 70h1402l-13 -70h-246l-24 -133q66 -18 96.5 -78t14.5 -150z" />
    <glyph glyph-name="dvG_VA" horiz-adv-x="1118" 
d="M726 163q44 0 78 15t59 39t40 53.5t20 57.5q6 30 1.5 60t-21 53.5t-46 38.5t-73.5 15q-35 0 -67.5 -11.5t-58.5 -33t-44.5 -52t-25.5 -68.5q-7 -39 0.5 -70t26 -52.5t47 -33t64.5 -11.5zM1065 670l-118 -670h-81l35 199q-32 -45 -83 -74t-120 -29q-50 0 -90 16.5
t-65.5 48t-35.5 76.5t1 101q9 52 33 93.5t58.5 70.5t78 45t92.5 16q71 0 114 -28.5t63 -72.5l36 208h-552l-47 -270q-6 -36 -20.5 -68t-37.5 -56t-56.5 -38t-76.5 -14q-40 0 -69.5 12.5t-47.5 35.5t-24.5 54t0.5 69l6 30h82l-6 -31q-3 -18 -2 -35.5t8 -31.5t21.5 -22.5
t37.5 -8.5q25 0 43 9t30 23t18.5 32.5t9.5 36.5l48 273h-322l12 70h1171l-13 -70h-131z" />
    <glyph glyph-name="dvG_SA" horiz-adv-x="1255" 
d="M901 579q-10 -57 -34 -96t-56 -65h263l45 252h-202zM883 204q-6 -47 -23.5 -86t-45.5 -67.5t-66.5 -44t-86.5 -15.5q-50 0 -86 16.5t-58 46t-29 69.5t1 88l36 200h93q86 0 136 45.5t64 122.5l16 91h-403l-47 -270q-6 -36 -20.5 -68t-37.5 -56t-56.5 -38t-76.5 -14
q-40 0 -69.5 12.5t-47.5 35.5t-24.5 54t0.5 69l6 30h82l-6 -31q-3 -18 -2 -35.5t8 -31.5t21.5 -22.5t37.5 -8.5q25 0 43 9t30 23t18.5 32.5t9.5 36.5l48 273h-322l12 70h1308l-13 -70h-131l-118 -670h-83l61 349h-465l-26 -146q-11 -62 12.5 -101t84.5 -39q58 0 91.5 40
t42.5 101h81z" />
    <glyph glyph-name="dvGH_NA" horiz-adv-x="1221" 
d="M668 188q27 0 51.5 9.5t44 26t32.5 39t18 48.5q10 54 -19 88.5t-84 34.5q-29 0 -54 -9t-45 -25.5t-33.5 -39.5t-18.5 -50q-9 -54 20.5 -88t87.5 -34zM290 174q73 0 122 46.5t77 121.5l5 9q25 75 87.5 114t147.5 39h328l29 166h-851l-13 -73q-10 -58 16.5 -89t99.5 -31h47
l-12 -68h-53q-78 0 -118 -32.5t-48 -79.5q-6 -31 2 -54t27 -38.5t46.5 -23t60.5 -7.5zM1169 670l-118 -670h-83l77 434h-196q20 -23 29.5 -56t1.5 -77q-7 -43 -27.5 -77t-50.5 -58t-67 -36.5t-77 -12.5q-65 0 -110 30t-60 81q-35 -57 -90 -90t-128 -33q-51 0 -92 12
t-68 35.5t-38.5 58.5t-3.5 80q6 33 21.5 59t37.5 44.5t47.5 30.5t52.5 16l1 2q-23 4 -42.5 14.5t-32 28.5t-17 44.5t2.5 62.5l13 77h-126l12 70h1275l-12 -70h-132z" />
    <glyph glyph-name="dvGH_MA" horiz-adv-x="1227" 
d="M1091 670h-183l-38 -216h183zM638 172q51 0 83.5 34.5t43.5 97.5l14 81h-92q-52 0 -90 -28t-46 -79q-9 -49 16.5 -77.5t70.5 -28.5zM290 174q35 0 64.5 10.5t53 29t42 43t30.5 52.5q23 71 82.5 108t134.5 37h95l38 216h-595l-13 -73q-10 -58 16.5 -89t99.5 -31h47
l-12 -68h-53q-78 0 -118 -32.5t-48 -79.5q-6 -31 2.5 -54t27 -38.5t46 -23t60.5 -7.5zM1175 670l-118 -670h-84l68 385h-183l-14 -77q-17 -100 -72.5 -153.5t-142.5 -53.5q-61 0 -101 26.5t-53 73.5q-33 -42 -85 -69t-120 -27q-51 0 -92 12t-68 35.5t-38.5 58.5t-3.5 80
q6 33 21.5 59t37.5 44.5t47.5 30.5t52.5 16l1 2q-23 4 -42.5 14.5t-32 28.5t-17 44.5t2.5 62.5l13 77h-126l12 70h1280l-12 -70h-131z" />
    <glyph glyph-name="dvGH_YA" horiz-adv-x="1189" 
d="M290 174q42 0 79.5 14.5t67.5 40.5t51.5 62t30.5 79l2 12l2 12q2 11 5 23l6 24h15q41 0 75.5 8t61 27t44.5 49.5t26 75.5l12 69h-533l-13 -73q-10 -58 16 -89t99 -31h48l-13 -68h-52q-78 0 -118 -32.5t-49 -80.5q-5 -31 3 -54t27 -38t46.5 -22.5t60.5 -7.5zM771 182
q42 0 80.5 14t69 39t51 60t27.5 77v-1l53 299h-202l-14 -83q-17 -97 -76 -143.5t-155 -50.5q0 -2 -0.5 -3.5t-0.5 -3.5q-17 -94 28 -149t139 -55zM1135 670l-118 -670h-83l38 216q-34 -45 -90.5 -74.5t-134.5 -29.5q-81 0 -136 33.5t-78 93.5q-43 -61 -108.5 -97.5
t-146.5 -36.5q-55 0 -97.5 12.5t-70.5 36.5t-39 58.5t-3 78.5q6 33 21.5 59t37.5 44.5t47.5 30.5t52.5 16l1 2q-23 4 -42.5 14.5t-32 28.5t-17 44.5t2.5 62.5l13 77h-126l12 70h1241l-13 -70h-131z" />
    <glyph glyph-name="dvC_CA" horiz-adv-x="1132" 
d="M340 170q33 0 62 10.5t53 29t42.5 43.5t30.5 53q11 51 41 91.5t76 63.5h-252q-36 0 -67 -11.5t-55 -31t-39.5 -47t-21.5 -58.5q-6 -35 1.5 -61.5t25.5 -44.5t44.5 -27.5t58.5 -9.5zM1079 670l-118 -670h-83l36 206q-35 -49 -90.5 -77.5t-120.5 -28.5t-112.5 30t-61.5 86
q-38 -52 -93.5 -84.5t-124.5 -32.5q-43 0 -80 13.5t-62.5 39.5t-36.5 63.5t-3 84.5q10 54 40.5 95.5t78.5 65.5h-183l12 66h760l-12 -66h-35q-36 0 -66.5 -11.5t-54.5 -31t-40 -47t-22 -58.5q-6 -35 2 -61.5t26 -44.5t44.5 -27.5t58.5 -9.5q37 0 69 12.5t58 35t44.5 52.5
t27.5 65l59 335h-970l12 70h1185l-12 -70h-132z" />
    <glyph glyph-name="dvC_CHA" horiz-adv-x="1274" 
d="M807 99q66 0 123.5 16.5t102.5 48t75 77t41 103.5q6 36 1.5 63t-17 45t-31 27t-39.5 9q-18 0 -38 -6.5t-37.5 -20t-31 -36t-18.5 -53.5q-5 -21 -4.5 -44.5t4.5 -48.5h-70q-8 51 1 101q7 40 23.5 69t38.5 49.5t49 32t55 16.5l23 123h-369l-18 -102q-10 -58 14.5 -89
t95.5 -31h23l-12 -69h-21q-40 0 -71 -10t-53 -27t-35.5 -40t-17.5 -48q-7 -38 5.5 -67t40.5 -48.5t70.5 -29.5t96.5 -10zM1223 342q-13 -74 -50.5 -132t-93.5 -99t-128.5 -62.5t-156.5 -21.5q-57 0 -105.5 10t-86 29.5t-61.5 47.5t-32 65q-37 -37 -85 -58.5t-103 -21.5
q-44 0 -83 13.5t-66 39t-39.5 63t-3.5 85.5q10 54 40.5 95.5t78.5 65.5h-183l12 66h364l-13 -66h-35q-36 0 -67 -11.5t-55 -31t-39.5 -47t-21.5 -58.5q-6 -35 2 -61.5t26 -44.5t44.5 -27.5t57.5 -9.5q28 0 54.5 9t49 24t41 35.5t32.5 43.5q20 56 62.5 88t96.5 41v3
q-23 4 -42 14.5t-31.5 28.5t-17 45t1.5 63l20 105h-581l12 70h1327l-12 -70h-218l-22 -124q30 -6 54 -21.5t39 -41t20 -61t-3 -80.5z" />
    <glyph glyph-name="dvC_CH_VA" horiz-adv-x="1276" 
d="M731 -247q37 0 66 12.5t49.5 32t33 43.5t16.5 48h1l27 153q-62 -15 -130 -15h-4q-72 -2 -117.5 -40.5t-56.5 -96.5q-11 -65 23 -101t92 -36zM807 99q66 0 123.5 16.5t102.5 48t75 77t41 103.5q6 36 1.5 63t-17 45t-31 27t-39.5 9q-18 0 -38 -6.5t-37.5 -20t-31 -36
t-18.5 -53.5q-5 -21 -4.5 -44.5t4.5 -48.5h-70q-8 51 1 101q7 40 23.5 69t38.5 49.5t49 32t55 16.5l23 123h-369l-18 -102q-10 -58 14.5 -89t95.5 -31h23l-12 -69h-21q-40 0 -71 -10t-53 -27t-35.5 -40t-17.5 -48q-7 -38 5.5 -67t40.5 -48.5t70.5 -29.5t96.5 -10zM1223 342
q-17 -97 -74.5 -166.5t-145.5 -107.5l-77 -440h-75l25 143q-28 -37 -71.5 -60.5t-103.5 -22.5q-41 1 -74.5 15.5t-55.5 40.5t-31 61.5t-1 78.5q10 58 42 98.5t79 61.5q-61 17 -100.5 51t-50.5 84q-37 -37 -85 -58.5t-103 -21.5q-44 0 -83 13.5t-66 39t-39.5 63t-3.5 85.5
q10 54 40.5 95.5t78.5 65.5h-183l12 66h364l-13 -66h-35q-36 0 -67 -11.5t-55 -31t-39.5 -47t-21.5 -58.5q-6 -35 2 -61.5t26 -44.5t44.5 -27.5t57.5 -9.5q28 0 54.5 9t49 24t41 35.5t32.5 43.5q20 56 62.5 88t96.5 41v3q-23 4 -42 14.5t-31.5 28.5t-17 45t1.5 63l20 105
h-581l12 70h1327l-12 -70h-218l-22 -124q30 -6 54 -21.5t39 -41t20 -61t-3 -80.5z" />
    <glyph glyph-name="dvC_NA" horiz-adv-x="1251" 
d="M698 188q27 0 51.5 9.5t44 26t32.5 39t18 48.5q10 54 -19 88.5t-84 34.5q-29 0 -54 -9t-45 -25.5t-33.5 -39.5t-18.5 -50q-9 -54 20.5 -88t87.5 -34zM1199 670l-118 -670h-83l77 434h-196q20 -23 29.5 -56t1.5 -77q-7 -43 -27.5 -77t-50.5 -58t-67 -36.5t-77 -12.5
q-59 0 -101 25t-62 68q-33 -51 -85.5 -81t-118.5 -30q-44 0 -82.5 13.5t-65.5 39t-40 63t-4 85.5q10 54 40.5 95.5t78.5 65.5h-183l12 66h364l-13 -66h-35q-36 0 -67 -11.5t-55 -31t-39.5 -47t-21.5 -58.5q-6 -35 2 -61.5t26 -44.5t44.5 -27.5t57.5 -9.5q33 0 61 11t50 30
t37.5 44.5t24.5 54.5l1 4q8 46 30 81.5t54 59.5t73 36.5t88 12.5h328l29 166h-1090l12 70h1305l-12 -70h-132z" />
    <glyph glyph-name="dvC_MA" horiz-adv-x="1258" 
d="M1122 670h-183l-38 -216h183zM669 172q51 0 83.5 34.5t43.5 97.5l14 81h-92q-52 0 -90 -28t-46 -79q-9 -49 16.5 -77.5t70.5 -28.5zM1206 670l-118 -670h-84l68 385h-183l-14 -77q-17 -100 -72.5 -153.5t-142.5 -53.5q-58 0 -97.5 24.5t-53.5 67.5q-35 -44 -83 -69
t-109 -25q-44 0 -82 13.5t-64.5 39t-38.5 63t-3 85.5q10 54 40.5 95.5t78.5 65.5h-183l12 66h364l-13 -66h-35q-36 0 -67 -11.5t-55 -31t-39.5 -47t-21.5 -58.5q-6 -35 1.5 -61.5t25.5 -44.5t44.5 -27.5t57.5 -9.5t57.5 10t48 27.5t37.5 41t27 50.5q20 76 80.5 115.5
t138.5 39.5h95l38 216h-835l12 70h1311l-12 -70h-131z" />
    <glyph glyph-name="dvC_YA" horiz-adv-x="1216" 
d="M799 182q42 0 80.5 14t69 39t51 60t27.5 77v-1l53 299h-202l-14 -83q-17 -97 -76 -143.5t-155 -50.5q0 -2 -0.5 -3.5t-0.5 -3.5q-17 -94 28 -149t139 -55zM1163 670l-118 -670h-83l38 216q-34 -45 -90.5 -74.5t-134.5 -29.5q-83 0 -138.5 35t-77.5 98q-38 -68 -97.5 -107
t-140.5 -39q-44 0 -82.5 13t-66 38.5t-40 63t-3.5 86.5q10 54 40.5 95.5t78.5 65.5h-183l12 66h364l-13 -66h-35q-36 0 -67 -11.5t-55 -31t-39.5 -47t-21.5 -58.5q-6 -35 2 -61.5t26 -44.5t44.5 -27.5t57.5 -9.5q43 0 77 16t59.5 44.5t44 68t29.5 86.5q0 6 1 9q2 11 5 23
l6 24h15q41 0 75.5 8t61 27t44.5 49.5t26 75.5l12 69h-770l12 70h1269l-13 -70h-131z" />
    <glyph glyph-name="dvCH_YA" horiz-adv-x="1365" 
d="M348 99q66 0 123.5 16.5t102.5 48t75 77t41 103.5q6 36 1.5 63t-17 45t-31 27t-39.5 9q-18 0 -38 -6.5t-37.5 -20t-31 -36t-18.5 -53.5q-5 -21 -4.5 -44.5t4.5 -48.5h-70q-8 51 1 101q8 46 29 78.5t49.5 53t61.5 29.5t66 9q51 0 88.5 -22.5t53.5 -69.5q75 4 118.5 35.5
t57.5 105.5l12 71h-716l-18 -102q-10 -58 14.5 -89t95.5 -31h23l-12 -69h-21q-40 0 -71 -10t-53 -27t-35.5 -40t-17.5 -48q-7 -38 5.5 -67t40.5 -48.5t70.5 -29.5t96.5 -10zM949 182q40 0 77 13t67 36.5t51 57t30 74.5l55 307h-202l-14 -83q-17 -97 -80 -144t-164 -50
q0 -20 -3 -36q2 -82 48 -128.5t135 -46.5zM1312 670l-117 -670h-85l38 215q-34 -44 -89 -73.5t-130 -29.5q-77 0 -129 30t-77 84q-54 -95 -155 -147t-233 -52q-69 0 -126 15t-95.5 43.5t-56 70t-7.5 95.5q6 35 22 62.5t38 47.5t49.5 32.5t57.5 17.5v3q-23 4 -42 14.5
t-31.5 28.5t-17 45t1.5 63l20 105h-124l12 70h1420l-12 -70h-132z" />
    <glyph glyph-name="dvCH_R_YA" horiz-adv-x="1365" 
d="M348 99q66 0 123.5 16.5t102.5 48t75 77t41 103.5q6 36 1.5 63t-17 45t-31 27t-39.5 9q-18 0 -38 -6.5t-37.5 -20t-31 -36t-18.5 -53.5q-5 -21 -4.5 -44.5t4.5 -48.5h-70q-8 51 1 101q8 46 29 78.5t49.5 53t61.5 29.5t66 9q51 0 88.5 -22.5t53.5 -69.5q75 4 118.5 35.5
t57.5 105.5l12 71h-716l-18 -102q-10 -58 14.5 -89t95.5 -31h23l-12 -69h-21q-40 0 -71 -10t-53 -27t-35.5 -40t-17.5 -48q-7 -38 5.5 -67t40.5 -48.5t70.5 -29.5t96.5 -10zM949 182q40 0 77 13t67 36.5t51 57t30 74.5l55 307h-202l-14 -83q-17 -97 -80 -144t-164 -50
q0 -20 -3 -36q2 -82 48 -128.5t135 -46.5zM363 25l-161 -147h-87l167 151q-58 6 -105 23t-78 45t-44.5 67t-4.5 87q6 35 22 62.5t38 47.5t49.5 32.5t57.5 17.5v3q-23 4 -42 14.5t-31.5 28.5t-17 45t1.5 63l20 105h-124l12 70h1420l-12 -70h-132l-117 -670h-85l38 215
q-34 -44 -89 -73.5t-130 -29.5q-77 0 -129 30t-77 84q-42 -75 -115 -123.5t-168 -66.5l120 -158h-88z" />
    <glyph glyph-name="dvJ_KA" horiz-adv-x="1546" 
d="M986 201q-29 -45 -77.5 -74t-115.5 -29q-46 0 -83 16.5t-61 47t-33.5 73.5t0.5 97q5 26 13.5 50t19.5 45h-176l-17 -95q-8 -44 -27.5 -81t-48.5 -64t-67.5 -41.5t-84.5 -14.5q-44 0 -77 15t-54 42t-28.5 64.5t0.5 82.5l29 164h84l-29 -165q-11 -58 12 -94t74 -36
q53 0 88.5 36t46.5 94l30 165h303q69 60 163 60q69 0 108 -29.5t53 -74.5l38 215h-1042l12 70h1600l-13 -70h-477l-38 -213q29 44 75.5 73t112.5 29q45 0 81 -17t59 -47.5t31.5 -72.5t-0.5 -93q-10 -55 -33 -97t-56 -71t-74 -44t-86 -15q-16 0 -31.5 1.5t-28.5 5.5l11 66
q9 -2 20 -3t22 -1q30 0 58 10.5t51.5 31t40 50t23.5 67.5q6 36 -0.5 65t-22.5 49.5t-41.5 31.5t-56.5 11q-37 0 -66.5 -13t-51 -34t-36.5 -48t-22 -55l-59 -337h-80zM827 168q39 0 69 13.5t52.5 34.5t37 47t20.5 51l4 19q4 27 -0.5 54.5t-19.5 49.5t-41.5 36t-66.5 14
q-32 0 -61.5 -11t-54 -31t-42 -49.5t-23.5 -65.5q-7 -38 -0.5 -68t24 -51t43.5 -32t59 -11z" />
    <glyph glyph-name="dvJ_JA" horiz-adv-x="1409" 
d="M1156 0l75 427h-189l-17 -95q-8 -44 -27.5 -81t-48.5 -64t-67.5 -41.5t-84.5 -14.5q-44 0 -77 15t-54 42t-28.5 64.5t0.5 82.5l16 92h-181l-17 -95q-8 -44 -27.5 -81t-48.5 -64t-67.5 -41.5t-84.5 -14.5q-44 0 -77 15t-54 42t-28.5 64.5t0.5 82.5l29 164h84l-29 -165
q-11 -58 12 -94t74 -36q53 0 88.5 36t46.5 94l30 165h347l-29 -165q-11 -58 12 -94t74 -36q53 0 88.5 36t46.5 94l30 165h271l30 171h-1247l12 70h1462l-13 -70h-130l-119 -670h-83z" />
    <glyph glyph-name="dvJx_JxA" horiz-adv-x="1409" 
d="M1156 0l75 427h-189l-17 -95q-8 -44 -27.5 -81t-48.5 -64t-67.5 -41.5t-84.5 -14.5q-44 0 -77 15t-54 42t-28.5 64.5t0.5 82.5l16 92h-181l-17 -95q-8 -44 -27.5 -81t-48.5 -64t-67.5 -41.5t-84.5 -14.5q-44 0 -77 15t-54 42t-28.5 64.5t0.5 82.5l29 164h84l-29 -165
q-11 -58 12 -94t74 -36q53 0 88.5 36t46.5 94l30 165h347l-29 -165q-11 -58 12 -94t74 -36q53 0 88.5 36t46.5 94l30 165h271l30 171h-1247l12 70h1462l-13 -70h-130l-119 -670h-83zM196 -60q-24 0 -37.5 16t-9.5 39q4 24 23 40.5t43 16.5q23 0 36.5 -16.5t9.5 -40.5
q-4 -23 -23 -39t-42 -16zM765 -60q-24 0 -37.5 16t-9.5 39q4 24 23 40.5t43 16.5q23 0 36.5 -16.5t9.5 -40.5q-4 -23 -23 -39t-42 -16z" />
    <glyph glyph-name="dvJ_J_NYA" horiz-adv-x="1337" 
d="M1159 431h-214q42 -22 62.5 -63t10.5 -103q-6 -42 -25.5 -76t-48 -58.5t-66 -38t-79.5 -12.5q-62 1 -101.5 26.5t-53.5 60.5l-28 -160h-81l48 273h78q-2 -32 7 -56.5t27 -41t42 -25t52 -8.5q63 0 104.5 38.5t52.5 95.5q12 71 -28.5 109.5t-113.5 38.5h-330l-18 -99
q-8 -44 -27.5 -81t-48.5 -64t-67.5 -41.5t-84.5 -14.5q-44 0 -77 15t-54 42t-28.5 64.5t0.5 82.5l29 164h84l-29 -165q-11 -58 12 -94t74 -36q53 0 88.5 36t46.5 94l30 165h767l30 171h-1174l12 70h1389l-13 -70h-131l-118 -670h-83z" />
    <glyph glyph-name="dvJ_J_YA" horiz-adv-x="1865" 
d="M1450 182q42 0 80.5 14t68.5 39t50.5 60t27.5 77v-1l53 299h-201l-15 -83q-15 -87 -74.5 -131.5t-151.5 -49.5q0 -2 -0.5 -3t-0.5 -2q-9 -47 -3 -87t27 -69.5t56 -46t83 -16.5zM1612 0l38 216q-35 -45 -92 -74.5t-135 -29.5q-60 0 -104.5 21t-73 59t-39.5 89.5t-2 113.5
h-42h-126l-11 -63q-8 -44 -27.5 -81t-49 -64t-68 -41.5t-84.5 -14.5q-43 0 -76 15t-54 42t-28.5 65t1.5 85l13 75h-182l-14 -81q-8 -44 -27.5 -81t-48.5 -64t-67.5 -41.5t-84.5 -14.5q-44 0 -77 15t-54 42t-28.5 64.5t0.5 82.5l27 150h84l-27 -151q-11 -58 12 -94t74 -36
q53 0 88.5 36t46.5 94l27 151h348l-27 -151q-11 -58 12 -94t74 -36q53 0 88.5 35.5t46.5 94.5l24 131h266q84 0 136 30.5t65 105.5l12 69h-1419l12 70h1918l-12 -70h-132l-117 -670h-84z" />
    <glyph glyph-name="dvJ_J_VA" horiz-adv-x="1791" 
d="M1400 163q44 0 78 15t59 39t40 53.5t20 57.5q6 30 1.5 60t-21 53.5t-46 38.5t-73.5 15q-35 0 -67.5 -11.5t-58.5 -33t-44.5 -52t-25.5 -68.5q-7 -39 0.5 -70t26 -52.5t47 -33t64.5 -11.5zM1739 670l-118 -670h-81l35 199q-32 -45 -83 -74t-120 -29q-50 0 -90 16.5
t-65.5 48t-35.5 76.5t1 101q9 50 30 89h-170l-17 -95q-8 -44 -27.5 -81t-48.5 -64t-67.5 -41.5t-84.5 -14.5q-44 0 -77 15t-54 42t-28.5 64.5t0.5 82.5l16 92h-181l-17 -95q-8 -44 -27.5 -81t-48.5 -64t-67.5 -41.5t-84.5 -14.5q-44 0 -77 15t-54 42t-28.5 64.5t0.5 82.5
l29 164h84l-29 -165q-11 -58 12 -94t74 -36q53 0 88.5 36t46.5 94l30 165h347l-29 -165q-11 -58 12 -94t74 -36q53 0 88.5 36t46.5 94l30 165h296q35 31 79.5 47.5t95.5 16.5q71 0 114 -28.5t63 -72.5l36 208h-1630l12 70h1844l-13 -70h-131z" />
    <glyph glyph-name="dvJ_JHA" horiz-adv-x="1401" 
d="M1204 323l61 347h-196l-26 -144l-7 -37h-177q-20 0 -42 -3.5t-41.5 -12.5t-34 -25.5t-18.5 -42.5q-4 -23 2 -38.5t19 -25t32 -14t41 -4.5h387zM1193 259l-190 1q19 -20 28 -48.5t2 -67.5q-6 -32 -21.5 -59.5t-40.5 -47.5t-59.5 -32t-77.5 -12q-39 0 -66.5 10t-46 23.5
t-28.5 27.5t-14 23l-27 -154h-80l45 248h75q-1 -23 6 -44t22.5 -37t41 -25t60.5 -9q63 0 95.5 29t39.5 69q9 51 -21.5 80t-99.5 29h-53q-32 1 -61 9.5t-49.5 26.5t-30 45.5t-2.5 65.5q1 5 1.5 9t2.5 8h-171l-17 -95q-8 -44 -27.5 -81t-48.5 -64t-67.5 -41.5t-84.5 -14.5
q-44 0 -77 15t-54 42t-28.5 64.5t0.5 82.5l29 164h84l-29 -165q-11 -58 12 -94t74 -36q53 0 88.5 36t46.5 94l30 165h283q31 29 73.5 40t87.5 11h118l22 120h-961l12 70h1453l-13 -70h-132l-117 -670h-82z" />
    <glyph glyph-name="dvJ_NY_YA" horiz-adv-x="1310" 
d="M893 182q42 0 80.5 14t69 39t51 60t27.5 77v-1l53 299h-202l-14 -83q-17 -97 -76 -143.5t-155 -50.5q0 -2 -0.5 -3.5t-0.5 -3.5q-17 -94 28 -149t139 -55zM1056 0l38 216q-34 -45 -90.5 -74.5t-134.5 -29.5q-62 0 -109 20t-76.5 56.5t-40 88.5t1.5 115q-4 32 -31.5 48.5
t-72.5 16.5h-117q40 -23 60 -63.5t10 -101.5q-7 -42 -26 -76.5t-47.5 -58.5t-65.5 -37t-79 -12q-63 2 -102.5 26.5t-54.5 59.5l-28 -159h-81l48 274h78q-2 -33 7 -57.5t26.5 -41t41.5 -25t52 -8.5q31 0 58 10t47.5 28t34 42.5t18.5 53.5q6 36 -2 63t-27.5 45.5t-48.5 28
t-64 9.5h-20l12 68h283q66 0 105.5 -22t52.5 -60q66 8 109 43.5t57 114.5l12 69h-863l12 70h1362l-13 -70h-131l-118 -670h-83z" />
    <glyph glyph-name="dvJ_TTA" horiz-adv-x="1196" 
d="M833 43q-59 0 -106 18.5t-78.5 52.5t-44.5 80.5t-3 103.5q13 76 53 129h-181l-17 -95q-8 -44 -27.5 -81t-48.5 -64t-67.5 -41.5t-84.5 -14.5q-44 0 -77 15t-54 42t-28.5 64.5t0.5 82.5l29 164h84l-29 -165q-11 -58 12 -94t74 -36q53 0 88.5 36t46.5 94l30 165h325
q43 28 95 41.5t112 13.5h24l21 116h-954l12 70h1248l-12 -70h-212l-34 -187h-100q-44 0 -84.5 -11.5t-73 -35t-55 -58.5t-31.5 -83q-7 -39 1.5 -72t29.5 -57t53.5 -37.5t73.5 -13.5q42 0 78.5 14t64.5 39t46.5 59.5t25.5 75.5h80q-10 -58 -36 -106t-65.5 -82t-91 -53
t-112.5 -19z" />
    <glyph glyph-name="dvJ_DDA" horiz-adv-x="1099" 
d="M776 -14q-56 0 -99 14.5t-70.5 40t-39.5 61t-5 77.5h83q-9 -56 25 -92.5t112 -36.5q65 0 104.5 30t47.5 75q6 31 -2.5 52t-26 33.5t-41.5 17.5t-51 5h-40q-30 0 -61 7.5t-54 24.5t-35 44.5t-5 68.5q1 5 2 9.5t2 9.5h-149l-17 -95q-8 -44 -27.5 -81t-48.5 -64t-67.5 -41.5
t-84.5 -14.5q-44 0 -77 15t-54 42t-28.5 64.5t0.5 82.5l29 164h84l-29 -165q-11 -58 12 -94t74 -36q53 0 88.5 36t46.5 94l30 165h263q31 27 72 38.5t84 11.5h114l22 121h-932l12 70h1152l-12 -70h-139l-33 -181h-170q-21 0 -43 -3.5t-41 -12.5t-33 -25.5t-19 -41.5
q-4 -23 2 -39t19.5 -26t32 -14t39.5 -4h44q39 0 74.5 -9.5t61 -30t37 -53t3.5 -78.5q-14 -74 -73.5 -120t-164.5 -46z" />
    <glyph glyph-name="dvJ_TA" horiz-adv-x="1249" 
d="M995 0l75 426h-146q-94 0 -157 -43.5t-80 -134.5q-15 -85 25 -132t131 -47h21l-11 -67h-26q-56 0 -102 15.5t-76.5 47t-43.5 78t-2 108.5q10 58 35 101.5t61 73.5h-226l-17 -94q-8 -44 -27.5 -81t-48.5 -64t-67.5 -41.5t-84.5 -14.5q-44 0 -77 15t-54 42t-28.5 64.5
t0.5 82.5l29 166h85l-30 -167q-11 -58 12 -94t74 -36q53 0 88.5 36t46.5 94l30 164h678l31 172h-1086l12 70h1302l-13 -70h-132l-117 -670h-84z" />
    <glyph glyph-name="dvJ_DA" horiz-adv-x="1162" 
d="M935 -16l34 194q-27 -36 -72.5 -57.5t-99.5 -21.5q-46 0 -83.5 16t-62.5 46t-34.5 73t-0.5 97t35 96h-178l-17 -95q-8 -44 -27.5 -81t-48.5 -64t-67.5 -41.5t-84.5 -14.5q-44 0 -77 15t-54 42t-28.5 64.5t0.5 82.5l29 164h84l-29 -165q-11 -58 12 -94t74 -36
q53 0 88.5 36t46.5 94l30 165h312q42 32 95.5 46.5t111.5 14.5h72l19 110h-987l12 70h1215l-13 -70h-143l-32 -182h-148q-39 0 -75.5 -10t-65.5 -30t-49.5 -50.5t-27.5 -71.5q-12 -72 23.5 -116t106.5 -44q24 0 51 8t50 24.5t41 42t24 61.5h76l-55 -318h-82z" />
    <glyph glyph-name="dvJ_NA" horiz-adv-x="1336" 
d="M782 184q27 0 51.5 9.5t44 26t33 39t18.5 48.5q10 54 -19.5 88t-84.5 34q-57 0 -98 -34t-52 -89q-10 -54 20 -88t87 -34zM1082 0l76 429h-194q20 -23 29.5 -56t1.5 -77q-8 -42 -28.5 -76t-50.5 -58t-67 -37t-77 -13q-45 0 -80 15t-58.5 41t-33 62.5t-1.5 78.5
q12 71 57 118h-183l-17 -95q-8 -44 -27.5 -81t-48.5 -64t-67.5 -41.5t-84.5 -14.5q-44 0 -77 15t-54 42t-28.5 64.5t0.5 82.5l29 164h84l-29 -165q-11 -58 12 -94t74 -36q53 0 88.5 36t46.5 94l30 165h766l30 171h-1173l12 70h1389l-13 -70h-131l-118 -670h-84z" />
    <glyph glyph-name="dvJ_BA" horiz-adv-x="1233" 
d="M834 153q40 0 72.5 12.5t58.5 32.5l-233 240q-20 -22 -33 -49t-18 -59q-8 -42 1 -75t30.5 -55.5t52.5 -34.5t69 -12zM1018 199q-31 -46 -84 -77t-125 -31q-50 0 -91.5 17.5t-69 49t-39 76.5t-1.5 99q9 50 32 94h-167l-17 -95q-8 -44 -27.5 -81t-48.5 -64t-67.5 -41.5
t-84.5 -14.5q-44 0 -77 15t-54 42t-28.5 64.5t0.5 82.5l29 164h84l-29 -165q-11 -58 12 -94t74 -36q53 0 88.5 36t46.5 94l30 165h293q38 34 86.5 52t103.5 18q73 0 116.5 -31t60.5 -76l36 208h-1073l12 70h1285l-12 -70h-132l-117 -670h-80zM895 512q-74 0 -133 -45
l233 -240q20 24 32.5 51.5t17.5 53.5q6 33 0 65t-24 57.5t-49.5 41.5t-76.5 16z" />
    <glyph glyph-name="dvJ_MA" horiz-adv-x="1345" 
d="M761 201q51 0 83.5 34.5t43.5 97.5l14 80h-92q-52 0 -90 -28t-46 -78q-9 -50 16.5 -78t70.5 -28zM1208 670h-182l-33 -187h182zM1091 0l72 413h-183l-13 -76q-17 -101 -72 -154.5t-143 -53.5q-41 0 -72.5 12.5t-52.5 35.5t-29.5 54.5t-1.5 70.5q12 70 59 114h-185
l-14 -84q-8 -44 -27 -81t-48.5 -64t-67.5 -41.5t-84 -14.5q-45 0 -78.5 15.5t-54 43t-28 64.5t0.5 81l29 161h83l-28 -162q-11 -58 12 -94t74 -36q53 0 88.5 36t46.5 94l26 149h514l33 187h-921l12 70h1398l-12 -70h-131l-118 -670h-84z" />
    <glyph glyph-name="dvJ_YA" horiz-adv-x="1297" 
d="M881 182q42 0 80.5 14t68.5 39t50.5 60t27.5 77v-1l53 299h-201l-15 -83q-15 -87 -74.5 -131.5t-151.5 -49.5q0 -2 -0.5 -3t-0.5 -2q-9 -47 -3 -87t27 -69.5t56 -46t83 -16.5zM1043 0l38 216q-35 -45 -92 -74.5t-135 -29.5q-60 0 -104.5 21t-73 59t-39.5 89.5t-2 113.5
h-42h-126l-11 -63q-8 -44 -27.5 -81t-49 -64t-68 -41.5t-84.5 -14.5q-43 0 -76 15t-54 42t-28.5 65t1.5 85l26 147h84l-27 -151q-11 -58 12 -94t74 -36q53 0 88.5 35.5t46.5 94.5l24 131h266q84 0 136 30.5t65 105.5l12 69h-851l12 70h1350l-12 -70h-132l-117 -670h-84z" />
    <glyph glyph-name="dvJx_YA" horiz-adv-x="1297" 
d="M881 182q42 0 80.5 14t68.5 39t50.5 60t27.5 77v-1l53 299h-201l-15 -83q-15 -87 -74.5 -131.5t-151.5 -49.5q0 -2 -0.5 -3t-0.5 -2q-9 -47 -3 -87t27 -69.5t56 -46t83 -16.5zM1043 0l38 216q-35 -45 -92 -74.5t-135 -29.5q-60 0 -104.5 21t-73 59t-39.5 89.5t-2 113.5
h-42h-126l-11 -63q-8 -44 -27.5 -81t-49 -64t-68 -41.5t-84.5 -14.5q-43 0 -76 15t-54 42t-28.5 65t1.5 85l26 147h84l-27 -151q-11 -58 12 -94t74 -36q53 0 88.5 35.5t46.5 94.5l24 131h266q84 0 136 30.5t65 105.5l12 69h-851l12 70h1350l-12 -70h-132l-117 -670h-84z
M196 -60q-24 0 -37.5 16t-9.5 39q4 24 23 40.5t43 16.5q23 0 36.5 -16.5t9.5 -40.5q-4 -23 -23 -39t-42 -16z" />
    <glyph glyph-name="dvJ_VA" horiz-adv-x="1223" 
d="M831 163q44 0 78 15t59 39t40 53.5t20 57.5q6 30 1.5 60t-21 53.5t-46 38.5t-73.5 15q-35 0 -67.5 -11.5t-58.5 -33t-44.5 -52t-25.5 -68.5q-7 -39 0.5 -70t26 -52.5t47 -33t64.5 -11.5zM1170 670l-118 -670h-81l35 199q-32 -45 -83 -74t-120 -29q-50 0 -90 16.5
t-65.5 48t-35.5 76.5t1 101q9 50 30 89h-170l-17 -95q-8 -44 -27.5 -81t-48.5 -64t-67.5 -41.5t-84.5 -14.5q-44 0 -77 15t-54 42t-28.5 64.5t0.5 82.5l29 164h84l-29 -165q-11 -58 12 -94t74 -36q53 0 88.5 36t46.5 94l30 165h296q35 31 79.5 47.5t95.5 16.5
q71 0 114 -28.5t63 -72.5l36 208h-1061l12 70h1275l-13 -70h-131z" />
    <glyph glyph-name="dvJH_NA" horiz-adv-x="1348" 
d="M612 323q19 88 85 134.5t158 46.5h328l29 166h-687l-26 -144l-7 -37h-177q-20 0 -42 -3.5t-41.5 -12.5t-34 -25.5t-18.5 -42.5q-4 -23 2 -38.5t19 -25t32 -14t41 -4.5h339zM794 188q27 0 51.5 9.5t44 26t32.5 39t18 48.5q10 54 -19 88.5t-84 34.5q-29 0 -54 -9t-45 -25.5
t-33.5 -39.5t-18.5 -50q-9 -54 20.5 -88t87.5 -34zM108 -77h-80l45 248h75q-1 -23 6 -44t22.5 -37t41 -25t60.5 -9q63 0 95.5 29t39.5 69q9 51 -21.5 80t-99.5 29h-53q-32 1 -61 9.5t-49.5 26.5t-30 45.5t-2.5 65.5q7 40 27.5 67t49 43t62.5 23t69 7h118l22 120h-411l13 70
h1393l-12 -70h-132l-118 -670h-83l77 434h-196q20 -23 29.5 -56t1.5 -77q-7 -43 -27.5 -77t-50.5 -58t-67 -36.5t-77 -12.5q-75 0 -122 39t-54 103l-149 1q20 -20 28.5 -48.5t1.5 -67.5q-6 -32 -21.5 -59.5t-40.5 -47.5t-59.5 -32t-77.5 -12q-39 0 -66.5 10t-46 23.5
t-28.5 27.5t-14 23z" />
    <glyph glyph-name="dvJH_MA" horiz-adv-x="1366" 
d="M1229 670h-183l-38 -216h183zM776 172q51 0 83.5 34.5t43.5 97.5l14 81h-92q-52 0 -90 -28t-46 -79q-9 -49 16.5 -77.5t70.5 -28.5zM623 323q26 64 83 97.5t129 33.5h95l38 216h-443l-26 -144l-7 -37h-177q-20 0 -42 -3.5t-41.5 -12.5t-34 -25.5t-18.5 -42.5
q-4 -23 2 -38.5t19 -25t32 -14t41 -4.5h350zM108 -77h-80l45 248h75q-1 -23 6 -44t22.5 -37t41 -25t60.5 -9q63 0 95.5 29t39.5 69q9 51 -21.5 80t-99.5 29h-53q-32 1 -61 9.5t-49.5 26.5t-30 45.5t-2.5 65.5q7 40 27.5 67t49 43t62.5 23t69 7h118l22 120h-411l13 70h1410
l-12 -70h-131l-118 -670h-84l68 385h-183l-14 -77q-17 -100 -72.5 -153.5t-142.5 -53.5q-39 0 -70 11.5t-51.5 32.5t-30.5 50t-7 64l-149 1q20 -20 28.5 -48.5t1.5 -67.5q-6 -32 -21.5 -59.5t-40.5 -47.5t-59.5 -32t-77.5 -12q-39 0 -66.5 10t-46 23.5t-28.5 27.5t-14 23z
" />
    <glyph glyph-name="dvJH_YA" horiz-adv-x="1297" 
d="M626 323q-2 33 6 71q2 11 5 23l6 24h15q41 0 75.5 8t61 27t44.5 49.5t26 75.5l12 69h-352l-26 -144l-7 -37h-177q-20 0 -42 -3.5t-41.5 -12.5t-34 -25.5t-18.5 -42.5q-4 -23 2 -38.5t19 -25t32 -14t41 -4.5h353zM880 182q42 0 80.5 14t69 39t51 60t27.5 77v-1l53 299
h-202l-14 -83q-17 -97 -76 -143.5t-155 -50.5q0 -2 -0.5 -3.5t-0.5 -3.5q-17 -94 28 -149t139 -55zM108 -77h-80l45 248h75q-1 -23 6 -44t22.5 -37t41 -25t60.5 -9q63 0 95.5 29t39.5 69q9 51 -21.5 80t-99.5 29h-53q-32 1 -61 9.5t-49.5 26.5t-30 45.5t-2.5 65.5
q7 40 27.5 67t49 43t62.5 23t69 7h118l22 120h-411l13 70h1342l-13 -70h-131l-118 -670h-83l38 216q-34 -45 -90.5 -74.5t-134.5 -29.5q-88 0 -144.5 39t-76.5 108l-176 1q19 -20 28 -48.5t2 -67.5q-6 -32 -21.5 -59.5t-40.5 -47.5t-59.5 -32t-77.5 -12q-39 0 -66.5 10
t-46 23.5t-28.5 27.5t-14 23z" />
    <glyph glyph-name="dvNY_CA" horiz-adv-x="1260" 
d="M1006 0l36 205q-36 -48 -91.5 -76.5t-119.5 -28.5q-41 0 -75 12t-58.5 34.5t-37 55t-9.5 74.5h-155q-14 -40 -37 -74.5t-55.5 -59.5t-73 -39t-88.5 -14q-50 0 -86 14t-60 38t-35 55.5t-10 66.5h79q2 -20 10 -38t23 -32.5t37.5 -23t53.5 -8.5q37 0 68 13t53.5 35.5
t37 52.5t20.5 63q6 32 2 61.5t-18.5 52t-40.5 36t-64 13.5q-32 0 -58 -9t-46 -23.5t-34.5 -33t-22.5 -36.5h-79q11 35 33 66.5t54 55.5t73.5 38t91.5 14q53 0 91 -17t61 -46.5t32 -69.5t4 -85h154q14 39 41.5 69t65.5 50h-183l12 66h364l-13 -66h-35q-36 0 -67 -11.5
t-54.5 -31t-39.5 -47t-22 -58.5q-6 -35 2 -61.5t26 -44.5t44.5 -27.5t58.5 -9.5q38 0 71.5 14t60 38t44.5 56t25 69l57 323h-1098l12 70h1313l-13 -70h-131l-117 -670h-84z" />
    <glyph glyph-name="dvNY_CHA" horiz-adv-x="1360" 
d="M894 99q66 0 123.5 16.5t102.5 48t75 77t41 103.5q6 36 1.5 63t-17 45t-31 27t-39.5 9q-18 0 -38 -6.5t-37.5 -20t-31 -36t-18.5 -53.5q-5 -21 -4.5 -44.5t4.5 -48.5h-70q-8 51 1 101q7 40 23.5 69t38.5 49.5t49 32t55 16.5l23 123h-369l-18 -102q-10 -58 14.5 -89
t95.5 -31h23l-12 -69h-21q-40 0 -71 -10t-53 -27t-35.5 -40t-17.5 -48q-7 -38 5.5 -67t40.5 -48.5t70.5 -29.5t96.5 -10zM881 27q-69 0 -126 15t-95.5 43.5t-56 70t-7.5 95.5q4 22 12 42h-106q-12 -43 -35.5 -80.5t-56.5 -65t-75 -43t-93 -15.5q-50 0 -86 14t-60 38
t-35 55.5t-10 66.5h79q2 -20 10 -38t23 -32.5t37.5 -23t53.5 -8.5q37 0 68 13t53.5 35.5t37 52.5t20.5 63q6 32 2 61.5t-18.5 52t-40.5 36t-64 13.5q-32 0 -58 -9t-46 -23.5t-34.5 -33t-22.5 -36.5h-79q11 35 33 66.5t54 55.5t73.5 38t91.5 14q49 0 85.5 -15t60 -41.5
t34.5 -62t9 -76.5h148q22 18 47.5 29.5t54.5 16.5v3q-23 4 -42 14.5t-31.5 28.5t-17 45t1.5 63l20 105h-668l12 70h1414l-12 -70h-218l-22 -124q30 -6 54 -21.5t39 -41t20 -61t-3 -80.5q-13 -74 -50.5 -132t-93.5 -99t-128.5 -62.5t-156.5 -21.5z" />
    <glyph glyph-name="dvNY_JA" horiz-adv-x="1388" 
d="M1134 0l75 427h-189l-17 -95q-8 -44 -27.5 -81t-48.5 -64t-67.5 -41.5t-84.5 -14.5q-38 0 -68.5 12t-51.5 33t-32 51t-11 66h-110q-12 -43 -35.5 -80.5t-56.5 -65t-75 -43t-93 -15.5q-50 0 -86 14t-60 38t-35 55.5t-10 66.5h79q2 -20 10 -38t23 -32.5t37.5 -23t53.5 -8.5
q37 0 68 13t53.5 35.5t37 52.5t20.5 63q6 32 2 61.5t-18.5 52t-40.5 36t-64 13.5q-32 0 -58 -9t-46 -23.5t-34.5 -33t-22.5 -36.5h-79q11 35 33 66.5t54 55.5t73.5 38t91.5 14q49 0 85.5 -15t60 -41.5t34.5 -62t9 -76.5h108l24 134h84l-29 -165q-11 -58 12 -94t74 -36
q53 0 88.5 36t46.5 94l30 165h271l30 171h-1226l12 70h1441l-13 -70h-130l-119 -670h-83z" />
    <glyph glyph-name="dvNY_SHA" horiz-adv-x="1351" 
d="M778 -8q-52 0 -90 16t-61 45.5t-30.5 70.5t1.5 92l14 79h-110q-12 -44 -35 -81.5t-56 -65t-75.5 -43.5t-93.5 -16q-50 0 -86 14t-60 38t-35 55.5t-10 66.5h79q2 -20 10 -38t23 -32.5t37.5 -23t53.5 -8.5q37 0 68 13t53.5 35.5t37 52.5t20.5 63q6 32 2 61.5t-19 52t-41 36
t-63 13.5q-32 0 -58 -9t-46 -23.5t-34.5 -33t-22.5 -36.5h-79q11 35 33 66.5t54 55.5t73.5 38t91.5 14q49 0 85.5 -15t60 -41t34.5 -61.5t10 -76.5h111l4 25h146q39 0 75.5 9t66.5 27.5t50.5 47.5t27.5 68q11 62 -18 97.5t-83 35.5q-35 0 -63 -13.5t-47.5 -37.5t-30 -56
t-10.5 -69h-83q2 52 17.5 95t43.5 75h-695l12 70h794q33 9 70 9q45 0 81.5 -14.5t60.5 -42.5t33.5 -67.5t0.5 -89.5q-10 -54 -36.5 -94.5t-65 -67.5t-86 -40t-100.5 -13h-89l-19 -110q-6 -31 -3 -58t15 -46.5t34 -30.5t55 -11q58 0 96 39.5t49 107.5h82q-7 -48 -25 -88
t-47 -69.5t-69 -45.5t-91 -16zM1226 740h216l-13 -70h-131l-118 -670h-84z" />
    <glyph glyph-name="dvTT_TTA" horiz-adv-x="683" 
d="M38 740h737l-13 -70h-236l-31 -174h-134q-36 0 -68.5 -9t-58 -26.5t-43.5 -42.5t-24 -57q-12 -62 26.5 -101t126.5 -39q92 0 143.5 42.5t64.5 111.5h79q-17 -103 -91 -164t-206 -63q-35 0 -68.5 -7.5t-61.5 -23.5t-47.5 -42t-26.5 -64q-5 -30 2 -55t26 -44t50 -29.5
t75 -10.5q91 0 143 43t64 112h80q-9 -51 -32.5 -93t-61 -71.5t-88.5 -46t-116 -16.5q-60 0 -106 15.5t-76 43t-42 66.5t-3 86q13 68 55 110.5t96 62.5q-51 24 -75 70t-13 109q9 49 33.5 87.5t62 64t86 39t103.5 13.5h56l19 103h-418z" />
    <glyph glyph-name="dvTT_TTHA" horiz-adv-x="687" 
d="M38 740h741l-13 -70h-239l-31 -174h-134q-36 0 -68.5 -8.5t-58.5 -25t-43.5 -42t-23.5 -59.5q-11 -62 28 -101t125 -39q88 0 142 42.5t66 111.5h80q-12 -66 -51 -115t-104 -75q53 -23 78.5 -67t13.5 -111q-9 -50 -35 -88.5t-65.5 -65t-90 -40t-108.5 -13.5
q-57 0 -102.5 14t-75.5 40.5t-42.5 65t-3.5 87.5q12 67 52.5 111t100.5 67q-57 26 -79 72.5t-11 107.5q9 49 33.5 86.5t62 63t85.5 39t103 13.5h57l18 103h-419zM260 -129q40 0 74.5 9t61.5 27t44 44t23 59q12 68 -29.5 104t-123.5 36q-40 0 -74.5 -9.5t-61.5 -27.5
t-44.5 -44t-23.5 -59q-11 -67 30 -103t124 -36z" />
    <glyph glyph-name="dvTT_YA" horiz-adv-x="1266" 
d="M1043 172q-32 -48 -80 -77t-117 -29q-48 0 -85 16t-60 46t-31 73.5t2 99.5q3 16 6 30h33q59 0 95.5 15t44.5 57q4 27 -5.5 43t-27 24.5t-40.5 10.5t-44 2h-354q-44 0 -84.5 -11.5t-73 -35t-55 -58.5t-31.5 -83q-7 -39 1.5 -72t29.5 -57t53.5 -37.5t73.5 -13.5
q42 0 78.5 14t64.5 39t46.5 59.5t25.5 75.5h80q-10 -58 -36 -106t-65.5 -82t-91 -53t-112.5 -19q-59 0 -106 18.5t-78.5 52.5t-44.5 80.5t-3 103.5q12 64 42 112.5t74 80t100 47.5t119 16h24l21 116h-409l13 70h1321l-13 -70h-131l-118 -670h-82zM870 130q37 0 69 13.5
t57.5 37.5t43.5 58t28 75l63 356h-617l-22 -120h260q43 0 79 -7t61 -23.5t36 -43t4 -65.5q-11 -58 -59 -87t-124 -31q-6 -32 -3 -61.5t17.5 -52t41 -36t65.5 -13.5z" />
    <glyph glyph-name="dvTT_VA" horiz-adv-x="658" 
d="M235 -122q34 0 62 11.5t48.5 29.5t34 41t19.5 46l28 159q-56 -17 -122 -17q-39 0 -70.5 -10.5t-55 -29t-38.5 -43.5t-21 -55t0 -54.5t22 -42t39.5 -26.5t53.5 -9zM38 740h711l-12 -70h-208l-31 -174h-136q-36 0 -69 -8.5t-59 -25t-44 -42t-24 -59.5q-11 -62 28 -101
t129 -39q91 0 144.5 42.5t65.5 111.5h79q-18 -107 -100 -168l-81 -454h-77l26 146q-29 -38 -73.5 -62t-104.5 -24q-44 0 -77.5 14.5t-55 40t-29.5 61t0 78.5q11 61 48 105.5t88 66.5q-56 26 -80 74t-13 111q9 49 34 87t62.5 64t86 39t103.5 13h59l19 103h-421z" />
    <glyph glyph-name="dvTTH_TTHA" horiz-adv-x="667" 
d="M252 -129q79 0 132.5 36t64.5 103q12 68 -28.5 104t-119.5 36q-78 0 -131.5 -36t-65.5 -104q-12 -67 27.5 -103t120.5 -36zM313 220q80 0 132.5 36.5t65.5 103.5q12 67 -28.5 103.5t-119.5 36.5q-81 0 -133.5 -36.5t-64.5 -103.5q-12 -66 29 -103t119 -37zM239 -200
q-55 0 -99 13.5t-73.5 40t-42 65t-3.5 88.5q11 64 48.5 107.5t93.5 66.5q-48 26 -70 71.5t-10 110.5q8 47 30.5 83t55 61t74.5 39.5t89 19.5l18 104h-324l12 70h720l-12 -70h-313l-19 -104q46 -5 83 -20t61 -40.5t34 -62t1 -83.5q-11 -65 -48.5 -109.5t-93.5 -69.5
q47 -24 69 -67t11 -107q-9 -50 -34.5 -88.5t-64 -65t-88 -40t-105.5 -13.5z" />
    <glyph glyph-name="dvTTH_YA" horiz-adv-x="1276" 
d="M288 118q41 0 77.5 13t65.5 37t49 57t27 72q7 40 -1.5 73.5t-29 57.5t-52.5 37.5t-72 13.5q-41 0 -77 -13t-64.5 -37t-47.5 -57t-26 -73q-7 -39 1.5 -72.5t29 -57.5t51.5 -37.5t69 -13.5zM877 136q40 0 73 14.5t58.5 41.5t43 64.5t25.5 82.5h1l58 331h-709l-22 -125h351
q42 0 78 -7t61 -23t36.5 -42.5t5.5 -64.5q-11 -59 -59.5 -88t-125.5 -31v-3q-6 -32 -1.5 -59.5t20 -47.5t42 -31.5t64.5 -11.5zM1049 177q-32 -48 -80 -76.5t-116 -28.5q-99 0 -147 59t-30 167q1 8 3 15t4 15h32q57 0 94 15t45 57q5 27 -4.5 43t-26.5 24t-39 10.5t-41 2.5
h-217q38 -30 54 -78t5 -110q-10 -56 -37.5 -101.5t-68 -77.5t-92 -49t-108.5 -17q-54 0 -99.5 18.5t-77 52t-45 80.5t-3.5 104q9 54 33.5 97t60.5 74.5t81 50.5t94 24l22 122h-323l13 70h1326l-12 -70h-132l-117 -670h-82z" />
    <glyph glyph-name="dvTTH_VA" horiz-adv-x="663" 
d="M315 222q77 0 130.5 36.5t66.5 102.5q12 68 -27.5 104.5t-117.5 36.5q-83 0 -138 -35t-66 -103q-12 -66 29 -104t123 -38zM222 -117q33 0 60.5 11t48 29t34.5 40t20 45l29 161q-51 -15 -112 -15q-76 0 -126 -36t-62 -100q-11 -63 19.5 -99t88.5 -36zM341 -242l26 146
q-29 -38 -73.5 -62t-102.5 -24q-42 0 -74.5 14t-53.5 39.5t-29 62t0 80.5q11 63 47 106.5t86 64.5q-50 25 -74 71.5t-12 110.5q9 47 31.5 82.5t56 60.5t76 39.5t91.5 19.5l17 101h-327l12 70h716l-12 -70h-307l-17 -101q45 -5 81.5 -20t60.5 -41.5t33.5 -63t0.5 -83.5
q-9 -49 -33.5 -87.5t-62.5 -64.5l-79 -451h-78z" />
    </font>
</defs>
</svg>
