<svg xmlns="http://www.w3.org/2000/svg" width="14" height="14" viewBox="0 0 14 14" fill="none">
  <path d="M1.37355 7.45199C1.03677 7.32425 0.666992 7.56741 0.666992 7.92761V11.2501C0.666992 12.7229 1.8609 13.9168 3.33366 13.9168H11.3337C12.8064 13.9168 14.0003 12.7229 14.0003 11.2501V7.92764C14.0003 7.56744 13.6306 7.32428 13.2938 7.45202C12.4875 7.75784 11.4897 8.06297 10.3361 8.27257C9.86648 8.35788 9.52594 8.76146 9.30679 9.18545C8.97432 9.82869 8.30299 10.2684 7.52897 10.2684H7.13829C6.36426 10.2684 5.69293 9.82868 5.36046 9.18543C5.14131 8.76144 4.80078 8.35786 4.33119 8.27254C3.17756 8.06293 2.17982 7.75781 1.37355 7.45199Z" fill="#1C1E26" fill-opacity="0.85"/>
  <path fill-rule="evenodd" clip-rule="evenodd" d="M11.3337 3.25H3.33366C1.8609 3.25 0.666992 4.44391 0.666992 5.91667C0.666992 6.06138 0.738608 6.19567 0.863606 6.2686C1.42886 6.5984 3.17865 7.51294 5.66604 7.82145C5.68195 8.72879 6.42244 9.45942 7.33358 9.45942C8.24471 9.45942 8.98519 8.7288 9.00112 7.82147C11.4886 7.51298 13.2384 6.59841 13.8037 6.2686C13.9287 6.19567 14.0003 6.06138 14.0003 5.91667C14.0003 4.44391 12.8064 3.25 11.3337 3.25ZM6.78374 7.31291C6.67328 7.31291 6.58374 7.40245 6.58374 7.51291V7.8889C6.58374 8.30305 6.91948 8.63878 7.33362 8.63878C7.74777 8.63878 8.08351 8.30305 8.08351 7.8889V7.51291C8.08351 7.40245 7.99397 7.31291 7.88351 7.31291H6.78374Z" fill="#1C1E26" fill-opacity="0.85"/>
  <path fill-rule="evenodd" clip-rule="evenodd" d="M6.66699 1.0835C5.83857 1.0835 5.16699 1.75507 5.16699 2.5835V3.25016C5.16699 3.5263 4.94313 3.75016 4.66699 3.75016C4.39085 3.75016 4.16699 3.5263 4.16699 3.25016V2.5835C4.16699 1.20278 5.28628 0.0834961 6.66699 0.0834961H8.00033C9.38104 0.0834961 10.5003 1.20278 10.5003 2.5835V3.25016C10.5003 3.5263 10.2765 3.75016 10.0003 3.75016C9.72418 3.75016 9.50033 3.5263 9.50033 3.25016V2.5835C9.50033 1.75507 8.82875 1.0835 8.00033 1.0835H6.66699Z" fill="#1C1E26" fill-opacity="0.85"/>
</svg>