<svg xmlns="http://www.w3.org/2000/svg" width="16" height="16" viewBox="0 0 16 16" fill="none">
  <path d="M12.6668 11.3332H11.3335M12.6668 4.6665H11.3335M4.66683 4.6665H3.3335M4.66683 11.3332H3.3335M4.00016 13.3332H12.0002C13.4729 13.3332 14.6668 12.1393 14.6668 10.6665V5.33317C14.6668 3.86041 13.4729 2.6665 12.0002 2.6665H4.00016C2.5274 2.6665 1.3335 3.86041 1.3335 5.33317V10.6665C1.3335 12.1393 2.5274 13.3332 4.00016 13.3332ZM9.3335 7.99984C9.3335 8.73622 8.73654 9.33317 8.00016 9.33317C7.26378 9.33317 6.66683 8.73622 6.66683 7.99984C6.66683 7.26346 7.26378 6.6665 8.00016 6.6665C8.73654 6.6665 9.3335 7.26346 9.3335 7.99984Z" stroke="#0E0F14" stroke-linecap="round"/>
</svg>