<svg xmlns="http://www.w3.org/2000/svg" width="32" height="24" viewBox="0 0 32 24" fill="none">
  <path d="M1 4.5H5.29754C6.38761 4.5 7.43303 3.96046 8.20382 3.00007C9.30464 1.62848 10.9329 1.14954 12.4098 1.76294L14.5 2.63104M1 17.9502H3.43102C5.17025 17.9502 6.03987 17.9502 6.86218 18.1819C6.90215 18.1932 6.94201 18.2048 6.98174 18.2169C7.79888 18.4651 8.52244 18.9314 9.96957 19.8641C12.8018 21.6894 14.2179 22.6021 15.761 22.4909C15.8338 22.4857 15.9064 22.4787 15.9788 22.4701C17.5145 22.2865 18.7179 21.1231 21.1248 18.7962L23.5 16.5" stroke="#226594" stroke-width="1.5" stroke-linecap="round"/>
  <path d="M31 4.85076H27.2248C25.6261 4.85076 24.4973 3.98203 23.3505 2.82387C22.6077 2.0737 21.6596 1.63158 20.6631 1.5707C19.549 1.50263 18.2579 1.40678 17.176 1.70401C15.9717 2.03484 15.1765 2.94095 14.3353 3.88793L12.1646 6.33167C11.2785 7.32932 11.2785 8.94683 12.1646 9.94448C12.9295 10.8056 14.1279 10.9392 15.0279 10.2637C15.6756 9.77758 16.4114 8.9926 17.1746 8.74538C18.0336 8.46714 18.5663 9.09221 19.0531 9.74984L22.5334 14.4515C23.825 16.1965 24.4708 17.0689 25.3537 17.5345C26.2366 18 27.2454 18 29.263 18H31" stroke="#226594" stroke-width="1.5" stroke-linecap="round"/>
</svg>