<svg xmlns="http://www.w3.org/2000/svg" width="36" height="36" viewBox="0 0 36 36" fill="none">
<path d="M18 3.375C15.1075 3.375 12.2799 4.23274 9.87479 5.83976C7.46972 7.44677 5.5952 9.73089 4.48827 12.4033C3.38134 15.0756 3.09171 18.0162 3.65602 20.8532C4.22033 23.6902 5.61323 26.2961 7.65857 28.3414C9.70391 30.3868 12.3098 31.7797 15.1468 32.344C17.9838 32.9083 20.9244 32.6187 23.5968 31.5117C26.2691 30.4048 28.5532 28.5303 30.1602 26.1252C31.7673 23.7201 32.625 20.8926 32.625 18C32.6209 14.1225 31.0788 10.4049 28.3369 7.66309C25.5951 4.92125 21.8775 3.37909 18 3.375ZM24.4209 15.4209L16.5459 23.2959C16.4415 23.4005 16.3174 23.4835 16.1808 23.5401C16.0442 23.5967 15.8978 23.6259 15.75 23.6259C15.6022 23.6259 15.4558 23.5967 15.3192 23.5401C15.1826 23.4835 15.0586 23.4005 14.9541 23.2959L11.5791 19.9209C11.368 19.7098 11.2494 19.4235 11.2494 19.125C11.2494 18.8265 11.368 18.5402 11.5791 18.3291C11.7902 18.118 12.0765 17.9994 12.375 17.9994C12.6735 17.9994 12.9598 18.118 13.1709 18.3291L15.75 20.9095L22.8291 13.8291C22.9336 13.7245 23.0577 13.6416 23.1942 13.5851C23.3308 13.5285 23.4772 13.4994 23.625 13.4994C23.7728 13.4994 23.9192 13.5285 24.0558 13.5851C24.1923 13.6416 24.3164 13.7245 24.4209 13.8291C24.5255 13.9336 24.6084 14.0577 24.6649 14.1942C24.7215 14.3308 24.7506 14.4772 24.7506 14.625C24.7506 14.7728 24.7215 14.9192 24.6649 15.0558C24.6084 15.1923 24.5255 15.3164 24.4209 15.4209Z" fill="#226594"/>
</svg>