<svg xmlns="http://www.w3.org/2000/svg" width="14" height="12" viewBox="0 0 14 12" fill="none">
  <path fill-rule="evenodd" clip-rule="evenodd" d="M6.66667 0C7.40305 0 8 0.596953 8 1.33333L8 10.6667C8 11.403 7.40305 12 6.66667 12C5.93029 12 5.33333 11.403 5.33333 10.6667L5.33333 1.33333C5.33333 0.596953 5.93029 -1.19209e-07 6.66667 0ZM1.33333 6C2.06971 6 2.66667 6.59695 2.66667 7.33333L2.66667 10.6667C2.66667 11.403 2.06971 12 1.33333 12C0.596954 12 0 11.403 0 10.6667L1.78814e-07 7.33333C1.78814e-07 6.59695 0.596954 6 1.33333 6ZM13.3333 4.66667C13.3333 3.93029 12.7364 3.33333 12 3.33333C11.2636 3.33333 10.6667 3.93029 10.6667 4.66667L10.6667 10.6667C10.6667 11.403 11.2636 12 12 12C12.7364 12 13.3333 11.403 13.3333 10.6667V4.66667Z" fill="#1C1E26" fill-opacity="0.85"/>
</svg>