<svg xmlns="http://www.w3.org/2000/svg" width="32" height="32" viewBox="0 0 32 32" fill="none">
<path d="M16 22.6667C11.5817 22.6667 7.99999 19.0849 7.99999 14.6667M16 22.6667C20.4183 22.6667 24 19.0849 24 14.6667M16 22.6667V28M7.99999 14.6667L7.99999 6.66667C7.99999 5.19391 9.1939 4 10.6667 4L21.3333 4C22.8061 4 24 5.19391 24 6.66667L24 14.6667M7.99999 14.6667L7.99999 9.33333C7.99999 7.86057 6.80608 6.66667 5.33332 6.66667C3.86056 6.66667 2.66666 7.86057 2.66666 9.33333C2.66666 12.2789 5.05447 14.6667 7.99999 14.6667ZM24 14.6667L24 9.33333C24 7.86057 25.1939 6.66667 26.6667 6.66667C28.1394 6.66667 29.3333 7.86057 29.3333 9.33333C29.3333 12.2789 26.9455 14.6667 24 14.6667ZM16 28H12M16 28H20" stroke="#0E0F14" stroke-width="2" stroke-linecap="round"/>
</svg>