<svg xmlns="http://www.w3.org/2000/svg" width="32" height="32" viewBox="0 0 32 32" fill="none">
<path d="M22.6667 10.0003V5.33366C22.6667 3.8609 21.4728 2.66699 20 2.66699H12C10.5273 2.66699 9.33337 3.8609 9.33337 5.33366V10.0003M26.6667 18.667C26.6667 24.558 21.8911 29.3337 16 29.3337C10.109 29.3337 5.33337 24.558 5.33337 18.667C5.33337 12.776 10.109 8.00033 16 8.00033C21.8911 8.00033 26.6667 12.776 26.6667 18.667ZM13.3282 16.2397L11.6697 16.4903C10.7101 16.6353 10.3269 17.8614 11.0213 18.5652L12.2214 19.7814C12.4972 20.0609 12.623 20.4635 12.5579 20.8582L12.2746 22.5756C12.1107 23.5693 13.1138 24.3271 13.9722 23.8579L15.4556 23.047C15.7964 22.8607 16.2036 22.8607 16.5445 23.047L18.0279 23.8579C18.8862 24.3271 19.8894 23.5693 19.7255 22.5756L19.4422 20.8582C19.3771 20.4635 19.5029 20.0609 19.7787 19.7814L20.9788 18.5652C21.6732 17.8614 21.29 16.6353 20.3304 16.4903L18.6718 16.2397C18.2908 16.1822 17.9613 15.9333 17.7909 15.5743L17.0492 14.0117C16.62 13.1076 15.38 13.1076 14.9509 14.0117L14.2092 15.5743C14.0387 15.9333 13.7093 16.1822 13.3282 16.2397Z" stroke="#0E0F14" stroke-width="2" stroke-linecap="round" stroke-linejoin="round"/>
</svg>