<svg xmlns="http://www.w3.org/2000/svg" width="30" height="30" viewBox="0 0 30 30" fill="none">
<path d="M7 14.8857C14.515 0.879387 23.8725 0.717875 27.6119 2.38791C29.282 6.1273 29.1205 15.4848 15.1141 22.9998C14.9689 22.1648 14.1611 19.9774 12.0917 17.9081C10.0224 15.8387 7.83502 15.0309 7 14.8857Z" stroke="#226594" stroke-width="1.5" stroke-linecap="round" stroke-linejoin="round"/>
<path d="M17 22.333C19.7237 23.6663 20.0145 26.0572 20.3918 28.3329C20.3918 28.3329 26.0965 24.1159 22.4474 18.333" stroke="#226594" stroke-width="1.5" stroke-linecap="round" stroke-linejoin="round"/>
<path d="M7.66692 13.1138C6.33359 10.39 3.94276 10.0993 1.66699 9.72194C1.66699 9.72194 5.88402 4.0173 11.6669 7.66634" stroke="#226594" stroke-width="1.5" stroke-linecap="round" stroke-linejoin="round"/>
<path d="M6.1379 19.3128C5.37962 20.0711 4.09056 22.2701 5.00049 24.9998C7.73027 25.9098 9.92925 24.6207 10.6875 23.8624" stroke="#226594" stroke-width="1.5" stroke-linecap="round" stroke-linejoin="round"/>
<path d="M23.0003 9.66634C23.0003 8.19358 21.8064 6.99967 20.3337 6.99967C18.8609 6.99967 17.667 8.19358 17.667 9.66634C17.667 11.1391 18.8609 12.333 20.3337 12.333C21.8064 12.333 23.0003 11.1391 23.0003 9.66634Z" stroke="#226594" stroke-width="1.5"/>
</svg>