<svg xmlns="http://www.w3.org/2000/svg" width="36" height="36" viewBox="0 0 36 36" fill="none">
  <path d="M18 15.5623V32.1862M15 8.30269C15.8825 7.79218 16.9071 7.5 18 7.5C19.0929 7.5 20.1175 7.79218 21 8.30269M12 4.88203C13.7008 3.69572 15.7691 3 18 3C20.2309 3 22.2993 3.69572 24 4.88203M8.3932 12.0131C11.0552 12.3056 14.6318 13.0924 17.1802 14.8285C17.67 15.1622 18.33 15.1622 18.8198 14.8285C21.3682 13.0924 24.9448 12.3056 27.6068 12.0131C28.9243 11.8684 30 12.938 30 14.2577V27.3999C30 28.7196 28.9243 29.7896 27.6068 29.9344C24.9448 30.2268 21.3682 31.0136 18.8198 32.7497C18.33 33.0834 17.67 33.0834 17.1802 32.7497C14.6318 31.0136 11.0552 30.2268 8.3932 29.9344C7.07571 29.7896 6 28.7196 6 27.3999V14.2577C6 12.938 7.07571 11.8684 8.3932 12.0131Z" stroke="#226594" stroke-width="1.5" stroke-linecap="round"/>
</svg>