<svg xmlns="http://www.w3.org/2000/svg" width="36" height="36" viewBox="0 0 36 36" fill="none">
<path d="M12 27H24M12 27C12 30.3137 14.6863 33 18 33C21.3137 33 24 30.3137 24 27M12 27V23.6831C12 22.7024 11.4999 21.8045 10.7873 21.1307C8.76302 19.2166 7.5 16.5058 7.5 13.5C7.5 7.70101 12.201 3 18 3C23.799 3 28.5 7.70101 28.5 13.5C28.5 16.5058 27.237 19.2166 25.2127 21.1307C24.5001 21.8045 24 22.7024 24 23.6831V27M15 13.5L18 16.5M18 16.5L21 13.5M18 16.5V27" stroke="#226594" stroke-width="1.5" stroke-linecap="round" stroke-linejoin="round"/>
</svg>