<svg width="56" height="57" viewBox="0 0 56 57" fill="none" xmlns="http://www.w3.org/2000/svg">
<path d="M0 28.084C0 12.62 12.536 0.0839844 28 0.0839844C43.464 0.0839844 56 12.62 56 28.084C56 43.548 43.464 56.084 28 56.084C12.536 56.084 0 43.548 0 28.084Z" fill="#598CAF"/>
<path fill-rule="evenodd" clip-rule="evenodd" d="M20.6667 21.417H23.3333C24.8061 21.417 26 22.6109 26 24.0837V28.7875C26 29.2015 25.9036 29.6098 25.7185 29.98L23.8278 33.7615C23.5247 34.3675 22.9053 34.7503 22.2278 34.7503C20.898 34.7503 20.0331 33.3509 20.6278 32.1615L22 29.417H20.6667C19.1939 29.417 18 28.2231 18 26.7503V24.0837C18 22.6109 19.1939 21.417 20.6667 21.417ZM32.6667 21.417H35.3333C36.8061 21.417 38 22.6109 38 24.0837V28.7875C38 29.2015 37.9036 29.6098 37.7185 29.98L35.8278 33.7615C35.5247 34.3675 34.9053 34.7503 34.2278 34.7503C32.898 34.7503 32.0331 33.3509 32.6278 32.1615L34 29.417H32.6667C31.1939 29.417 30 28.2231 30 26.7503V24.0837C30 22.6109 31.1939 21.417 32.6667 21.417Z" fill="white"/>
</svg>
