<svg xmlns="http://www.w3.org/2000/svg" width="16" height="16" viewBox="0 0 16 16" fill="none">
  <path fill-rule="evenodd" clip-rule="evenodd" d="M13.5002 7.66683C13.5002 10.8885 10.8885 13.5002 7.66683 13.5002C4.44517 13.5002 1.8335 10.8885 1.8335 7.66683C1.8335 4.44517 4.44517 1.8335 7.66683 1.8335C10.8885 1.8335 13.5002 4.44517 13.5002 7.66683ZM7.66683 14.5002C11.4408 14.5002 14.5002 11.4408 14.5002 7.66683C14.5002 3.89288 11.4408 0.833496 7.66683 0.833496C3.89288 0.833496 0.833496 3.89288 0.833496 7.66683C0.833496 11.4408 3.89288 14.5002 7.66683 14.5002ZM13.687 12.9799C13.4918 12.7847 13.1752 12.7847 12.9799 12.9799C12.7847 13.1752 12.7847 13.4918 12.9799 13.687L14.3133 15.0204C14.5085 15.2156 14.8251 15.2156 15.0204 15.0204C15.2156 14.8251 15.2156 14.5085 15.0204 14.3133L13.687 12.9799Z" fill="#1C1E26" fill-opacity="0.56"/>
</svg>