<svg width="24" height="24" viewBox="0 0 24 24" fill="none" xmlns="http://www.w3.org/2000/svg">
<path fill-rule="evenodd" clip-rule="evenodd" d="M5.8645 1.81258C5.98349 1.85307 6.16704 1.94756 6.27243 2.01508C6.91824 2.44037 8.71642 4.72536 9.30455 5.86621C9.64104 6.51761 9.75316 7.00027 9.64787 7.35805C9.53904 7.74282 9.3589 7.94535 8.55331 8.59001C8.23035 8.84986 7.92781 9.11651 7.88026 9.18742C7.75788 9.36297 7.65927 9.70719 7.65927 9.95024C7.66272 10.5139 8.02981 11.5366 8.51249 12.323C8.88637 12.9339 9.55599 13.7169 10.2189 14.3178C10.9973 15.0266 11.6839 15.5092 12.459 15.8906C13.4549 16.3834 14.0634 16.5083 14.5087 16.3024C14.6209 16.2518 14.7399 16.1843 14.7772 16.1539C14.8112 16.1235 15.073 15.8062 15.3585 15.4552C15.9091 14.7666 16.0349 14.6553 16.4122 14.5271C16.8916 14.365 17.3811 14.4089 17.8739 14.6587C18.2478 14.8511 19.0636 15.354 19.5905 15.7185C20.2839 16.2011 21.766 17.4027 21.9666 17.6424C22.3201 18.0744 22.3813 18.6279 22.1433 19.2389C21.8918 19.8835 20.9128 21.0918 20.2296 21.6083C19.6109 22.074 19.1724 22.2528 18.5946 22.2799C18.1187 22.3035 17.9216 22.263 17.313 22.0133C12.5406 20.059 8.73003 17.1429 5.70472 13.1364C4.12412 11.0438 2.92077 8.87352 2.09814 6.62227C1.61888 5.30932 1.5951 4.7389 1.98936 4.06723C2.15936 3.78373 2.88339 3.08167 3.41026 2.69016C4.28728 2.0421 4.69176 1.80245 5.0147 1.73496C5.23563 1.6877 5.61973 1.72482 5.8645 1.81258Z" fill="white"/>
</svg>
