<svg width="512px" height="512px" version="1.1" xmlns="http://www.w3.org/2000/svg">
  <defs>
    <style>
      .cls-1 {
        fill: #706f6f;
      }
    </style>
  </defs>
    <path class="cls-1" transform="scale(1, -1) translate(0, -512)" unicode="&#xf002;" 
d="M508.5 -20.9004c4.7002 -4.69922 4.7002 -12.2998 0 -17l-22.5996 -22.5996c-4.7002 -4.7002 -12.3008 -4.7002 -17 0l-121.4 121.4c-2.2002 2.2998 -3.5 5.2998 -3.5 8.5v13.1992c-36.5 -31.5 -84 -50.5996 -136 -50.5996c-114.9 0 -208 93.0996 -208 208
s93.0996 208 208 208s208 -93.0996 208 -208c0 -52 -19.0996 -99.5 -50.5996 -136h13.1992c3.2002 0 6.2002 -1.2002 8.5 -3.5zM208 80c88.4004 0 160 71.5996 160 160s-71.5996 160 -160 160s-160 -71.5996 -160 -160s71.5996 -160 160 -160z" />
</svg>
