<svg id="Layer_1" data-name="Layer 1" xmlns="http://www.w3.org/2000/svg" viewBox="0 0 100 100">
  <defs>
    <style>
      .cls-1 {
        fill: #124395;
      }
    </style>
  </defs>
  <title>Stars</title>
  <path class="cls-1" d="M71.1493,52.1359l-20.49-2.9878L41.4977,30.5375a4.4423,4.4423,0,0,0-4.0238-2.5,4.3806,4.3806,0,0,0-4.0044,2.5L24.3084,49.1481,3.8375,52.1359a4.5051,4.5051,0,0,0-2.4807,7.6747l14.8258,14.47-3.516,20.4462A4.496,4.496,0,0,0,17.0811,100a4.3678,4.3678,0,0,0,2.09-.5273l18.3222-9.647,18.3222,9.647A4.4681,4.4681,0,0,0,62.32,94.7469L58.8238,74.3006,73.65,59.83a4.525,4.525,0,0,0-2.5-7.6942ZM54.4483,69.8091l-2.344,2.3044.5469,3.2417,2.891,16.9116L40.3843,84.28l-2.91-1.5427-2.91,1.5427L19.4056,92.2668l2.8909-16.9116.5469-3.2417-2.344-2.3044L8.252,57.8187l16.955-2.48L28.45,54.87l1.4454-2.9488,7.5985-15.3884,7.5789,15.3884L46.5178,54.87l3.2425.4687,16.9549,2.48-12.2669,11.99Zm-5.86-48.3523,9.4932,4.7454,4.7466,9.4908a3.1286,3.1286,0,0,0,2.7933,1.738,3.0935,3.0935,0,0,0,2.7932-1.738l4.7466-9.4908,9.4932-4.7454a3.1279,3.1279,0,0,0,0-5.5851l-9.4932-4.7454-4.7466-9.53a3.2419,3.2419,0,0,0-5.5865,0l-4.7466,9.4908-9.4932,4.7454a3.1316,3.1316,0,0,0-1.7189,2.7926,3.2133,3.2133,0,0,0,1.7189,2.8316Zm13.2241-5.2336a3.16,3.16,0,0,0,1.4064-1.406l2.4026-4.8235,2.4026,4.8235a3.2586,3.2586,0,0,0,1.4064,1.406l4.8247,2.4215L69.43,21.0663a3.1587,3.1587,0,0,0-1.4064,1.406l-2.4026,4.8235-2.4026-4.8235a3.26,3.26,0,0,0-1.4064-1.406l-4.8248-2.4216ZM93.7493,37.431,90.624,31.182l-3.1253,6.249L81.248,40.5556,87.4987,43.68l3.1253,6.2491L93.7493,43.68,100,40.5556Z"/>
</svg>
