<svg width="560px" height="535px" version="1.1" xmlns="http://www.w3.org/2000/svg">
  <defs>
    <style>
      .cls-1 {
        fill: #706f6f;
      }
    </style>
  </defs>
    <path class="cls-1" transform="scale(1, -1) translate(0, -450)" unicode="&#xf005;" horiz-adv-x="576" 
d="M528.1 276.5c26.2002 -3.7998 36.7002 -36.0996 17.7002 -54.5996l-105.7 -103l25 -145.5c4.5 -26.3008 -23.1992 -45.9004 -46.3994 -33.7002l-130.7 68.7002l-130.7 -68.7002c-23.2002 -12.2998 -50.8994 7.39941 -46.3994 33.7002l25 145.5l-105.7 103
c-19 18.5 -8.5 50.7998 17.7002 54.5996l146.1 21.2998l65.2998 132.4c11.7998 23.8994 45.7002 23.5996 57.4004 0l65.2998 -132.4zM388.6 135.7l100.601 98l-139 20.2002l-62.2002 126l-62.2002 -126l-139 -20.2002l100.601 -98l-23.7002 -138.4l124.3 65.2998
l124.3 -65.2998z" />
</svg>
