<svg id="Layer_1" data-name="Layer 1" xmlns="http://www.w3.org/2000/svg" xmlns:xlink="http://www.w3.org/1999/xlink" viewBox="0 0 134 112.9984">
  <defs>
    <style>
      .cls-1, .cls-2 {
        fill: none;
      }

      .cls-1 {
        clip-rule: evenodd;
      }

      .cls-3 {
        clip-path: url(#clip-path);
      }

      .cls-4 {
        clip-path: url(#clip-path-2);
      }

      .cls-5 {
        fill: #fff;
      }

      .cls-6 {
        clip-path: url(#clip-path-3);
      }

      .cls-7 {
        clip-path: url(#clip-path-4);
      }

      .cls-8 {
        fill: #b4ec51;
      }
    </style>
    <clipPath id="clip-path" transform="translate(5 5)">
      <path class="cls-1" d="M15.4688,102.9875A62,62,0,1,1,124,62.0125v.1H98.7966l0-.1A36.7968,36.7968,0,1,0,35.9309,87.9818Z"/>
    </clipPath>
    <clipPath id="clip-path-2" transform="translate(5 5)">
      <rect class="cls-2" x="-641" y="-1599.9875" width="1024" height="4231"/>
    </clipPath>
    <clipPath id="clip-path-3" transform="translate(5 5)">
      <path class="cls-1" d="M94.448,44.6317A36.8,36.8,0,1,0,35.9651,88.0035L15.49,102.9984a62.0041,62.0041,0,1,1,99.37-73.4165Z"/>
    </clipPath>
    <clipPath id="clip-path-4" transform="translate(5 5)">
      <rect class="cls-2" x="-641" y="-1600" width="1024" height="4231"/>
    </clipPath>
  </defs>
  <title>Icon - Job Match</title>
  <g class="cls-3">
    <g class="cls-4">
      <rect class="cls-5" y="0.0125" width="134" height="112.9749"/>
    </g>
  </g>
  <g class="cls-6">
    <g class="cls-7">
      <rect class="cls-8" width="124.8598" height="112.9984"/>
    </g>
  </g>
  <g>
    <path class="cls-5" d="M50.1929,73.3242l.0683,1.6406a5.4619,5.4619,0,0,1,4.3887-1.914A4.23,4.23,0,0,1,58.8745,75.43a5.6028,5.6028,0,0,1,1.9209-1.7227,5.6722,5.6722,0,0,1,2.7959-.6562q4.8669,0,4.95,5.1543v9.9121H66.0117V78.3555a3.4,3.4,0,0,0-.7246-2.3721,3.1933,3.1933,0,0,0-2.4341-.7861,3.3533,3.3533,0,0,0-2.3379.8408,3.4079,3.4079,0,0,0-1.08,2.2627v9.8164h-2.543V78.4238q0-3.227-3.1582-3.2265A3.383,3.383,0,0,0,50.33,77.3164V88.1172H47.8V73.3242Z" transform="translate(5 5)"/>
    <path class="cls-5" d="M81.4883,88.1172a5.318,5.318,0,0,1-.3555-1.5586,5.6416,5.6416,0,0,1-4.2109,1.832,5.2215,5.2215,0,0,1-3.5889-1.2373,4.003,4.003,0,0,1-1.4014-3.1377,4.1834,4.1834,0,0,1,1.7569-3.5888,8.2788,8.2788,0,0,1,4.9424-1.2784h2.4609V77.9863a2.843,2.843,0,0,0-.793-2.1123,3.1845,3.1845,0,0,0-2.3379-.7861,3.6852,3.6852,0,0,0-2.2695.6836,2.0151,2.0151,0,0,0-.916,1.6543h-2.543a3.489,3.489,0,0,1,.7862-2.14,5.3706,5.3706,0,0,1,2.1328-1.6338,7.17,7.17,0,0,1,2.96-.6015,5.8467,5.8467,0,0,1,4.0059,1.2783,4.6112,4.6112,0,0,1,1.5039,3.52v6.8086a8.3151,8.3151,0,0,0,.52,3.24v.2188ZM77.291,86.19a4.4452,4.4452,0,0,0,2.2559-.6153,3.7227,3.7227,0,0,0,1.5449-1.6V80.94H79.1094q-4.648,0-4.6485,2.7207a2.3031,2.3031,0,0,0,.793,1.8593A3.05,3.05,0,0,0,77.291,86.19Z" transform="translate(5 5)"/>
    <path class="cls-5" d="M91.0176,69.7422v3.582h2.7617v1.9551H91.0176v9.1855a2.0556,2.0556,0,0,0,.3691,1.335,1.5553,1.5553,0,0,0,1.2578.4443,6.1218,6.1218,0,0,0,1.2032-.164v2.039a7.3927,7.3927,0,0,1-1.9415.2715A3.15,3.15,0,0,1,89.35,87.3652a4.4052,4.4052,0,0,1-.8613-2.9121V75.2793H85.7949V73.3242h2.6934v-3.582Z" transform="translate(5 5)"/>
    <path class="cls-5" d="M102.666,86.3262a3.6441,3.6441,0,0,0,2.3652-.82,2.8856,2.8856,0,0,0,1.1211-2.0508h2.3926a4.5866,4.5866,0,0,1-.875,2.42,5.77,5.77,0,0,1-2.1533,1.832,6.2069,6.2069,0,0,1-2.8506.6836A6.092,6.092,0,0,1,97.86,86.374a8.0328,8.0328,0,0,1-1.7842-5.5166v-.4238a8.91,8.91,0,0,1,.7929-3.8418,6.0374,6.0374,0,0,1,2.2764-2.6113,6.4654,6.4654,0,0,1,3.5068-.93,5.9346,5.9346,0,0,1,4.1358,1.49,5.3254,5.3254,0,0,1,1.7568,3.8692h-2.3926a3.4879,3.4879,0,0,0-1.0869-2.3584,3.38,3.38,0,0,0-2.4131-.9229,3.5406,3.5406,0,0,0-2.9873,1.3877,6.519,6.519,0,0,0-1.0595,4.0127v.4785a6.3867,6.3867,0,0,0,1.0527,3.9375A3.5563,3.5563,0,0,0,102.666,86.3262Z" transform="translate(5 5)"/>
    <path class="cls-5" d="M113.918,75.1152a5.3782,5.3782,0,0,1,4.375-2.0644q4.6888,0,4.73,5.291v9.7754h-2.5293V78.3281a3.4039,3.4039,0,0,0-.7314-2.3652,2.93,2.93,0,0,0-2.2354-.7656,3.6509,3.6509,0,0,0-2.16.6562,4.4554,4.4554,0,0,0-1.4492,1.7227v10.541h-2.5293v-21h2.5293Z" transform="translate(5 5)"/>
  </g>
</svg>
