<svg id="Layer_1" data-name="Layer 1" xmlns="http://www.w3.org/2000/svg" xmlns:xlink="http://www.w3.org/1999/xlink" viewBox="0 0 24 24">
  <defs>
    <style>
      .cls-1, .cls-4 {
        fill: none;
      }

      .cls-2 {
        clip-path: url(#clip-path);
      }

      .cls-3 {
        fill: #706f6f ;
      }

      .cls-4 {
        stroke: #706f6f ;
        stroke-miterlimit: 10;
      }
    </style>
    <clipPath id="clip-path">
      <path class="cls-1" d="M10.5,15.9994a5.5,5.5,0,1,1,5.5-5.5A5.4958,5.4958,0,0,1,10.5,15.9994Zm9.39,3.05-4.031-4.0311a.3708.3708,0,0,0-.2656-.1094h-.3219a6.4351,6.4351,0,1,0-.3625.3656v.3188a.3845.3845,0,0,0,.1094.2656l4.0311,4.031a.3752.3752,0,0,0,.5312,0l.3093-.3093A.3752.3752,0,0,0,19.89,19.0493Z"/>
    </clipPath>
  </defs>
  <title>Keyword_Search</title>
  <g class="cls-2">
    <rect class="cls-3" x="-1" y="-1" width="26" height="26"/>
  </g>
  <path class="cls-4" d="M10.5,15.9994a5.5,5.5,0,1,1,5.5-5.5A5.4958,5.4958,0,0,1,10.5,15.9994Zm9.39,3.05-4.031-4.0311a.3708.3708,0,0,0-.2656-.1094h-.3219a6.4351,6.4351,0,1,0-.3625.3656v.3188a.3845.3845,0,0,0,.1094.2656l4.0311,4.031a.3752.3752,0,0,0,.5312,0l.3093-.3093A.3752.3752,0,0,0,19.89,19.0493Z"/>
</svg>
